<svg xmlns="http://www.w3.org/2000/svg" width="368" height="301" viewBox="0 0 368 301">
  <filter id="a___jCLXQ2kT" width="103.3%" height="104.1%" x="-1.7%" y="-2%">
    <feOffset in="SourceAlpha" result="shadowOffsetOuter1"></feOffset>
    <feGaussianBlur in="shadowOffsetOuter1" result="shadowBlurOuter1" stdDeviation="2"></feGaussianBlur>
    <feColorMatrix in="shadowBlurOuter1" result="shadowMatrixOuter1" values="0 0 0 0 0.0901960784 0 0 0 0 0.611764706 0 0 0 0 1 0 0 0 1 0"></feColorMatrix>
    <feMerge>
      <feMergeNode in="shadowMatrixOuter1"></feMergeNode>
      <feMergeNode in="SourceGraphic"></feMergeNode>
    </feMerge>
  </filter>
  <g fill="none" filter="url(#a___jCLXQ2kT)" transform="translate(4 4)">
    <path fill="#03e0c0" d="m32.3076923 14.4477318v31.7850098c0 10.2134553 8.2655123 18.4930967 18.4615385 18.4930967h258.4615382c10.196026 0 18.461539-8.2796414 18.461539-18.4930967v-31.7850098zm-14.4230769-14.4477318h324.2307696v46.2327416c0 18.1927173-14.722944 32.9408284-32.884616 32.9408284h-258.4615382c-18.1616716 0-32.8846154-14.7481111-32.8846154-32.9408284z" transform="matrix(1 0 0 -1 0 79.174)"></path>
    <path fill="#03caad" d="m180 64.7258383h147.692308v-31.7850099c0-10.2134553-8.265513-18.4930966-18.461539-18.4930966-57.435897 0-100.51282 0-129.230769 0m0-14.4477318h129.230769c18.161672 0 32.884616 14.7481113 32.884616 32.9408284v46.2327416c-72.051283 0-126.089744 0-162.115385 0"></path>
    <rect width="360" height="242.144" y="50.856" fill="#03f9d5" rx="18.462"></rect>
    <path fill="#03e0c0" d="m180 50.8560158h161.538462c10.196026 0 18.461538 8.2796414 18.461538 18.4930966v205.1577906c0 10.213456-8.265512 18.493097-18.461538 18.493097h-161.538462z"></path>
    <rect width="323.077" height="205.158" x="18.462" y="69.349" fill="#fff" rx="18.462"></rect>
    <path fill="#f2f2f2" d="m180 69.3491124h143.076923c10.196026 0 18.461539 8.2796414 18.461539 18.4930967v168.1715979c0 10.213455-8.265513 18.493096-18.461539 18.493096h-143.076923z"></path>
    <path fill="#50189b" d="m36.9230769 69.3491124h286.1538461c10.196026 0 18.461539 8.2796414 18.461539 18.4930967v75.1282049h-323.0769235v-75.1282049c0-10.2134553 8.2655123-18.4930967 18.4615384-18.4930967z"></path>
    <path fill="#40137c" d="m180 69.3491124h143.076923c10.196026 0 18.461539 8.2796414 18.461539 18.4930967v75.1282049h-161.538462z"></path>
    <g stroke-width=".577" transform="translate(32.308 87.842)">
      <ellipse cx="28.269" cy="28.318" fill="#03f9d5" stroke="#fff" rx="28.269" ry="28.318"></ellipse>
      <ellipse cx="28.269" cy="28.318" fill="#fff" stroke="#6060bc" rx="14.423" ry="14.448"></ellipse>
    </g>
    <g stroke-width=".577" transform="translate(271.154 87.842)">
      <ellipse cx="28.269" cy="28.318" fill="#03e0c0" stroke="#f2f2f2" rx="28.269" ry="28.318"></ellipse>
      <ellipse cx="28.269" cy="28.318" fill="#f2f2f2" stroke="#5656a9" rx="14.423" ry="14.448"></ellipse>
    </g>
    <path fill="#f2f2f2" d="M229.615385 119.04931h25.384615v8.668639h-25.384615zM198.461538 119.04931h25.384616v8.668639h-25.384616z"></path>
    <path fill="#fff" d="m167.307692 119.04931h25.384616v8.668639h-25.384616z"></path>
    <path fill="#f2f2f2" d="m180 119.04931h12.692308v8.668639h-12.692308z"></path>
    <path fill="#fff" d="M136.153846 119.04931h25.384616v8.668639h-25.384616zM105 119.04931h25.384615v8.668639h-25.384615z"></path>
    <path fill="#f2f2f2" d="M229.615385 104.601578h25.384615v8.668639h-25.384615zM198.461538 104.601578h25.384616v8.668639h-25.384616z"></path>
    <path fill="#fff" d="m167.307692 104.601578h25.384616v8.668639h-25.384616z"></path>
    <path fill="#f2f2f2" d="m180 104.601578h12.692308v8.668639h-12.692308z"></path>
    <path fill="#fff" d="M136.153846 104.601578h25.384616v8.668639h-25.384616zM105 104.601578h25.384615v8.668639h-25.384615z"></path>
    <path fill="#6060bc" d="m30 249.656805h300v7.51282h-300z"></path>
    <path fill="#5656a9" d="m180.576923 249.656805h149.423077v7.51282h-149.423077z"></path>
    <path fill="#6060bc" d="m30 232.319527h300v7.51282h-300z"></path>
    <path fill="#5656a9" d="m180.576923 232.319527h149.423077v7.51282h-149.423077z"></path>
    <path fill="#6060bc" d="m30 214.982249h300v7.51282h-300z"></path>
    <path fill="#5656a9" d="m180.576923 214.982249h149.423077v7.51282h-149.423077z"></path>
    <path fill="#6060bc" d="m30 197.64497h300v7.512821h-300z"></path>
    <path fill="#5656a9" d="m180.576923 197.64497h149.423077v7.512821h-149.423077z"></path>
    <path fill="#6060bc" d="m30 180.307692h300v7.512821h-300z"></path>
    <path fill="#5656a9" d="m180.576923 180.307692h149.423077v7.512821h-149.423077z"></path>
    <path fill="#db3069" d="m210 95.3550296h5.192308v41.6094674h-5.192308z"></path>
  </g>
</svg>