<svg xmlns="http://www.w3.org/2000/svg" width="356" height="370" viewBox="0 0 356 370">
  <filter id="a___Z4DkfXBW" width="104.3%" height="104.2%" x="-1.7%" y="-2.5%">
    <feOffset in="SourceAlpha" result="shadowOffsetOuter1"></feOffset>
    <feGaussianBlur in="shadowOffsetOuter1" result="shadowBlurOuter1" stdDeviation="2"></feGaussianBlur>
    <feColorMatrix in="shadowBlurOuter1" result="shadowMatrixOuter1" values="0 0 0 0 0.0901960784 0 0 0 0 0.611764706 0 0 0 0 1 0 0 0 1 0"></feColorMatrix>
    <feMerge>
      <feMergeNode in="shadowMatrixOuter1"></feMergeNode>
      <feMergeNode in="SourceGraphic"></feMergeNode>
    </feMerge>
  </filter>
  <g fill="none" fill-rule="evenodd" filter="url(#a___Z4DkfXBW)" transform="translate(4 6)">
    <path stroke="#f2f2f2" stroke-linecap="round" stroke-linejoin="round" stroke-width="4.35" d="m169.469388 132.145015 176.530612-132.145015"></path>
    <path stroke="#fff" stroke-linecap="round" stroke-linejoin="round" stroke-width="4.35" d="m169.469388 132.145015-115.6954477-81.5709969"></path>
    <g fill-rule="nonzero">
      <ellipse cx="169.469" cy="132.145" fill="#03e0c0" rx="19.554" ry="19.577"></ellipse>
      <path fill="#03caad" d="m169.469388 151.722054c10.799464 0 19.55416-8.764939 19.55416-19.577039s-8.754696-19.577039-19.55416-19.577039z"></path>
      <rect width="330.248" height="227.855" y="132.145" fill="#03f9d5" rx="17.402"></rect>
      <path fill="#03e0c0" d="m169.469388 132.145015h145.026687c9.599524 0 17.381476 7.791057 17.381476 17.401813v193.051359c0 9.610756-7.781952 17.401813-17.381476 17.401813h-145.026687z"></path>
      <g transform="translate(17.925 149.547)">
        <path fill="#6060bc" d="m18.5876638 9.36444301c-4.1798533.50344776-7.5002789 3.80165669-8.084852 8.03075679-3.09828133 22.4145544-4.6529451 48.7916001-4.6529451 79.1132163 0 30.0857149 1.53056267 56.2881149 4.5809688 78.5897589.592277 4.330162 4.0481557 7.674851 8.33935 8.07104 36.1866897 3.34097 67.3240195 5.009465 93.3946495 5.009465 11.731636 0 23.041738.676079 36.879594 0 16.920254-.826678 36.88927-3.172974 56.953114-5.011677 4.320208-.395916 7.791681-3.779288 8.355002-8.142968 2.747337-21.281806 4.127259-47.463314 4.127259-78.5156189 0-31.3052389-1.402504-57.6598388-4.194576-79.0340038-.556904-4.2632739-3.893944-7.59975799-8.103735-8.10238515-16.297075-1.94578613-35.810744-3.84058593-57.137064-4.53387436-11.762538-.38238347-23.590744 0-36.879594 0-37.3529616 0-68.5555007 1.51252341-93.5771712 4.52629022z"></path>
        <path fill="#5656a9" d="m151.544741 188.17868c16.920253-.826678 37.104814-3.172974 57.168658-5.011677 4.320208-.395916 7.79168-3.779288 8.355002-8.142968 2.747336-21.281806 4.127258-47.463314 4.127258-78.5156189 0-31.3052389-1.402503-57.6598388-4.194575-79.0340038-.556905-4.2632739-3.893945-7.59975799-8.103736-8.10238515-16.297075-1.94578613-36.026287-3.84058593-57.352607-4.53387436z"></path>
        <path fill="#50189b" d="m19.707008 11.5430423c-4.1298551.4908616-7.4105627 3.7066153-7.9881433 7.8299879-3.06122054 21.8541906-4.59728787 47.5718101-4.59728787 77.1353859 0 29.3335709 1.51225454 54.8809119 4.52617257 76.6250149.5851923 4.221908 3.9997327 7.48298 8.239597 7.869264 35.7538348 3.257445 66.5187084 4.884228 92.2774886 4.884228 25.764586 0 56.673967-1.6275 92.710307-4.886385 4.268531-.386017 7.698479-3.684806 8.255062-7.939394 2.714474-20.74976 4.07789-46.27673 4.07789-76.5527279 0-30.5226082-1.385728-56.2183429-4.144401-77.0581537-.550244-4.156692-3.847367-7.4097641-8.006801-7.8998255-24.983272-2.94351046-55.956734-4.42052754-92.892057-4.42052754-36.9061556 0-67.7354588 1.47471036-92.457827 4.41313294zm-.8395633-7.08018997c25.0320875-2.97523489 56.1312176-4.46285233 93.2973903-4.46285233 37.193391 0 68.434855 1.48979714 93.724391 4.46939142 7.39455.87122045 13.256103 6.65445948 14.234313 14.04413428 2.804088 21.1828797 4.206131 47.1811765 4.206131 77.9948904 0 30.5638539-1.379398 56.3900689-4.138195 77.4786429-.989482 7.563712-7.087166 13.428225-14.675667 14.114478-36.235143 3.276863-67.352134 4.915295-93.350973 4.915295-25.9942715 0-56.968569-1.637856-92.9228932-4.913568-7.5375368-.686727-13.60783081-6.484188-14.64817282-13.989801-3.06251265-22.094693-4.59376898-47.963042-4.59376898-77.6050469 0-29.8751014 1.55543372-55.9169632 4.66630117-78.1255851 1.02680999-7.3304405 6.85917893-13.04733594 14.20114353-13.91997867z"></path>
        <path fill="#40137c" d="m151.544741 184.813768c16.24962-.811022 34.185621-2.081905 53.330401-3.81323 4.268531-.386017 7.698479-3.684806 8.255062-7.939394 2.714474-20.74976 4.07789-46.27673 4.07789-76.5527279 0-30.5226082-1.385728-56.2183429-4.144401-77.0581537-.550244-4.156692-3.847367-7.4097641-8.006801-7.8998255-15.465978-1.82219002-33.461688-3.08238008-53.512151-3.77807361m.001797-7.14214319c20.435406.6987218 38.549635 1.97844557 54.342688 3.83917132 7.39455.87122045 13.256103 6.65445948 14.234313 14.04413428 2.804088 21.1828797 4.206131 47.1811765 4.206131 77.9948904 0 30.5638539-1.379398 56.3900689-4.138195 77.4786429-.989482 7.563712-7.087166 13.428225-14.675667 14.114478-19.461698 1.759986-37.461735 3.047332-53.971067 3.862039"></path>
      </g>
      <rect width="60.835" height="193.051" x="260.722" y="149.547" fill="#40137c" rx="13.051"></rect>
      <g fill="#f2f2f2" transform="translate(273.758 162.598)">
        <path d="M0 64.7129909h34.7629513v4.3504532h-34.7629513zM0 55.4682779h34.7629513v4.3504532h-34.7629513zM0 46.223565h34.7629513v4.3504531h-34.7629513zM0 36.978852h34.7629513v4.3504531h-34.7629513zM0 27.734139h34.7629513v4.3504531h-34.7629513zM0 18.489426h34.7629513v4.3504532h-34.7629513zM0 9.24471299h34.7629513v4.35045321h-34.7629513zM0 0h34.7629513v4.35045317h-34.7629513z"></path>
      </g>
    </g>
    <g stroke="#f2f2f2" stroke-width="4.35" transform="translate(275.93 249.063)">
      <ellipse cx="15.209" cy="15.227" fill="#5656a9" fill-rule="nonzero" rx="15.209" ry="15.227"></ellipse>
      <path d="m4.8522342 25.5952607 20.1891062-20.21272826"></path>
    </g>
    <g fill-rule="nonzero" stroke="#f2f2f2" stroke-width="4.35" transform="translate(275.93 296.918)">
      <ellipse cx="15.209" cy="15.227" fill="#5656a9" rx="15.209" ry="15.227" transform="matrix(1 0 0 -1 0 30.453)"></ellipse>
      <path fill="#93c3e0" d="m4.8522342 25.0706395 20.1891062-20.21272821" transform="matrix(1 0 0 -1 0 29.929)"></path>
    </g>
  </g>
</svg>