<svg xmlns="http://www.w3.org/2000/svg" width="368" height="296" viewBox="0 0 368 296">
  <filter id="a___WnqdcRCz" width="103.6%" height="104.5%" x="-1.7%" y="-2.1%">
    <feOffset in="SourceAlpha" result="shadowOffsetOuter1"></feOffset>
    <feGaussianBlur in="shadowOffsetOuter1" result="shadowBlurOuter1" stdDeviation="2"></feGaussianBlur>
    <feColorMatrix in="shadowBlurOuter1" result="shadowMatrixOuter1" values="0 0 0 0 0.0901960784 0 0 0 0 0.611764706 0 0 0 0 1 0 0 0 1 0"></feColorMatrix>
    <feMerge>
      <feMergeNode in="shadowMatrixOuter1"></feMergeNode>
      <feMergeNode in="SourceGraphic"></feMergeNode>
    </feMerge>
  </filter>
  <g fill="none" fill-rule="evenodd" filter="url(#a___WnqdcRCz)" transform="translate(4 4)">
    <path fill="#40137c" fill-rule="nonzero" d="m181.018687 31.0693359c41.410559 41.4258119 41.410559 108.5902121 0 150.0160241-20.705133 20.71276-47.843057 31.069432-74.980395 31.069139l-11.7250599-40.578748 11.7250599-39.654627c6.611747 0 13.223203-2.523023 18.267684-7.569363 10.088964-10.09268 10.088964-26.4561461 0-36.548826-5.044481-5.0463397-11.655937-7.5693629-18.267684-7.5693629l-11.7250599-36.4193201 11.7250599-43.81405512c27.137338-.00029299 54.275262 10.35637972 74.980395 31.06913902z"></path>
    <path fill="#50189b" fill-rule="nonzero" d="m87.770607 124.351761c5.0444817 5.04634 11.6559368 7.569363 18.267685 7.569363v80.233375c-27.1376312 0-54.2752623-10.356379-74.9803954-31.069139-41.4105593-41.425812-41.4105593-108.5902122 0-150.0160241 20.7051331-20.7127593 47.8427642-31.06913902 74.9803954-31.06913902v80.23337522c-6.6117482 0-13.2232033 2.5230232-18.267685 7.5693629-10.0889635 10.0926799-10.0889635 26.456146 0 36.548826z"></path>
    <g stroke="#fff" stroke-width="2.121" opacity=".5" transform="translate(11.664 11.669)">
      <ellipse cx="94.374" cy="94.409" rx="94.374" ry="94.409"></ellipse>
      <ellipse cx="94.374" cy="94.409" rx="81.649" ry="81.68"></ellipse>
      <ellipse cx="94.374" cy="94.409" rx="68.925" ry="68.95"></ellipse>
      <ellipse cx="94.374" cy="94.409" rx="56.2" ry="56.221"></ellipse>
    </g>
    <g fill-rule="nonzero">
      <ellipse cx="106.66" cy="106.285" fill="#03f9d5" rx="43.699" ry="43.715"></ellipse>
      <path fill="#03e0c0" d="m106.65961 150c24.134498 0 43.699374-19.572082 43.699374-43.71547 0-24.143387-19.564876-43.7154692-43.699374-43.7154692z"></path>
      <ellipse cx="106.66" cy="106.285" fill="#0e0e89" rx="5.592" ry="5.594"></ellipse>
      <g transform="translate(165.95 136.84)">
        <path fill="#6060bc" d="m33.4020619 142.674033h21.7378497v2.121547c0 3.515094-2.8484976 6.364641-6.3622975 6.364641h-9.0132547c-3.5137999 0-6.3622975-2.849547-6.3622975-6.364641z"></path>
        <path fill="#5656a9" d="m138.910162 142.674033h21.73785v2.121547c0 3.515094-2.848498 6.364641-6.362298 6.364641h-9.013255c-3.513799 0-6.362297-2.849547-6.362297-6.364641z"></path>
        <rect width="194.05" height="27.58" y="115.094" fill="#03e0c0" rx="6.362"></rect>
        <path fill="#03caad" d="m97.0250368 115.093923h90.6627392c3.5138 0 6.362298 2.849546 6.362298 6.364641v14.850828c0 3.515094-2.848498 6.364641-6.362298 6.364641h-90.6627392z"></path>
        <path fill="#03f9d5" d="m59.7676173 32.8839779h74.0754617c2.341721 0 4.494154 1.2868411 5.60333 3.3499751l42.500075 79.052683h-170.2822719l42.5000751-79.052683c1.109176-2.063134 3.2616085-3.3499751 5.6033301-3.3499751z"></path>
        <path fill="#03e0c0" d="m97.0250368 32.8839779h37.0377312c2.341721 0 4.494154 1.2868411 5.60333 3.3499751l42.500075 79.052683c-37.840505 0-66.220884 0-85.1411362 0z"></path>
        <path fill="#50189b" d="m74.29666 47.3370166h45.022829c3.5138 0 6.362298 2.8495468 6.362298 6.3646409v44.5524861c0 3.5150944-2.848498 6.3646414-6.362298 6.3646414h-45.022829c-3.5137999 0-6.3622975-2.849547-6.3622975-6.3646414v-44.5524861c0-3.5150941 2.8484976-6.3646409 6.3622975-6.3646409z"></path>
        <path fill="#40137c" d="m97.0250368 47.3370166h22.2944522c3.5138 0 6.362298 2.8495468 6.362298 6.3646409v44.5524861c0 3.5150944-2.848498 6.3646414-6.362298 6.3646414-7.431484 0-14.862968 0-22.2944522 0z"></path>
        <rect width="9.013" height="7.425" x="78.999" y="55.691" fill="#fff" rx="1.272"></rect>
        <rect width="9.013" height="7.425" x="92.784" y="55.691" fill="#fff" rx="1.272"></rect>
        <rect width="9.013" height="7.425" x="106.038" y="55.691" fill="#f2f2f2" rx="1.272"></rect>
        <rect width="9.013" height="7.425" x="78.999" y="67.359" fill="#fff" rx="1.272"></rect>
        <rect width="9.013" height="7.425" x="92.784" y="67.359" fill="#fff" rx="1.272"></rect>
        <rect width="9.013" height="7.425" x="106.038" y="67.359" fill="#f2f2f2" rx="1.272"></rect>
        <rect width="9.013" height="7.425" x="78.999" y="79.028" fill="#fff" rx="1.272"></rect>
        <rect width="9.013" height="7.425" x="92.784" y="79.028" fill="#fff" rx="1.272"></rect>
        <rect width="9.013" height="7.425" x="106.038" y="79.028" fill="#f2f2f2" rx="1.272"></rect>
        <rect width="9.013" height="7.425" x="92.784" y="90.696" fill="#fff" rx="1.272"></rect>
        <path fill="#03e0c0" d="m70.5154639 16.441989h8.4830633v16.4419889h-8.4830633z"></path>
        <path fill="#03caad" d="m115.051546 16.441989h8.483064v16.4419889h-8.483064z"></path>
        <path fill="#03f9d5" d="m149.002735 16.5682715h-103.9553965v18.6393055c0 4.5752018-3.7233933 8.2841357-8.3164317 8.2841357h-28.41447507c-4.59303842 0-8.31643173-3.7089339-8.31643173-8.2841357v-26.92344126c0-4.57520183 3.72339331-8.28413574 8.31643173-8.28413574h177.41721027c4.593039 0 8.316432 3.70893391 8.316432 8.28413574v26.92344126c0 4.5752018-3.723393 8.2841357-8.316432 8.2841357h-28.414475c-4.593038 0-8.316432-3.7089339-8.316432-8.2841357z"></path>
        <path fill="#03e0c0" d="m148.940364 16.6190236c-22.919656 0-40.224765 0-51.9153272 0v-16.6190236h88.6021572c4.587528 0 8.306453 3.72029514 8.306453 8.30951178v27.00591322c0 4.5892166-3.718925 8.3095118-8.306453 8.3095118h-28.380378c-4.587527 0-8.306452-3.7202952-8.306452-8.3095118z"></path>
      </g>
    </g>
  </g>
</svg>