<svg xmlns="http://www.w3.org/2000/svg" width="368" height="275" viewBox="0 0 368 275">
  <filter id="a___Qt0b90DW" width="103.6%" height="104.9%" x="-1.7%" y="-2.2%">
    <feOffset in="SourceAlpha" result="shadowOffsetOuter1"></feOffset>
    <feGaussianBlur in="shadowOffsetOuter1" result="shadowBlurOuter1" stdDeviation="2"></feGaussianBlur>
    <feColorMatrix in="shadowBlurOuter1" result="shadowMatrixOuter1" values="0 0 0 0 0.0901960784 0 0 0 0 0.611764706 0 0 0 0 1 0 0 0 1 0"></feColorMatrix>
    <feMerge>
      <feMergeNode in="shadowMatrixOuter1"></feMergeNode>
      <feMergeNode in="SourceGraphic"></feMergeNode>
    </feMerge>
  </filter>
  <g fill="none" fill-rule="evenodd" filter="url(#a___Qt0b90DW)" transform="translate(4 4)">
    <g fill-rule="nonzero" transform="translate(0 137.821)">
      <rect width="74.278" height="74.141" y=".455" fill="#03f9d5" rx="3.281"></rect>
      <path fill="#03e0c0" d="m37.1392405.4548552h33.8582279c1.8120531 0 3.2810126 1.46624837 3.2810126 3.27495741v67.59148209c0 1.808709-1.4689595 3.2749574-3.2810126 3.2749574-11.2860761 0-22.5721518 0-33.8582279 0z"></path>
      <path fill="#fff" d="m15.3006701 41.8868123h43.6771406c3.6241068 0 6.5620253 2.9324968 6.5620253 6.5499147v26.1595251h-56.80119117v-26.1595251c0-3.6174179 2.93791877-6.5499147 6.56202527-6.5499147z"></path>
      <path fill="#f2f2f2" d="m37.1392405 41.8868123h21.8385702c3.6241068 0 6.5620253 2.9324968 6.5620253 6.5499147v26.1595251h-28.4005955z"></path>
      <path fill="#50189b" d="m12.0196575.45485488h50.2391658c1.8120537 0 3.2810127 1.46624837 3.2810127 3.27495741v29.43448241h-56.80119117v-29.43448241c0-1.80870904 1.46895937-3.27495741 3.28101267-3.27495741z" transform="matrix(1 0 0 -1 0 33.62)"></path>
      <path fill="#40137c" d="m37.1392405.45485488h25.1195828c1.8120537 0 3.2810127 1.46624837 3.2810127 3.27495741v29.43448241h-28.4005955z" transform="matrix(1 0 0 -1 0 33.62)"></path>
      <g transform="matrix(1 0 0 -1 30.532 26.895)">
        <path fill="#fff" d="m3.33462399 0h21.83857011c1.8120536 0 3.2810127 1.46624838 3.2810127 3.27495741v23.16517309h-28.40059546v-23.16517309c0-1.80870903 1.4689594-3.27495741 3.28101265-3.27495741z"></path>
        <path fill="#f2f2f2" d="m6.60759494 0h18.56559916c1.8120536 0 3.2810127 1.46624838 3.2810127 3.27495741v23.16517309h-21.84661186z"></path>
        <rect width="6.554" height="17.718" x="17.531" y="4.361" fill="#40137c" rx="3.277"></rect>
      </g>
    </g>
    <g transform="translate(292.557 202.865)">
      <path stroke="#fff" stroke-width="1.823" d="m51.4936709 24.6438688-51.39433247-24.6438688h28.07842317c12.8763346 0 23.3159093 10.3852382 23.3159093 23.197615z"></path>
      <g fill-rule="nonzero">
        <rect width="32.81" height="41.847" x="34.633" y="22.288" fill="#fff" rx="5.468"></rect>
        <path fill="#f2f2f2" d="m51.0379747 22.2879046h10.9367088c3.0200888 0 5.4683545 2.4437473 5.4683545 5.4582624v30.9301533c0 3.014515-2.4482657 5.4582623-5.4683545 5.4582623-3.6455696 0-7.2911392 0-10.9367088 0z"></path>
        <path fill="#6060bc" d="m39.6455696 27.2913118h9.1139241v13.1908006h-9.1139241z"></path>
        <path fill="#5656a9" d="m53.3164557 27.2913118h9.113924v13.1908006h-9.113924z"></path>
      </g>
    </g>
    <g fill-rule="nonzero">
      <g transform="translate(102.076)">
        <path fill="#6060bc" d="m0 212.872232h200.962025v7.277683h-200.962025z"></path>
        <path fill="#5656a9" d="m100.253165 212.872232h100.70886v7.277683h-100.70886z"></path>
        <path fill="#fff" d="m10.9367089 151.011925h179.0886071c6.040178 0 10.936709 4.887495 10.936709 10.916525v50.943782h-200.962025v-50.943782c0-6.02903 4.89653134-10.916525 10.9367089-10.916525z"></path>
        <g fill="#f2f2f2" transform="translate(16.86 151.012)">
          <path d="m83.3924051 0h89.7721519c6.040177 0 10.936709 4.88749459 10.936709 10.9165247v50.9437819h-100.7088609z"></path>
          <path d="m-12.7594937 29.1107325h29.164557v3.6388416h-29.164557z" transform="rotate(90 1.823 30.93)"></path>
          <path d="m-5.01265823 29.1107325h29.16455693v3.6388416h-29.16455693z" transform="rotate(90 9.57 30.93)"></path>
          <path d="m2.73417722 29.1107325h29.16455698v3.6388416h-29.16455698z" transform="rotate(90 17.316 30.93)"></path>
          <path d="m10.4810127 29.1107325h29.1645569v3.6388416h-29.1645569z" transform="rotate(90 25.063 30.93)"></path>
          <path d="m18.2278481 29.1107325h29.164557v3.6388416h-29.164557z" transform="rotate(90 32.81 30.93)"></path>
          <path d="m25.9746835 29.1107325h29.164557v3.6388416h-29.164557z" transform="rotate(90 40.557 30.93)"></path>
        </g>
        <rect width="74.734" height="29.111" x="109.367" y="167.387" fill="#40137c" rx="5.468"></rect>
        <path fill="#fff" d="m128.506329 180.577513v-1.819421h36.455696v1.819421h9.113924v2.729131h-9.113924v1.819421h-36.455696v-1.819421h-9.113924v-2.729131z"></path>
        <path fill="#f2f2f2" d="m40.1012658 140.0954h120.3037972v10.916525h-120.3037972z"></path>
        <path fill="#d7d7d7" d="m100.253165 140.0954h60.151898v10.916525h-60.151898z"></path>
        <rect width="170.886" height="140.095" x="14.582" fill="#fff" rx="10.937"></rect>
        <path fill="#f2f2f2" d="m100.025316 0h74.50633c6.040177 0 10.936708 4.88749459 10.936708 10.9165247v118.2623513c0 6.02903-4.896531 10.916524-10.936708 10.916524h-74.50633z"></path>
        <rect width="156.304" height="113.714" x="21.873" y="7.278" fill="#f2f2f2" rx="10.937"></rect>
        <path fill="#d7d7d7" d="m100.025316 7.27768313h67.21519c6.040178 0 10.936709 4.88749457 10.936709 10.91652467v91.8807492c0 6.029031-4.896531 10.916525-10.936709 10.916525-22.405063 0-44.810126 0-67.21519 0z"></path>
        <rect width="134.43" height="91.881" x="32.81" y="18.194" fill="#6060bc" rx="10.937"></rect>
        <path fill="#5656a9" d="m100.025316 18.1942078h56.278481c6.040178 0 10.936709 4.8874946 10.936709 10.9165247v70.0477002c0 6.0290303-4.896531 10.9165243-10.936709 10.9165243-18.759493 0-37.518987 0-56.278481 0z"></path>
      </g>
      <g transform="translate(102.076 232.886)">
        <path fill="#fff" d="m67.993483 5.45826235v-5.45826235h24.8151395v5.45826235h4.4667255v-5.45826235h10.918661v5.45826235h4.466726v-5.45826235h10.918661v5.45826235h4.466725v-5.45826235h10.918662v5.45826235h13.400175v-5.45826235h10.918662v5.45826235h4.466725v-5.45826235h10.918661v5.45826235h4.466725v-5.45826235h10.918662v5.45826235h6.451936v7.73253835h-200.506329v-7.73253835h6.45193631v-5.45826235h10.91866149v5.45826235h4.4667252v-5.45826235h10.9186615v5.45826235h4.4667251v-5.45826235h10.9186613v5.45826235h4.4667256v-5.45826235h10.9186614v5.45826235z"></path>
        <path fill="#f2f2f2" d="m100.253165 0h7.940844v5.45826235h4.466726v-5.45826235h10.918661v5.45826235h4.466725v-5.45826235h10.918662v5.45826235h13.400175v-5.45826235h10.918662v5.45826235h4.466725v-5.45826235h10.918661v5.45826235h4.466725v-5.45826235h10.918662v5.45826235h6.451936v7.73253835h-100.253164z"></path>
      </g>
    </g>
  </g>
</svg>