<svg xmlns="http://www.w3.org/2000/svg" width="359" height="324" viewBox="0 0 359 324">
  <defs>
    <filter id="a___oixInIQZ" width="103.3%" height="103.8%" x="-1.7%" y="-1.9%" filterUnits="objectBoundingBox">
      <feOffset in="SourceAlpha" result="shadowOffsetOuter1"></feOffset>
      <feGaussianBlur in="shadowOffsetOuter1" result="shadowBlurOuter1" stdDeviation="2"></feGaussianBlur>
      <feColorMatrix in="shadowBlurOuter1" result="shadowMatrixOuter1" values="0 0 0 0 0.0901960784 0 0 0 0 0.611764706 0 0 0 0 1 0 0 0 1 0"></feColorMatrix>
      <feMerge>
        <feMergeNode in="shadowMatrixOuter1"></feMergeNode>
        <feMergeNode in="SourceGraphic"></feMergeNode>
      </feMerge>
    </filter>
  </defs>
  <g fill="none" fill-rule="evenodd" filter="url(#a___oixInIQZ)" transform="translate(-5 4)">
    <path stroke="#FFFFFF" stroke-dasharray="6.873" stroke-width="3.172" d="M91.4093389,261.483766 C91.4093389,261.483766 195.774717,184.648964 188.897511,139.273116 C182.588583,97.646776 159.068511,89.4552536 159.068511,89.4552536" transform="rotate(-50.188 140.316 175.47)"></path>
    <path stroke="#FFFFFF" stroke-dasharray="6.873" stroke-width="3.172" d="M153.270266,277.362894 C148.953131,248.960934 90.8809774,151.385091 90.8809774,151.385091" transform="rotate(-50.188 122.076 214.374)"></path>
    <path stroke="#FFFFFF" stroke-dasharray="6.873" stroke-width="3.172" d="M233.106532,142.386677 C315.424602,116.626509 349.196118,71.8108767 334.42108,7.9397775" transform="matrix(-1 0 0 1 570.9 0)"></path>
    <path stroke="#FFFFFF" stroke-dasharray="6.873" stroke-width="3.172" d="M198.739552,258.307428 C198.739552,258.307428 264.314617,203.730243 257.453313,158.376689 C251.158974,116.7708 217.308631,90.5134637 217.308631,90.5134637" transform="scale(1 -1) rotate(-81 24.14 0)"></path>
    <g fill-rule="nonzero">
      <g transform="translate(124.19 130.742)">
        <rect width="97.814" height="185.261" fill="#FFFFFF" rx="8.883"></rect>
        <path fill="#F2F2F2" d="M48.2717035,0 L88.921559,0 C93.8325699,0 97.813715,3.97678349 97.813715,8.88239948 L97.813715,176.379076 C97.813715,181.284698 93.8325699,185.261475 88.921559,185.261475 L48.2717035,185.261475 L48.2717035,0 Z"></path>
        <polygon fill="#6060BC" points="8.257 16.496 89.557 16.496 89.557 152.904 8.257 152.904"></polygon>
        <polygon fill="#5656A9" points="48.272 16.496 88.922 16.496 88.922 152.904 48.272 152.904"></polygon>
        <ellipse cx="48.589" cy="169.083" fill="#C4C4C4" rx="7.939" ry="7.931"></ellipse>
        <path fill="#B0B0B0" d="M56.5287052,169.082819 C56.5287052,173.462857 52.9741104,177.013533 48.5892805,177.013533 C48.5892805,177.013533 48.5892805,173.462857 48.5892805,169.082819 C48.5892805,164.702806 48.5892805,161.152105 48.5892805,161.152105 C52.9741104,161.152105 56.5287052,164.702806 56.5287052,169.082819 Z"></path>
      </g>
      <g transform="translate(115.73 46.05)">
        <ellipse cx="18.238" cy="18.259" fill="#FFE276" rx="18.238" ry="18.259"></ellipse>
        <path fill="#CA2027" d="M20.1902533,26.381224 C22.0431322,29.8421228 25.0347996,31.8488061 26.873055,30.8627628 C28.7113103,29.8758719 28.6994575,26.2701911 26.8468095,22.8090611 L20.1902533,26.381224 Z"></path>
        <g fill="#40137C" transform="translate(8.46 8.998)">
          <ellipse cx="4.235" cy="2.962" rx="2.864" ry="2.868"></ellipse>
          <ellipse cx="15.066" cy="2.962" rx="2.864" ry="2.868"></ellipse>
          <path d="M17.9590063,12.9658409 C13.3963864,17.6142758 6.0552947,17.5771364 1.53069597,12.8966476 C0.884181789,12.2277532 -0.133000533,13.2480849 0.512667006,13.9158235 C5.57464223,19.1527099 13.8770389,19.1812964 18.9770353,13.9850169 C19.6282444,13.3219014 18.6107542,12.302109 17.9590063,12.9658409 Z"></path>
        </g>
      </g>
      <g transform="translate(322.99 182.086)">
        <ellipse cx="18.238" cy="18.259" fill="#FFE276" rx="18.238" ry="18.259"></ellipse>
        <g fill="#40137C" transform="translate(5.287 8.998)">
          <path d="M0.000120125861,9.16603776 C0.080164737,14.0122669 2.74318743,18.3487925 7.06421124,20.5564292 C11.7722199,22.9618601 17.4896374,21.9253473 21.3556383,18.4525825 C22.0482551,17.8306902 21.0264548,16.8143651 20.3376093,17.4334065 C16.7817813,20.6276259 11.7111859,21.3147047 7.4535821,19.1393531 C3.72958339,17.236768 1.5080375,13.2895126 1.44007654,9.16603776 C1.42483726,8.23762984 -0.0151191558,8.2359347 0.000120125861,9.16603776 Z"></path>
          <path stroke="#40137C" stroke-width="1.057" d="M4.24571596,3.46671896 C4.69745037,2.60560345 5.62537281,2.04181901 6.69702785,1.99140646 C7.86466612,1.93646452 8.92695035,2.57818867 9.39611923,3.50829433 C9.4801982,3.67487917 9.18235814,3.77527941 9.0987851,3.6095058 C8.66726504,2.75400949 7.70429245,2.22644478 6.6483557,2.2761382 C5.72477111,2.31958038 4.92105331,2.84890793 4.5367189,3.5816105 C4.45019791,3.74658479 4.1590426,3.6319967 4.24571596,3.46671896 Z"></path>
          <ellipse cx="18.238" cy="2.963" rx="2.864" ry="2.868"></ellipse>
        </g>
      </g>
      <g transform="rotate(30 -341.555 136.55)">
        <ellipse cx="21.413" cy="21.437" fill="#179CFF" rx="21.413" ry="21.437"></ellipse>
        <path fill="#FFFFFF" stroke="#FFFFFF" stroke-width=".541" d="M27.1055441,25.6611762 C25.6216265,25.6611762 24.2984221,26.3720632 23.4519997,27.4707068 L16.3645524,23.4908165 C16.5306226,23.0115062 16.6216933,22.4944975 16.6216933,21.9613322 C16.6216933,21.4227814 16.5306226,20.9111581 16.3591953,20.4264624 L23.4412855,16.4519575 C24.2823507,17.5559867 25.6109123,18.2722592 27.1001869,18.2722592 C29.6394538,18.2722592 31.7126527,16.1934532 31.7126527,13.6353368 C31.7126527,11.0772206 29.6448109,8.99841447 27.1001869,8.99841447 C24.555563,8.99841447 22.4877212,11.0772206 22.4877212,13.6353368 C22.4877212,14.1738877 22.578792,14.6908964 22.7502193,15.1702066 L15.6734861,19.1447115 C14.8324209,18.0352969 13.5038593,17.3244098 12.0145847,17.3244098 C9.47531785,17.3244098 7.40211895,19.4032159 7.40211895,21.9613322 C7.40211895,24.5194485 9.47531785,26.5982546 12.0199418,26.5982546 C13.5092165,26.5982546 14.837778,25.881982 15.6842003,24.7725673 L22.7662906,28.7524577 C22.5948633,29.2371535 22.4984354,29.7595477 22.4984354,30.2980985 C22.4984354,32.8508293 24.5662772,34.9350209 27.1109012,34.9350209 C29.6555251,34.9350209 31.7233669,32.8562148 31.7233669,30.2980985 C31.7233669,27.7399822 29.650168,25.6611762 27.1055441,25.6611762 Z M27.1055441,10.4578871 C28.8519597,10.4578871 30.271592,11.8850468 30.271592,13.6407223 C30.271592,15.396398 28.8519597,16.8235576 27.1055441,16.8235576 C25.3591285,16.8235576 23.9394962,15.396398 23.9394962,13.6407223 C23.9394962,11.8850468 25.3644856,10.4578871 27.1055441,10.4578871 Z M12.0199418,25.1441674 C10.2735262,25.1441674 8.85389389,23.7170078 8.85389389,21.9613322 C8.85389389,20.2056566 10.2735262,18.778497 12.0199418,18.778497 C13.7663574,18.778497 15.1859897,20.2056566 15.1859897,21.9613322 C15.1859897,23.7170078 13.7610003,25.1441674 12.0199418,25.1441674 Z M27.1055441,33.4755483 C25.3591285,33.4755483 23.9394962,32.0483886 23.9394962,30.292713 C23.9394962,28.5370374 25.3591285,27.1098778 27.1055441,27.1098778 C28.8519597,27.1098778 30.271592,28.5370374 30.271592,30.292713 C30.271592,32.0483886 28.8519597,33.4755483 27.1055441,33.4755483 Z"></path>
      </g>
      <g transform="matrix(-1 0 0 1 124.19 70.4)">
        <path fill="#DB3069" d="M51.5179861,0 L11.9287479,0 C5.34051828,0 3.55271368e-15,5.32269721 3.55271368e-15,11.8883787 L3.55271368e-15,37.7661643 C3.55271368e-15,44.3319719 5.34077138,49.654543 11.9287479,49.654543 L17.6103334,49.654543 C17.8806561,49.654543 18.0997237,49.8728693 18.0997237,50.1422772 L18.0997237,62.9072404 C18.0997237,64.4164793 19.9521176,65.1482701 20.9894935,64.0486924 L34.4281758,49.808166 C34.5206879,49.710039 34.6497746,49.654543 34.7848094,49.654543 L51.5179861,49.654543 C58.1060893,49.654543 63.446734,44.3318458 63.446734,37.7661643 L63.446734,11.8883787 C63.446734,5.32269721 58.1059624,1.88051708e-15 51.5179861,0 Z"></path>
        <g fill="#F2F2F2" transform="translate(11.103 16.409)">
          <polygon points=".317 10.182 40.923 10.182 40.923 15.246 .317 15.246" transform="rotate(-180 20.62 12.714)"></polygon>
          <polygon points=".317 .052 40.923 .052 40.923 5.117 .317 5.117" transform="rotate(-180 20.62 2.584)"></polygon>
        </g>
      </g>
      <g transform="translate(184.464)">
        <path fill="#DB3069" d="M51.5179861,0 L11.9287479,0 C5.34051828,0 3.55271368e-15,5.32269721 3.55271368e-15,11.8883787 L3.55271368e-15,37.7661643 C3.55271368e-15,44.3319719 5.34077138,49.654543 11.9287479,49.654543 L17.6103334,49.654543 C17.8806561,49.654543 18.0997237,49.8728693 18.0997237,50.1422772 L18.0997237,62.9072404 C18.0997237,64.4164793 19.9521176,65.1482701 20.9894935,64.0486924 L34.4281758,49.808166 C34.5206879,49.710039 34.6497746,49.654543 34.7848094,49.654543 L51.5179861,49.654543 C58.1060893,49.654543 63.446734,44.3318458 63.446734,37.7661643 L63.446734,11.8883787 C63.446734,5.32269721 58.1059624,1.88051708e-15 51.5179861,0 Z"></path>
        <g fill="#F2F2F2" transform="translate(11.103 16.409)">
          <polygon points=".317 .052 40.923 .052 40.923 5.117 .317 5.117" transform="rotate(-180 20.62 2.584)"></polygon>
          <polygon points=".317 10.182 40.923 10.182 40.923 15.246 .317 15.246" transform="rotate(-180 20.62 12.714)"></polygon>
        </g>
      </g>
      <g transform="translate(285.45 118.567)">
        <path fill="#DB3069" d="M51.5179861,0 L11.9287479,0 C5.34051828,0 3.55271368e-15,5.32269721 3.55271368e-15,11.8883787 L3.55271368e-15,37.7661643 C3.55271368e-15,44.3319719 5.34077138,49.654543 11.9287479,49.654543 L17.6103334,49.654543 C17.8806561,49.654543 18.0997237,49.8728693 18.0997237,50.1422772 L18.0997237,62.9072404 C18.0997237,64.4164793 19.9521176,65.1482701 20.9894935,64.0486924 L34.4281758,49.808166 C34.5206879,49.710039 34.6497746,49.654543 34.7848094,49.654543 L51.5179861,49.654543 C58.1060893,49.654543 63.446734,44.3318458 63.446734,37.7661643 L63.446734,11.8883787 C63.446734,5.32269721 58.1059624,1.88051708e-15 51.5179861,0 Z"></path>
        <g fill="#F2F2F2" transform="translate(11.103 16.409)">
          <polygon points=".317 .052 40.923 .052 40.923 5.117 .317 5.117" transform="rotate(-180 20.62 2.584)"></polygon>
          <polygon points=".317 10.182 40.923 10.182 40.923 15.246 .317 15.246" transform="rotate(-180 20.62 12.714)"></polygon>
        </g>
      </g>
      <path fill="#03F9D5" d="M212.685815,73.3835796 C210.131903,70.8161366 205.991174,70.8161366 203.437155,73.3835796 L201.994517,74.8338609 C201.650559,75.1796414 201.092734,75.1796414 200.748777,74.8338609 L199.329189,73.4067532 C196.775277,70.8393102 192.634548,70.8393102 190.08053,73.4067532 C187.526618,75.9741956 187.526618,80.1368627 190.08053,82.7044126 L200.74963,93.4300388 C201.093588,93.7758193 201.651413,93.7758193 201.995371,93.4300388 L212.685708,82.681239 C215.239727,80.1136891 215.239727,75.9511295 212.685815,73.3835796 Z" transform="scale(-1 1) rotate(-30 0 834.146)"></path>
      <path fill="#03F9D5" d="M41.379632,68.0903949 C38.8257201,65.5229519 34.6849912,65.5229519 32.1309726,68.0903949 L30.6883341,69.5406762 C30.3443762,69.8864567 29.7865517,69.8864567 29.4425937,69.5406762 L28.0230067,68.1135685 C25.4690948,65.5461255 21.328366,65.5461255 18.7743473,68.1135685 C16.2204354,70.6810109 16.2204354,74.843678 18.7743473,77.4112279 L29.4434475,88.1368542 C29.7874054,88.4826347 30.3452299,88.4826347 30.6891879,88.1368542 L41.3795252,77.3880543 C43.9335439,74.8205044 43.9335439,70.6579448 41.379632,68.0903949 Z" transform="matrix(-1 0 0 1 60.154 0)"></path>
      <path fill="#03F9D5" d="M110.113594,230.591174 C107.559682,228.023731 103.418953,228.023731 100.864934,230.591174 L99.4222954,232.041455 C99.0783375,232.387235 98.5205133,232.387235 98.1765553,232.041455 L96.7569679,230.614347 C94.2030561,228.046904 90.0623271,228.046904 87.508309,230.614347 C84.9543966,233.18179 84.9543966,237.344457 87.508309,239.912007 L98.1774087,250.637633 C98.5213666,250.983413 99.0791914,250.983413 99.4231493,250.637633 L110.113487,239.888833 C112.667505,237.321283 112.667505,233.158723 110.113594,230.591174 Z" transform="rotate(-30 98.81 239.781)"></path>
      <g transform="translate(209.843 102.688)">
        <ellipse cx="21.413" cy="21.437" fill="#179CFF" rx="21.413" ry="21.437"></ellipse>
        <path fill="#FFFFFF" stroke="#FFFFFF" stroke-width=".541" d="M27.1055442,25.6611763 C25.6216266,25.6611763 24.2984221,26.3720633 23.4519998,27.4707069 L16.3645524,23.4908165 C16.5306226,23.0115063 16.6216934,22.4944975 16.6216934,21.9613323 C16.6216934,21.4227814 16.5306226,20.9111582 16.3591954,20.4264625 L23.4412856,16.4519575 C24.2823508,17.5559867 25.6109124,18.2722593 27.100187,18.2722593 C29.6394539,18.2722593 31.7126528,16.1934532 31.7126528,13.6353369 C31.7126528,11.0772206 29.644811,8.9984145 27.100187,8.9984145 C24.5555631,8.9984145 22.4877213,11.0772206 22.4877213,13.6353369 C22.4877213,14.1738877 22.578792,14.6908965 22.7502194,15.1702067 L15.6734862,19.1447116 C14.832421,18.0352969 13.5038594,17.3244099 12.0145847,17.3244099 C9.47531788,17.3244099 7.40211897,19.4032159 7.40211897,21.9613323 C7.40211897,24.5194485 9.47531788,26.5982546 12.0199418,26.5982546 C13.5092165,26.5982546 14.8377781,25.8819821 15.6842004,24.7725674 L22.7662906,28.7524578 C22.5948634,29.2371535 22.4984355,29.7595478 22.4984355,30.2980986 C22.4984355,32.8508294 24.5662773,34.935021 27.1109013,34.935021 C29.6555252,34.935021 31.723367,32.8562149 31.723367,30.2980986 C31.723367,27.7399823 29.6501681,25.6611763 27.1055442,25.6611763 Z M27.1055442,10.4578871 C28.8519598,10.4578871 30.2715921,11.8850468 30.2715921,13.6407224 C30.2715921,15.396398 28.8519598,16.8235576 27.1055442,16.8235576 C25.3591285,16.8235576 23.9394962,15.396398 23.9394962,13.6407224 C23.9394962,11.8850468 25.3644857,10.4578871 27.1055442,10.4578871 Z M12.0199418,25.1441675 C10.2735262,25.1441675 8.85389392,23.7170078 8.85389392,21.9613323 C8.85389392,20.2056566 10.2735262,18.778497 12.0199418,18.778497 C13.7663574,18.778497 15.1859897,20.2056566 15.1859897,21.9613323 C15.1859897,23.7170078 13.7610003,25.1441675 12.0199418,25.1441675 Z M27.1055442,33.4755484 C25.3591285,33.4755484 23.9394962,32.0483887 23.9394962,30.2927131 C23.9394962,28.5370375 25.3591285,27.1098779 27.1055442,27.1098779 C28.8519598,27.1098779 30.2715921,28.5370375 30.2715921,30.2927131 C30.2715921,32.0483887 28.8519598,33.4755484 27.1055442,33.4755484 Z"></path>
      </g>
      <g transform="rotate(-15 973.342 -838.174)">
        <path fill="#FFFFFF" d="M9.9207876,10.9392491 C9.01099834,9.17042485 8.52822986,7.48560533 8.52822986,5.17709662 L8.52822986,4.79532061 C8.52865902,3.52771852 8.99285511,2.33246882 9.83513134,1.42987632 C10.6767638,0.528114573 11.8004902,0.0204393265 12.9999614,0.000198779769 C14.1754718,-0.0160389704 15.2110081,0.964570279 15.3077812,2.19221995 C15.5756269,5.60636622 17.5449229,8.47162164 21.3236374,10.9394054 C21.5154937,10.9426856 21.7033678,10.9975202 21.8686185,11.0987719 C23.120739,11.8652746 24.3850117,12.4962744 25.4008636,13.0034382 C25.7551928,13.1802706 26.0898576,13.3473426 26.3942523,13.5048829 C26.7692035,13.6990249 27.0060613,14.0957732 27.0060613,14.5298858 L27.0060613,29.1979815 C27.0060613,29.6320941 26.7692035,30.0288424 26.3942523,30.2229845 C21.9220146,32.5378196 18.2044666,32.8177472 13.8693648,32.8177472 C13.1980468,32.8177472 12.5114832,32.8110368 11.8054761,32.804174 C11.0246407,32.7965487 10.2173651,32.7886182 9.37098146,32.7886182 L5.87195238,32.7886182 C3.95970863,32.7886182 2.40392994,31.1779102 2.40392994,29.1979815 C2.40392994,28.5322862 2.57973205,27.908378 2.88596798,27.3733055 C1.88955964,26.7417719 1.22332342,25.6042946 1.22332342,24.3085909 C1.22332342,23.6428956 1.39912552,23.0189874 1.70536146,22.4839148 C0.708953112,21.8523812 0.0427168939,20.714904 0.0427168939,19.4192002 C0.0427168939,18.4879893 0.386882478,17.6384463 0.950377204,16.9998211 C0.336726951,16.3302369 6.21724897e-15,15.4569027 6.21724897e-15,14.5298858 C6.21724897e-15,12.5500334 1.55570503,10.9392491 3.46802247,10.9392491 L9.9207876,10.9392491 Z"></path>
        <path fill="#179CFF" d="M35.3573695,10.9392491 L25.7616106,10.9392491 C25.1409194,10.9392491 24.6371082,11.4530112 24.6371082,12.0859618 L24.6371082,31.6565364 C24.6371082,32.2902502 25.1409194,32.8032492 25.7616106,32.8177472 L32.9584111,32.8177472 C34.3370265,32.8032492 35.5327644,31.9921262 36.1108041,30.813289 C36.3484551,30.3308883 36.4818719,29.7858411 36.4818719,29.2101956 L36.4818719,12.0859618 C36.4818719,11.4529348 35.9780607,10.9392491 35.3573695,10.9392491 Z" transform="matrix(-1 0 0 1 61.119 0)"></path>
      </g>
      <g transform="translate(330.92 102.688)">
        <path fill="#FFFFFF" d="M7.76409459,8.469096 C7.05208561,7.09968373 6.67426681,5.79530733 6.67426681,4.00807479 L6.67426681,3.71250626 C6.67460266,2.7311369 7.03788655,1.80578231 7.69705926,1.10700101 C8.35572819,0.408862891 9.23516623,0.0158239971 10.1738828,0.000153893379 C11.0938474,-0.0124172675 11.9042671,0.74676408 11.9800026,1.69720254 C12.189621,4.34041255 13.7308091,6.55867475 16.6880639,8.46921706 C16.8382123,8.47175652 16.9852443,8.51420918 17.1145709,8.59259755 C18.0944913,9.18601901 19.0839221,9.67453499 19.8789366,10.0671779 C20.1562378,10.2040804 20.4181493,10.3334265 20.6563712,10.4553931 C20.9498113,10.6056966 21.1351783,10.9128566 21.1351783,11.2489438 L21.1351783,22.6048888 C21.1351783,22.940976 20.9498113,23.2481359 20.6563712,23.3984395 C17.1563592,25.1905699 14.2469738,25.407288 10.8542854,25.407288 C10.3289061,25.407288 9.79159546,25.4020929 9.2390682,25.3967798 C8.62797966,25.3908762 7.99619876,25.3847366 7.33381153,25.3847366 L4.59544099,25.3847366 C3.09890239,25.3847366 1.88133647,24.1377368 1.88133647,22.6048888 C1.88133647,22.0895118 2.01892073,21.6064861 2.25858363,21.1922364 C1.4787858,20.7033071 0.957383538,19.8226796 0.957383538,18.8195541 C0.957383538,18.3041772 1.0949678,17.8211514 1.3346307,17.4069017 C0.55483287,16.9179725 0.0334306129,16.0373449 0.0334306129,15.0342194 C0.0334306129,14.313282 0.302777591,13.6555712 0.743773464,13.1611518 C0.263525439,12.642764 6.66133815e-16,11.9666343 6.66133815e-16,11.2489438 C6.66133815e-16,9.71615478 1.21750828,8.469096 2.71410452,8.469096 L7.76409459,8.469096 Z"></path>
        <path fill="#179CFF" d="M27.6709847,8.469096 L20.1612604,8.469096 C19.6755021,8.469096 19.281215,8.86684731 19.281215,9.3568736 L19.281215,24.5082862 C19.281215,24.9989032 19.6755021,25.3960638 20.1612604,25.407288 L25.793539,25.407288 C26.8724554,25.3960638 27.8082502,24.7680976 28.2606291,23.8554494 C28.4466169,23.4819779 28.5510301,23.0600059 28.5510301,22.6143448 L28.5510301,9.3568736 C28.5510301,8.86678824 28.156743,8.469096 27.6709847,8.469096 Z" transform="matrix(-1 0 0 1 47.832 0)"></path>
      </g>
      <g transform="rotate(15 31.313 241.297)">
        <path fill="#FFFFFF" d="M11.0710239,12.1743256 C10.0557518,10.2057954 9.51701015,8.33075431 9.51701015,5.76160755 L9.51701015,5.33672777 C9.51748907,3.92600931 10.035505,2.59581208 10.9754364,1.59131396 C11.9146495,0.587740412 13.168663,0.0227469963 14.5072033,0.00022122285 C15.8190047,-0.0178498273 16.9746032,1.07347337 17.0825963,2.43972865 C17.3814967,6.23934307 19.5791168,9.42809504 23.7959431,12.1744996 C24.0100437,12.17815 24.2197003,12.2391757 24.4041104,12.351859 C25.8014043,13.2049024 27.2122594,13.9071442 28.3458912,14.4715683 C28.7413021,14.6683657 29.1147686,14.8543006 29.4544554,15.0296277 C29.8728792,15.245689 30.1371988,15.6872314 30.1371988,16.1703567 L30.1371988,32.4945278 C30.1371988,32.9776531 29.8728792,33.4191956 29.4544554,33.6352569 C24.4636975,36.2114444 20.3151293,36.5229767 15.4774071,36.5229767 C14.7282551,36.5229767 13.9620899,36.5155088 13.1742269,36.5078711 C12.3028599,36.4993848 11.4019871,36.490559 10.4574721,36.490559 L6.55275847,36.490559 C4.41880528,36.490559 2.68264646,34.6979969 2.68264646,32.4945278 C2.68264646,31.7536734 2.87883142,31.059324 3.22057296,30.46384 C2.10863902,29.7610042 1.36515802,28.4951021 1.36515802,27.0531092 C1.36515802,26.3122548 1.56134298,25.6179053 1.90308452,25.0224213 C0.791150577,24.3195855 0.0476695777,23.0536835 0.0476695777,21.6116906 C0.0476695777,20.575343 0.431738415,19.6298838 1.06056587,18.9191557 C0.375767757,18.1739733 -1.77635685e-15,17.2020368 -1.77635685e-15,16.1703567 C-1.77635685e-15,13.9669726 1.73607663,12.1743256 3.87011203,12.1743256 L11.0710239,12.1743256 Z"></path>
        <path fill="#179CFF" d="M39.456775,12.1743256 L28.7484644,12.1743256 C28.055809,12.1743256 27.4935849,12.7460931 27.4935849,13.4505059 L27.4935849,35.2306616 C27.4935849,35.9359236 28.055809,36.5068418 28.7484644,36.5229767 L36.7796765,36.5229767 C38.3181314,36.5068418 39.6525055,35.6041404 40.2975643,34.2922087 C40.5627691,33.7553434 40.7116545,33.1487586 40.7116545,32.5081208 L40.7116545,13.4505059 C40.7116545,12.7460082 40.1494304,12.1743256 39.456775,12.1743256 Z" transform="matrix(-1 0 0 1 68.205 0)"></path>
      </g>
      <g transform="translate(38.008 173.678)">
        <path fill="#FFE276" d="M36.44628,19.7698456 C36.44628,9.69431438 28.2873318,1.52617337 18.22314,1.52617337 C8.15894825,1.52617337 7.10542736e-15,9.69431438 7.10542736e-15,19.7698456 C7.10542736e-15,29.8453767 8.15894825,38.0135177 18.22314,38.0135177 C28.2873318,38.0135177 36.44628,29.8453767 36.44628,19.7698456" transform="matrix(1 0 0 -1 0 39.54)"></path>
        <path fill="#40137C" d="M18.22314,31.1103627 C15.220415,31.1103627 13.2269921,31.4610724 10.7627751,31.9404142 C10.1989077,32.0488251 9.10445158,31.9404142 9.10445158,30.2812912 C9.10445158,26.9609072 12.9141378,22.8115408 18.22314,22.8115408 C23.5321422,22.8115408 27.3418284,26.9609963 27.3418284,30.2812912 C27.3418284,31.9404142 26.2463935,32.0498941 25.6835049,31.9404142 C23.2203556,31.4609833 21.2269328,31.1103627 18.22314,31.1103627" transform="matrix(1 0 0 -1 0 54.782)"></path>
        <g fill="#DB3069" transform="matrix(1 0 0 -1 0 17.91)">
          <path d="M16.8564045 13.0575903C15.9867123 15.521466 13.2887443 16.8147357 10.8265739 15.9462014 9.33224084 15.4180436 8.27435554 14.2119837 7.86228835 12.7990789 6.65651796 13.6403545 5.07720883 13.9140096 3.58590108 13.3879897 1.1247984 12.5183865-.168083553 9.81524082.700540923 7.3513652.82404541 7.0017245.988035871 6.67943151 1.17836447 6.38038853 3.15354641 2.74991556 8.86046795.19785031 12.3167249.166404916 14.9854183 2.36277201 17.8302036 7.93412936 17.092202 12.0014527 17.0538515 12.3541222 16.9778625 12.7089295 16.8564045 13.0575903M19.5898755 13.0575903C20.4595678 15.521466 23.1586034 16.8147357 25.6197061 15.9462014 27.115018 15.4181327 28.1719244 14.2120727 28.5850594 12.799168 29.7908298 13.6404436 31.370139 13.9140987 32.8614467 13.3879897 35.3215706 12.5183865 36.6143635 9.81524082 35.7468068 7.3513652 35.6223236 7.0017245 35.4593119 6.67943151 35.2679155 6.38038853 33.2927336 2.74991556 27.585812.19785031 24.1295551.166404916 21.4608616 2.36277201 18.6170553 7.93412936 19.3550568 12.0014527 19.3934962 12.3541222 19.4693964 12.7089295 19.5898755 13.0575903"></path>
        </g>
      </g>
    </g>
  </g>
</svg>