<svg height="10" viewBox="0 0 11 10" width="11" xmlns="http://www.w3.org/2000/svg"><path d="m246.947115 12.1979167c.035257.0694448.052885.1215276.052885.15625s-.017628.0868052-.052885.15625l-6.584134 8.3333333c-.10577.1041672-.185096.15625-.237981.15625-.088141 0-.176282-.0434023-.264423-.1302083l-3.728365-3.5416667-.079327-.078125c-.035257-.0694448-.052885-.1215276-.052885-.15625 0-.0173612.017628-.0607635.052885-.1302083l.052884-.0520834c.493592-.5208359.881409-.9201375 1.163462-1.1979166.10577-.1041672.176282-.15625.211538-.15625.070513 0 .158654.0520828.264423.15625l2.115385 2.03125 5.288461-6.6927084c.035257-.0347224.088141-.0520833.158654-.0520833.052885 0 .114583.0173609.185096.0520833z" fill="#179cff" fill-rule="evenodd" transform="translate(-236 -11)"/></svg>