<svg xmlns="http://www.w3.org/2000/svg" width="47" height="160" viewBox="0 0 47 160">
                <g fill="none" fill-rule="evenodd">
                    <rect width="11.582" height="29.636" x="9.736" y="15.484" fill="#03E0C0" fill-rule="nonzero"></rect>
                    <rect width="11.582" height="29.636" x="25.682" y="15.484" fill="#03CAAD" fill-rule="nonzero"></rect>
                    <path fill="#FFFFFF" fill-rule="nonzero" d="M10.579623,11.3215401 C10.5686994,12.475205 10.5514834,14.3401623 10.579623,15.9833507 C9.46753046,16.1703725 8.70687235,17.2513965 8.73385414,18.4807492 C8.73128684,18.6888658 8.74299908,18.8726743 8.73385414,18.9802289 L9.06944847,20.9781478 C9.26375758,22.325744 10.3194534,23.3385224 11.4186088,23.3090531 C12.5058169,27.7374402 14.6775653,32.1913007 19.1372783,33.9646202 L19.1372783,38.792924 C16.8178181,38.9074714 15.239518,39.2619355 12.7609861,40.1248699 C8.53571924,41.2115713 1.74156171,52.8169823 2.02196756,84.578564 C1.22457362,86.0362123 0.12578006,91.840999 0.00840158853,94.0686785 C-0.0814264496,95.9713632 0.531589784,98.9191259 2.69315622,96.566077 C4.03640607,94.977565 5.44687548,93.3231217 6.38469384,91.4047867 C7.09296566,89.7396878 6.88739736,88.3130073 6.72028817,86.7429761 C6.55893441,86.0342144 6.44635929,85.2528616 6.38469384,84.4120708 C6.7808126,80.9556712 8.76585306,64.1268678 11.4186088,55.2757544 C11.586708,56.184308 14.4145936,65.1304891 14.6067549,66.0978148 C15.4980599,72.3531322 11.9325379,76.1227055 10.7474201,80.7492196 C10.15518,83.8936108 7.44018834,102.020395 16.4525237,154.172737 L20.1440613,154.172737 L22.1576273,94.0686785 C22.610344,94.1902185 23.0640676,94.2255151 23.5000046,94.2351717 C23.9359416,94.2255151 24.389833,94.1902185 24.8423819,94.0686785 L26.8559479,154.172737 L30.5474855,154.172737 C39.5598712,102.020395 36.8449131,83.8936108 36.2525891,80.7492196 C35.0674377,76.1227055 31.5019158,72.3531322 32.3932543,66.0978148 C32.5853821,65.1304891 35.4132677,56.184308 35.5814005,55.2757544 C38.2341058,64.1268678 40.2191463,80.9556712 40.6153154,84.4120708 C40.5537338,85.2528616 40.4411419,86.0342144 40.2797211,86.7429761 C40.1125951,88.3130073 39.9070436,89.7396878 40.6153154,91.4047867 C41.5531337,93.3231217 42.9636367,94.977565 44.306853,96.566077 C46.4684161,98.9191259 47.0813791,95.9713632 46.9916077,94.0686785 C46.8743174,91.840999 45.7754138,86.0362123 44.9780417,84.578564 C45.2584307,52.8169823 38.4643235,41.2115713 34.2390231,40.1248699 C31.7604912,39.2619355 30.1821911,38.9074714 27.8627309,38.792924 L27.8627309,33.9646202 C32.3224439,32.1913007 34.4942426,27.7374402 35.5814005,23.3090531 C36.3195402,23.3291988 37.0653986,22.8578564 37.5949664,22.1436004 C37.8364266,21.7281998 38.0609392,21.2412071 38.0983579,20.6451613 L38.4339523,18.9802289 C38.638497,17.4885328 37.8364266,16.1877211 36.5881835,15.9833507 C36.5547918,15.9936733 36.4807933,15.9868803 36.4203863,15.9833507 C36.4484084,14.3283413 36.4312931,12.4721915 36.4203863,11.4880333 C36.4203863,5.89640791 30.5894348,1.49843913 23.5000046,1.49843913 C16.4105744,1.49843913 10.5796733,5.89640791 10.579623,11.3215401 Z"></path>
                    <path fill="#F2F2F2" fill-rule="nonzero" d="M23.5,94.2351717 C23.935937,94.2255151 24.3898284,94.1902185 24.8423773,94.0686785 L26.8559433,154.172737 L30.5474809,154.172737 C39.5598666,102.020395 36.8449085,83.8936108 36.2525845,80.7492196 C35.0674331,76.1227055 31.5019112,72.3531322 32.3932497,66.0978148 C32.5853775,65.1304891 35.4132631,56.184308 35.5813958,55.2757544 C38.2341012,64.1268678 40.2191417,80.9556712 40.6153108,84.4120708 C40.5537292,85.2528616 40.4411373,86.0342144 40.2797165,86.7429761 C40.1125905,88.3130073 39.9070389,89.7396878 40.6153108,91.4047867 C41.5531291,93.3231217 42.9636321,94.977565 44.3068484,96.566077 C46.4684115,98.9191259 47.0813745,95.9713632 46.991603,94.0686785 C46.8743128,91.840999 45.7754092,86.0362123 44.9780371,84.578564 C45.2584261,52.8169823 38.4643189,41.2115713 34.2390185,40.1248699 C31.7604866,39.2619355 30.1821865,38.9074714 27.8627263,38.792924 L27.8627263,33.9646202 C32.3224393,32.1913007 34.494238,27.7374402 35.5813958,23.3090531 C36.3195356,23.3291988 37.065394,22.8578564 37.5949618,22.1436004 C37.8364219,21.7281998 38.0609345,21.2412071 38.0983533,20.6451613 L38.4339476,18.9802289 C38.6384924,17.4885328 37.8364219,16.1877211 36.5881788,15.9833507 C36.5547872,15.9936733 36.4807886,15.9868803 36.4203817,15.9833507 C36.4484038,14.3283413 36.4312885,12.4721915 36.4203817,11.4880333 C36.4203817,5.89640791 30.5894302,1.49843913 23.5,1.49843913 L23.5,94.2351717 Z"></path>
                    <path fill="#03E0C0" fill-rule="nonzero" d="M29.8799703,68.4287201 C30.0634929,68.4287201 30.2122574,68.4352456 30.2122574,68.4432925 L30.2122574,68.4987682 C31.6225786,68.6533986 31.7776571,68.7775162 31.8908669,68.8681424 C31.9234978,68.8942715 31.5492354,69.0200682 31.183361,69.1024345 C30.8174867,69.1848009 28.8858001,69.426299 28.7137093,69.427676 L24.597623,69.425564 C24.4217106,69.4269706 24.100537,69.0078421 24.0618275,69.0002073 C23.870213,68.9192574 23.6829372,68.8787824 23.5,68.8787824 C23.3170628,68.8787824 23.129787,68.9192586 22.9381725,69.0002109 C22.899463,69.0078456 22.5782894,69.4269741 22.402377,69.4255675 L18.2862907,69.4276795 C18.1141999,69.4263025 16.1825133,69.1848044 15.816639,69.102438 C15.4507646,69.0200717 15.0765022,68.8942751 15.1091331,68.8681459 C15.2223429,68.7775197 15.3774214,68.6534021 16.7877426,68.4987718 L16.7877426,68.4432961 C16.7877426,68.4352492 16.9365071,68.4287236 17.1200297,68.4287236 L23.5,68.4287236 L29.8799703,68.4287201 Z"></path>
                    <path fill="#03CAAD" fill-rule="nonzero" d="M29.9031702,68.4287201 C30.0873601,68.4287201 30.2366656,68.4352457 30.2366656,68.4432926 L30.2366656,68.4987685 C31.6521152,68.6533994 31.8077577,68.7775174 31.9213791,68.868144 C31.9541287,68.8942732 31.5785053,69.0200703 31.2113005,69.1024369 C30.8440958,69.1848035 28.9053848,69.4263025 28.7326682,69.4276795 L24.6016144,69.4255675 C24.4250623,69.4269741 24.1027208,69.0078441 24.0638705,69.0002093 C23.8715592,68.9192591 23.6836024,68.878784 23.5,68.878784 L23.5,68.4287201 L29.9031702,68.4287201 Z"></path>
                    <rect width="6.043" height="1" x="16.282" y="69.095" fill="#03F9D5" fill-rule="nonzero"></rect>
                    <rect width="6.043" height="1" x="24.675" y="69.095" fill="#03E0C0" fill-rule="nonzero"></rect>
                    <path fill="#03F9D5" fill-rule="nonzero" d="M23.5,60.1040583 L20.4785714,44.9531738 C19.7313579,40.8508275 19.2277865,38.7974109 18.9678571,38.792924 C18.5209828,38.7996265 14.80297,38.6675971 14.4357143,39.6253902 C14.1665575,40.4823024 12.1713169,52.6736166 11.4142857,55.4422477 C10.6358805,58.045429 14.028056,63.1058482 13.9321429,67.2632674 C13.8142878,71.4870117 11.0089085,75.1700231 10.4071429,77.5858481 C9.67122049,80.1490476 9.51064464,82.2218354 9.56785714,89.2403746 C9.62789629,93.842637 9.68384868,98.8374341 9.73571429,104.224766 C9.7522866,104.595942 9.97086723,104.956325 10.2392857,105.057232 C10.4918057,105.232863 13.4306365,105.354714 23.3321429,105.390219 L23.5,105.390219 C33.4015687,105.354714 36.3402991,105.23303 36.5928571,105.057232 C36.8612711,104.956325 37.079835,104.595942 37.0964286,104.224766 C37.1482911,98.8373229 37.2042435,93.8425259 37.2642857,89.2403746 C37.3214937,82.2220021 37.1610015,80.1490476 36.425,77.5858481 C35.8231763,75.1700231 33.0179941,71.4870117 32.9,67.2632674 C32.8041161,63.1058482 36.1962076,58.0454957 35.4178571,55.4422477 C34.6609051,52.6736499 32.6655473,40.4823424 32.3964286,39.6253902 C32.0292687,38.6676371 28.4553648,38.7996404 27.8642857,38.792924 C27.4927954,38.7974205 27.0451764,40.8508371 26.5214286,44.9531738 L23.5,60.1040583 Z"></path>
                    <path fill="#03E0C0" fill-rule="nonzero" d="M23.489428,60.1068479 L23.489428,105.393008 C33.3909967,105.357503 36.3297271,105.23582 36.5822851,105.060022 C36.850699,104.959115 37.0692629,104.598731 37.0858565,104.227556 C37.1377191,98.8401126 37.1936715,93.8453155 37.2537137,89.2431643 C37.3109216,82.2247918 37.1504295,80.1518373 36.414428,77.5886377 C35.8126043,75.1728127 33.0074221,71.4898014 32.889428,67.2660571 C32.7935441,63.1086379 36.1856356,58.0482853 35.4072851,55.4450373 C34.650333,52.6764396 32.6549753,40.485132 32.3858565,39.6281799 C32.0186966,38.6704268 28.4447928,38.8024301 27.8537137,38.7957137 C27.4822234,38.8002102 27.0346043,40.8536268 26.5108565,44.9559635 L23.489428,60.1068479 Z"></path>
                    <path fill="#DB3069" d="M20.1428571,154.172737 L15.9189047,154.172737 C15.9189047,154.172737 7.55357143,154.172737 7.55357143,160 L20.1428571,160 L20.1428571,154.172737 Z"></path>
                    <path fill="#03F9D5" fill-rule="nonzero" d="M31.5571429,13.8189386 L28.8714286,13.8189386 C29.6140756,13.4953877 29.1727725,10.7846238 29.2071429,10.8220604 C28.9548806,12.3024724 27.5201056,13.7123243 27.5285714,13.6524454 L22.9964286,13.6524454 C24.6517555,11.9742379 23.9896809,9.15712799 24.0035714,9.15712799 C23.3028666,10.6036675 20.4284286,13.2544295 19.8071429,13.8189386 L12.5892857,13.8189386 C12.1934246,13.8189386 10.5746554,13.8189386 10.575,15.9833507 L9.73571429,16.3163371 L9.73571429,13.8189386 C10.4935502,4.60631287 15.0816454,0 23.5,0 C31.9183546,0 36.5064498,4.60631287 37.2642857,13.8189386 L37.2642857,16.3163371 L36.425,15.9833507 C36.4140424,14.5404093 35.7988189,13.8189386 34.5785714,13.8189386 L31.3892857,13.8189386 L31.5571429,13.8189386 Z"></path>
                    <path fill="#03E0C0" fill-rule="nonzero" d="M23.5,13.6524454 L23.5,13.0016186 C24.5017116,11.334943 23.9913583,9.15712799 24.0035714,9.15712799 C23.8881228,9.39546095 23.7136657,9.66648385 23.5,9.95547969 L23.5,0 C31.9183546,0 36.5064498,4.60631287 37.2642857,13.8189386 L37.2642857,16.3163371 L36.425,15.9833507 C36.4140424,14.5404093 35.7988189,13.8189386 34.5785714,13.8189386 L31.3892857,13.8189386 L31.5571429,13.8189386 L28.8714286,13.8189386 C29.6140756,13.4953877 29.1727725,10.7846238 29.2071429,10.8220604 C28.9548806,12.3024724 27.5201056,13.7123243 27.5285714,13.6524454 L23.5,13.6524454 Z"></path>
                    <path fill="#C52B5F" d="M39.4464286,154.172737 L35.2224762,154.172737 C35.2224762,154.172737 26.8571429,154.172737 26.8571429,160 L39.4464286,160 L39.4464286,154.172737 Z" transform="matrix(-1 0 0 1 66.304 0)"></path>
                </g>
            </svg>