<svg xmlns="http://www.w3.org/2000/svg" width="328" height="70" viewBox="0 0 328 70">
  <g fill="none" fill-rule="evenodd">
    <path fill="#179CFF" d="M29.002006,61.6875614 C17.405566,61.6875614 7.971876,52.2690819 7.971876,40.691655 C7.971876,29.113 17.405566,19.6937018 29.002006,19.6937018 C31.794926,19.6937018 34.507486,20.2307778 37.065066,21.2897836 L37.190526,21.3450468 C44.989956,24.6370936 50.031726,32.2310702 50.031726,40.691655 C50.031726,52.2690819 40.598036,61.6875614 29.002006,61.6875614 M40.434036,14.0728246 L40.290126,14.0085556 C36.714926,12.4992573 32.916686,11.7333509 29.002006,11.7333509 C13.009956,11.7333509 -0.00016399998,24.7242865 -0.00016399998,40.691655 C-0.00016399998,56.6582047 13.009956,69.6475029 29.002006,69.6475029 C44.993646,69.6475029 58.004586,56.6582047 58.004586,40.691655 C58.004586,29.0933509 51.107566,18.6445205 40.434036,14.0728246"/>
    <path fill="#03F9D5" d="M56.836988 16.5125906C55.281858 14.9599006 52.754208 14.9611287 51.200308 16.5125906L28.864328 38.8114795 23.750398 33.7018889C22.997638 32.9499006 21.995598 32.5360409 20.931238 32.5360409 19.866468 32.5360409 18.865248 32.9499006 18.112488 33.7018889 17.359318 34.4522398 16.944808 35.4510702 16.943988 36.5145789 16.943988 37.5776784 17.358908 38.5773275 18.111258 39.3289064L26.044348 47.2528246C26.797928 48.0052222 27.799148 48.4194912 28.864328 48.4194912 29.929098 48.4194912 30.929498 48.0052222 31.682258 47.2528246L56.836988 22.1400175C58.390888 20.5881462 58.390888 18.064462 56.836988 16.5125906M33.280397.0000409356725L24.724517.0000409356725C22.526507.0000409356725 20.738497 1.78524561 20.738497 3.97939766 20.738497 6.17436842 22.526507 7.9595731 24.724517 7.9595731L33.280397 7.9595731C35.477997 7.9595731 37.266007 6.17436842 37.266007 3.97939766 37.266007 1.78524561 35.477997.0000409356725 33.280397.0000409356725"/>
    <path fill="#FFFFFF" d="M96.454837 35.2880643C91.253577 34.1942632 89.584057 33.0386491 89.584057 30.5317485 89.584057 27.5442632 91.747217 25.8311053 95.519217 25.8311053 97.617187 25.8311053 99.556487 26.3939708 101.456837 27.5569532 102.221897 27.9749064 102.822137 28.1705789 103.346937 28.1705789 104.707317 28.1705789 105.773317 26.9813977 105.773317 25.4626842 105.773317 24.5809298 105.494107 23.8281228 104.931177 23.2124503 102.910287 21.2925673 99.743857 20.3187076 95.519217 20.3187076 92.264227 20.3187076 89.548797 21.2565439 87.448367 23.1080643 85.351627 24.9559006 84.288497 27.4701696 84.288497 30.5812807 84.288497 36.1890585 87.413107 39.1323333 95.069857 40.7402865 97.985367 41.3997602 99.826267 42.0244386 100.862337 42.7068363 101.918907 43.4002865 102.432637 44.3459006 102.432637 45.5940292 102.432637 48.7206959 100.047667 50.5881813 96.053037 50.5881813 93.110467 50.5881813 90.450387 49.6704035 88.153977 47.8655497 87.534467 47.3428012 86.900607 47.0779474 86.269207 47.0779474 84.734167 47.0779474 83.576327 48.3469532 83.576327 50.0294094 83.576327 51.0241462 84.031017 51.8702865 84.921127 52.537538 87.866567 54.9335029 91.536887 56.1492924 95.830407 56.1492924 99.428157 56.1492924 102.339157 55.1606959 104.482637 53.2109298 106.636777 51.2513392 107.729017 48.6891754 107.729017 45.5940292 107.729017 39.8167778 104.567917 36.9271287 96.454837 35.2880643M151.307138 29.6835614C150.124288 29.3667193 144.824628 28.6392924 141.370378 31.2816901 139.440098 32.7578304 138.461838 35.0199357 138.461838 38.0057836L138.554088 52.9366608C138.554088 54.4840292 139.840668 55.7911053 141.362998 55.7911053 142.993158 55.7911053 144.269488 54.5372456 144.269488 52.9342047L144.177648 38.8310468C144.177648 37.4625673 144.537218 36.4436784 145.246928 35.8026257 146.522438 34.6502865 148.440828 34.8782982 149.864758 35.0207544 150.235808 35.0575965 150.555608 35.0895263 150.797918 35.0895263 152.559688 35.0895263 153.510068 33.6944386 153.510068 32.3816316 153.510068 31.0438538 152.750338 30.1113392 151.307138 29.6835614M249.139575 55.8002749C247.956315 56.1167076 242.657065 56.8445439 239.202815 54.2021462 237.272535 52.7255965 236.294275 50.4639006 236.294275 47.478462L236.386525 24.6519123C236.386525 23.1049532 237.672695 21.7974678 239.195435 21.7974678 240.825595 21.7974678 242.101925 23.0509181 242.101925 24.6539591L242.009675 46.6523801C242.009675 48.0208596 242.369245 49.0401579 243.079365 49.6812105 244.354875 50.8331404 246.273265 50.605538 247.697195 50.4630819 248.068245 50.4258304 248.388045 50.3943099 248.630355 50.3943099 250.392125 50.3943099 251.342095 51.7893977 251.342095 53.1017953 251.342095 54.4399825 250.582775 55.3724971 249.139575 55.8002749M177.610606 29.855655C176.278926 29.855655 175.296156 30.6072339 174.767256 32.0354795L168.739026 49.4875848 162.624286 31.9896316C162.191736 30.6927895 161.113436 29.855655 159.877696 29.855655 158.861716 29.855655 157.966276 30.3067661 157.420566 31.0923216 156.856406 31.9053041 156.751856 32.9561228 157.133976 33.9729649L163.835426 51.9609181C164.794826 54.531269 166.469266 55.8907427 168.677526 55.8907427 170.990746 55.8907427 172.653296 54.5513275 173.619256 51.9134327L180.352686 33.9750117C180.736856 32.977 180.633126 31.932731 180.067326 31.111152 179.518336 30.3129064 178.623716 29.855655 177.610606 29.855655M228.838179 29.855655C227.448279 29.855655 226.475349 30.6043684 225.949729 32.0751871L220.241299 46.9839591 213.860469 31.9896316C213.386099 30.5736667 212.413169 29.855655 210.966279 29.855655 209.994169 29.855655 209.174579 30.3010351 208.594839 31.1430819 208.019609 31.9793977 207.943349 32.9614444 208.373849 33.9836082L217.013369 53.5754211C215.822729 56.572731 214.148289 58.7566491 212.030639 60.0719123 211.227039 60.6065322 210.835489 61.3658889 210.835489 62.3933743 210.835489 63.9362398 212.001119 65.1000409 213.547229 65.1000409 214.331969 65.1000409 215.122449 64.8392807 215.889149 64.3271754 218.317579 62.7851287 220.964949 59.1385789 222.632829 55.0400994L231.528189 33.986883C231.933269 33.0502749 231.848399 31.9961813 231.302689 31.1660058 230.761899 30.345655 229.841039 29.855655 228.838179 29.855655M258.415825 19.9679298C256.482675 19.9679298 255.024715 21.4010877 255.024715 23.3021404 255.024715 25.2285731 256.513835 26.7378713 258.415825 26.7378713 260.256725 26.7378713 261.754045 25.1958246 261.754045 23.3021404 261.754045 21.4326082 260.286655 19.9679298 258.415825 19.9679298M258.389421 29.8496784C256.787141 29.8496784 255.531311 31.1244152 255.531311 32.7516082L255.531311 52.8878655C255.531311 54.4344152 256.867091 55.7910234 258.389421 55.7910234 259.991701 55.7910234 261.247531 54.5154678 261.247531 52.8878655L261.247531 32.7516082C261.247531 31.1780409 259.938811 29.8496784 258.389421 29.8496784M322.432282 40.4385906C322.392102 40.7607544 322.253522 40.7873626 322.115352 40.7873626L311.053552 40.7873626C311.031412 38.8261345 311.559082 37.2345556 312.586952 36.1722749 313.595142 35.1300526 315.043262 34.6007544 316.891952 34.6007544 318.655362 34.6007544 320.111682 35.160345 321.103882 36.2197602 322.087472 37.2685322 322.545442 38.7332105 322.432282 40.4385906M324.943122 32.5797602C322.852122 30.4928596 320.218692 29.4792924 316.891952 29.4792924 313.744382 29.4792924 311.088402 30.4367778 308.996172 32.3271871 306.919932 34.2028596 305.740772 36.7719825 305.491492 39.9678304 305.341842 42.1812222 305.310682 43.8129181 305.459922 45.630462 305.657542 48.7878304 306.833422 51.1780643 308.896952 53.1884152 311.007222 55.1439123 313.778412 56.1366023 317.135492 56.1366023 320.560222 56.1366023 323.269092 55.5491754 325.186662 54.3898772 326.147292 53.8036784 326.633552 52.9874211 326.633552 51.966076 326.633552 51.1309883 326.232572 50.3589415 325.562222 49.9016901 324.792242 49.3756667 323.791432 49.3093509 322.757002 49.7137953 320.569652 50.4899357 318.763192 50.8669532 317.233482 50.8669532 313.787022 50.8669532 311.578352 49.1509298 311.140472 46.2166608 311.045352 45.5801111 311.060112 45.713152 311.060112 45.4220994L324.604872 45.4220994C326.762702 45.4220994 328.000082 44.1866608 328.000082 42.0326257L328.000082 40.6682398C328.000082 37.3274795 326.971802 34.606076 324.943122 32.5797602M199.554831 40.4385906C199.514651 40.7607544 199.376071 40.7873626 199.237901 40.7873626L188.176101 40.7873626C188.153961 38.8261345 188.681631 37.2345556 189.709911 36.1722749 190.717691 35.1300526 192.166221 34.6007544 194.014501 34.6007544 195.777911 34.6007544 197.234641 35.160345 198.226431 36.2197602 199.210021 37.2685322 199.667991 38.7332105 199.554831 40.4385906M202.066081 32.5797602C199.974671 30.4928596 197.341241 29.4792924 194.014501 29.4792924 190.867341 29.4792924 188.211361 30.4367778 186.118721 32.3271871 184.042891 34.2028596 182.863321 36.7719825 182.614041 39.9678304 182.464391 42.1812222 182.433231 43.8129181 182.582471 45.630462 182.780501 48.7878304 183.955971 51.1780643 186.019501 53.1884152 188.129771 55.1439123 190.900961 56.1366023 194.258041 56.1366023 197.683181 56.1366023 200.391641 55.5491754 202.309211 54.3898772 203.269841 53.8036784 203.756101 52.9874211 203.756101 51.966076 203.756101 51.1309883 203.355531 50.3589415 202.684771 49.9016901 201.914791 49.3756667 200.913981 49.3093509 199.879551 49.7137953 197.692201 50.4899357 195.885741 50.8669532 194.356441 50.8669532 190.909571 50.8669532 188.701311 49.1509298 188.263021 46.2166608 188.167901 45.5801111 188.182661 45.713152 188.182661 45.4220994L201.727421 45.4220994C203.885251 45.4220994 205.122631 44.1866608 205.122631 42.0326257L205.122631 40.6682398C205.122631 37.3274795 204.094351 34.606076 202.066081 32.5797602M131.50504 29.855655C129.84823 29.855655 128.59855 31.1451287 128.59855 32.8558304L128.59855 45.3985205C128.59855 48.645538 126.58504 50.5846608 123.21361 50.5875263 119.84177 50.5846608 117.82826 48.645538 117.82826 45.3985205L117.82826 32.8558304C117.82826 31.1451287 116.57858 29.855655 114.92177 29.855655 113.26742 29.855655 112.11245 31.0890468 112.11245 32.8558304L112.11245 45.4472339C112.11245 49.8109766 113.88406 53.0203333 117.04803 54.718345 120.50146 56.572731 126.13527 56.5907427 129.62765 54.5803918 132.635 52.8492222 134.31436 49.6951287 134.31436 45.4472339L134.31436 32.8558304C134.31436 31.0890468 133.15939 29.855655 131.50504 29.855655M297.695342 31.3405965C292.838072 28.5450994 287.834432 30.4015322 286.202632 31.3405965 285.524082 31.7311228 284.924252 32.2035205 284.385102 32.7348655 283.842672 32.1981988 283.237102 31.7217076 282.553222 31.3283158 277.696772 28.5328187 272.693132 30.3888421 271.060922 31.3283158 268.053162 33.059076 266.373802 36.2135789 266.373802 40.4614737L266.373802 52.7655088C266.373802 54.5327018 267.529182 55.7656842 269.183532 55.7656842 270.840342 55.7656842 272.090022 54.4766199 272.090022 52.7655088L272.090022 40.5101871C272.090022 33.7517076 281.413832 33.7222339 281.519612 40.3980234 281.519612 40.4242222 281.515922 40.4479649 281.515922 40.4737544L281.524532 40.5343392 281.524532 52.7655088C281.524532 54.2027602 282.411362 55.3317661 283.675392 55.6596608 283.839802 55.7349825 284.048902 55.7787836 284.325242 55.7787836 284.542542 55.7787836 284.751642 55.7538129 284.953362 55.7116491 284.988212 55.703462 285.016912 55.6907719 285.050122 55.6813567 286.330552 55.3645146 287.231732 54.2273216 287.231732 52.7786082L287.231732 40.5658596 287.240342 40.4614737C287.240342 40.4389591 287.237062 40.4189006 287.237062 40.3967953 287.355552 33.729193 296.666242 33.7750409 296.666242 40.5224678L296.666242 52.7786082C296.666242 54.4889006 297.915922 55.7787836 299.572732 55.7787836 301.226672 55.7787836 302.382052 54.5449825 302.382052 52.7786082L302.382052 40.4737544C302.382052 36.2258596 300.702692 33.0717661 297.695342 31.3405965"/>
    <path fill="#FFFFFF" d="M248.435318,29.8496784 L237.933168,29.8496784 L237.933168,35.1610819 L248.435318,35.1610819 C249.904348,35.1610819 251.144188,33.9452924 251.144188,32.5059942 C251.144188,31.016345 249.954368,29.8496784 248.435318,29.8496784"/>
  </g>
</svg>
