<svg xmlns="http://www.w3.org/2000/svg" width="47" height="160" viewBox="0 0 47 160">
                <g fill="none" fill-rule="evenodd">
                    <path fill="#179CFF" d="M20.4785714,154.172737 L16.7614933,154.172737 C16.7614933,154.172737 9.4,154.172737 9.4,160 L20.4785714,160 L20.4785714,154.172737 Z"></path>
                    <path fill="#158CE5" d="M37.4321429,154.172737 L33.7150647,154.172737 C33.7150647,154.172737 26.3535714,154.172737 26.3535714,160 L37.4321429,160 L37.4321429,154.172737 Z" transform="matrix(-1 0 0 1 63.786 0)"></path>
                    <rect width="10.239" height="1" x="11.414" y="19.147" fill="#03F9D5" fill-rule="nonzero"></rect>
                    <rect width="10.239" height="1" x="25.346" y="19.147" fill="#03E0C0" fill-rule="nonzero"></rect>
                    <path fill="#FFFFFF" fill-rule="nonzero" d="M12.0797863,11.3215401 C12.0701937,12.475205 12.0550885,14.3401623 12.0797863,15.9833507 C11.1040332,16.1703725 10.4366352,17.2513965 10.460316,18.4807492 C10.4580563,18.6888658 10.4683326,18.8726743 10.460316,18.9802289 L10.7547652,20.9781478 C10.9252438,22.325744 11.8515065,23.3385224 12.8159092,23.3090531 C13.7698119,27.7374402 15.6752941,32.1913007 19.5882394,33.9646202 L19.5882394,38.792924 C17.5531422,38.9074714 14.990553,39.2619355 12.8159092,40.1248699 C9.10867047,41.2115713 1.52803834,43.4933611 1.77406636,84.578564 C1.07443533,86.0362123 0.110358853,91.840999 0.00737151524,94.0686785 C-0.0714431974,95.9713632 0.466414462,98.9191259 2.36296465,96.566077 C3.54152436,94.977565 5.28225636,93.3231217 6.10509775,91.4047867 C6.72652841,89.7396878 6.54616371,88.3130073 6.39954689,86.7429761 C6.25797181,86.0342144 6.15919891,85.2528616 6.10509775,84.4120708 C6.45264673,80.9556712 7.69111966,69.4546514 10.0186423,60.603538 C10.1661249,61.5120916 10.2917074,62.4665973 10.460316,63.433923 C11.2423358,69.6892404 12.0890237,76.1227055 12.2270109,80.7492196 C11.7073738,83.8936108 9.32525238,102.020395 17.2326463,154.172737 L20.4715868,154.172737 L22.2382817,94.0686785 C22.6354781,94.1902185 23.0335731,94.2255151 23.4160783,94.2351717 C23.7985514,94.2255151 24.1967936,94.1902185 24.5938748,94.0686785 L26.3605697,154.172737 L29.5995102,154.172737 C37.5069163,102.020395 35.1248243,83.8936108 34.6051456,80.7492196 C34.7430713,76.1227055 35.5897592,69.6892404 36.3718405,63.433923 C36.5403876,62.4665973 36.6659701,61.5120916 36.8135142,60.603538 C39.1409607,69.4546514 40.3794336,80.9556712 40.7270588,84.4120708 C40.6729992,85.2528616 40.5742116,86.0342144 40.4326096,86.7429761 C40.285946,88.3130073 40.1055961,89.7396878 40.7270588,91.4047867 C41.5498681,93.3231217 43.2906296,94.977565 44.4691919,96.566077 C46.3657071,98.9191259 46.9035181,95.9713632 46.824785,94.0686785 C46.7218431,91.840999 45.75767,86.0362123 45.0580902,84.578564 C45.3040714,43.4933611 37.7234835,41.2115713 34.0162473,40.1248699 C31.8415714,39.2619355 29.2789823,38.9074714 27.2439171,38.792924 L27.2439171,33.9646202 C31.1568304,32.1913007 33.0623567,27.7374402 34.0162473,23.3090531 C34.6638645,23.3291988 35.3182773,22.8578564 35.7829422,22.1436004 C35.9947737,21.7281998 36.1917601,21.2412071 36.2246159,20.6451613 L36.5190651,18.9802289 C36.6985067,17.4885328 35.9947737,16.1877211 34.8995948,15.9833507 C34.8702732,15.9936733 34.8053472,15.9868803 34.7523702,15.9833507 C34.7769329,14.3283413 34.761916,12.4721915 34.7523702,11.4880333 C34.7523464,5.89640791 29.6362961,1.49843913 23.4160783,1.49843913 C17.1958284,1.49843913 12.0798222,5.89640791 12.0797863,11.3215401 Z"></path>
                    <path fill="#F2F2F2" fill-rule="nonzero" d="M23.5,94.2351717 C23.8838604,94.2255151 24.2835303,94.1902185 24.6820181,94.0686785 L26.4550453,154.172737 L29.7055951,154.172737 C37.6413693,102.020395 35.2507377,83.8936108 34.7291722,80.7492196 C34.867616,76.1227055 35.7173393,69.6892404 36.5021994,63.433923 C36.6713757,62.4665973 36.7974084,61.5120916 36.9454561,60.603538 C39.2812717,69.4546514 40.524026,80.9556712 40.8728691,84.4120708 C40.818644,85.2528616 40.7195023,86.0342144 40.5773646,86.7429761 C40.4302033,88.3130073 40.2492068,89.7396878 40.8728691,91.4047867 C41.6986565,93.3231217 43.4458171,94.977565 44.6285739,96.566077 C46.5319186,98.9191259 47.0716577,95.9713632 46.9926102,94.0686785 C46.8893314,91.840999 45.9217018,86.0362123 45.219583,84.578564 C45.466477,43.4933611 37.8587129,41.2115713 34.1381631,40.1248699 C31.9557144,39.2619355 29.3839385,38.9074714 27.3415589,38.792924 L27.3415589,33.9646202 C31.2685186,32.1913007 33.1808762,27.7374402 34.1381631,23.3090531 C34.7881253,23.3291988 35.4448841,22.8578564 35.9111903,22.1436004 C36.1238058,21.7281998 36.3214983,21.2412071 36.3544471,20.6451613 L36.6499516,18.9802289 C36.8300616,17.4885328 36.1238058,16.1877211 35.0246767,15.9833507 C34.995274,15.9936733 34.9301152,15.9868803 34.8769244,15.9833507 C34.9015991,14.3283413 34.8865283,12.4721915 34.8769244,11.4880333 C34.8769244,5.89640791 29.7425332,1.49843913 23.5,1.49843913 L23.5,94.2351717 Z"></path>
                    <path fill="#03E0C0" fill-rule="nonzero" d="M34.0034091,67.9292404 C34.3007156,67.9292404 34.5417141,68.443671 34.5417141,69.0780346 L34.5417141,73.4513686 C36.8264344,85.6413942 37.0776617,95.4260006 37.2610615,102.570367 C37.3139235,104.630214 36.7076185,114.547182 36.114902,121.040395 C35.5221856,127.533608 32.3928533,146.571709 32.1140662,146.680263 L25.4460064,146.51377 C25.1610284,146.624654 24.6407271,113.583356 24.5780177,112.981485 C24.1690774,106.599933 23.8164281,103.409157 23.5200699,103.409157 C23.2237117,103.409157 22.9695872,106.600025 22.7576966,112.981763 C22.6949872,113.583634 22.1746859,146.624933 21.8897079,146.514048 L15.2216481,146.680541 C14.942861,146.571988 11.8135287,127.533887 11.2208122,121.040673 C10.6280958,114.54746 10.0217908,104.630492 10.0746528,102.570645 C10.2580526,95.426279 10.5092799,85.6416726 12.7940002,73.4516471 L12.7940002,69.0783131 C12.7940002,68.4439495 13.0349987,67.9295188 13.3323052,67.9295188 L23.6678571,67.9295188 L34.0034091,67.9292404 Z"></path>
                    <path fill="#03CAAD" fill-rule="nonzero" d="M33.9986474,67.9292404 C34.2963881,67.9292404 34.5377385,68.4436728 34.5377385,69.0780387 L34.5377385,73.4513881 C36.825795,85.6414568 37.0773892,95.4260978 37.2610568,102.570489 C37.313996,104.630343 36.7068056,114.547347 36.1132237,121.040583 C35.5196417,127.533819 32.3857398,146.571988 32.1065456,146.680541 L25.4287489,146.514048 C25.1433547,146.624932 24.6222936,113.583517 24.5594926,112.981644 C24.1499552,106.600069 23.796791,103.409282 23.5,103.409282 L23.5,67.9292404 L33.9986474,67.9292404 Z"></path>
                    <rect width="7.218" height="3.33" x="14.939" y="146.348" fill="#03F9D5" fill-rule="nonzero"></rect>
                    <rect width="7.218" height="3.33" x="25.011" y="146.348" fill="#03E0C0" fill-rule="nonzero"></rect>
                    <path fill="#03F9D5" fill-rule="nonzero" d="M23.3321429,43.2882414 C20.3823099,43.2319454 19.5365149,41.0368635 19.5059198,39.6253902 C19.5366624,39.3013606 19.5365149,38.6264308 19.5059198,38.6264308 C19.3154113,38.6264169 16.0406459,38.9934414 15.8268591,39.1259105 C15.4855137,39.1370657 9.00585148,40.8260342 5.96697652,43.4547347 C2.83682657,46.2890123 1.94449547,59.7072028 1.84642857,61.2695109 C1.824587,61.6584089 2.03475114,62.0643422 2.43507828,62.2684703 C4.59277095,63.404986 6.95717919,64.1422155 9.35171233,64.4328824 L9.35171233,86.7429761 C9.38104955,87.119504 9.57357183,87.4788929 9.94036204,87.7419355 C10.032406,87.7546683 14.5371119,89.8709406 23.1849804,89.9063476 L23.3321429,89.9063476 C31.9800358,89.8709406 36.6318034,87.7548345 36.7239237,87.7419355 C37.0906671,87.4788929 37.2831746,87.119504 37.3125734,86.7429761 L37.3125734,64.4328824 C39.7070597,64.1423817 42.0715416,63.404986 44.2292074,62.2684703 C44.6295629,62.0645085 44.8396113,61.6584089 44.8178571,61.2695109 C44.7197732,59.7072028 43.827399,46.2890455 40.6973092,43.4547347 C37.6584611,40.8260674 31.1787989,39.1371072 30.8374266,39.1259105 C30.6236815,38.9934813 27.2014399,38.6264449 27.1583659,38.6264308 C27.2014399,38.6264449 27.2012925,39.3013606 27.1583659,39.6253902 C27.2014399,41.0365477 26.2823859,43.2308815 23.3321429,43.2882414 Z"></path>
                    <path fill="#03E0C0" fill-rule="nonzero" d="M23.5,43.2882414 L23.5,89.9063476 C32.147275,89.8709406 36.7987101,87.7548345 36.8908238,87.7419355 C37.257541,87.4788929 37.4500348,87.119504 37.4794315,86.7429761 L37.4794315,64.4328824 C39.8737467,64.1423817 42.2380596,63.404986 44.3955712,62.2684703 C44.7958981,62.0645085 45.0059315,61.6584089 44.9841789,61.2695109 C44.8861019,59.7072028 43.9937916,46.2890455 40.8639254,43.4547347 C37.8252945,40.8260674 31.3460953,39.1371072 31.0047474,39.1259105 C30.7910175,38.9934813 27.3690205,38.6264449 27.3259497,38.6264308 C27.3690205,38.6264449 27.3688731,39.3013606 27.3259497,39.6253902 C27.3690205,41.0365477 26.4500322,43.2308815 23.5,43.2882414 Z"></path>
                    <path fill="#03F9D5" fill-rule="nonzero" d="M31.0967892,11.1223174 C30.659105,10.776856 30.2179892,10.5183408 29.7734419,10.346772 C29.1066208,10.0894187 28.5971331,9.88144472 28.1560173,9.72633564 C27.7149016,9.57122655 26.7787983,9.21453376 26.2445156,9.1058993 C25.8997891,9.0600056 25.4432017,8.91307719 24.6270911,8.79568114 C23.8109805,8.67828508 23.4862102,8.60803981 23.0096666,8.64057205 C22.5331229,8.6731043 21.2017538,8.47785016 19.3337018,8.95079022 C17.4656497,9.42373029 16.8340457,9.72633564 15.6577369,10.5018811 C13.3024428,11.8210198 12.3452177,14.0654567 12.4197095,16.1498439 C11.7352082,16.2025152 11.2938416,16.3690084 11.0956095,16.6493236 C10.952502,16.1498439 10.0587268,9.51971073 14.047542,5.47907205 C21.0999205,-1.66493236 26.9128019,3.61112099 30.5086348,0 C31.5032082,3.18482442 33.5000544,3.90874227 34.3409203,6.82622268 C35.3068763,10.1777177 35.5030392,13.2376832 34.9294091,16.006119 C34.4767212,15.8523654 34.0814127,15.8523654 33.7434839,16.006119 C33.7434839,15.6503642 33.5242232,15.0592996 33.1553295,14.2244991 C32.7864358,13.3896985 32.4201365,12.5182991 31.9790208,12.0529719 C31.6849436,11.7427537 31.3908664,11.4325356 31.0967892,11.1223174 Z"></path>
                    <path fill="#03E0C0" fill-rule="nonzero" d="M31.1130287,11.1064962 C30.6770558,10.7615261 30.2376649,10.5033787 29.7948558,10.3320539 C29.1306421,10.0750668 28.6231465,9.86738861 28.1837555,9.71250017 C27.7443645,9.55761172 26.8119216,9.20142631 26.279728,9.09294639 C25.9363493,9.04711797 25.4815473,8.90039856 24.6686277,8.7831695 C24.1288298,8.70532662 23.7957598,8.64824424 23.5,8.62818595 L23.5,1.41409892 C26.3267743,1.37469271 28.7100432,1.82941393 30.527174,0 C31.5178586,3.18029409 33.5068968,3.90318218 34.3444748,6.81651255 C35.3066539,10.1632402 35.5020498,13.2188529 34.9306627,15.9833507 C34.4797448,15.8298158 34.085982,15.8298158 33.7493745,15.9833507 C33.7493745,15.628102 33.5309712,15.0378781 33.1635199,14.2042651 C32.9418899,13.7014674 32.7212001,13.1853743 32.484531,12.7529805 C32.3288146,12.4684872 32.1661809,12.2202271 31.9918106,12.0358268 C31.6988833,11.7260499 31.405956,11.4162731 31.1130287,11.1064962 Z"></path>
                </g>
            </svg>