<svg height="18" viewBox="0 0 18 18" width="18" xmlns="http://www.w3.org/2000/svg"><path d="m16.546875 12.5c.406252 0 .7499986.148436 1.03125.4453125s.421875.6484355.421875 1.0546875-.1406236.757811-.421875 1.0546875-.624998.4453125-1.03125.4453125h-6.046875v6.046875c0 .406252-.148436.7499986-.4453125 1.03125-.29687648.2812514-.64843547.421875-1.0546875.421875s-.75781102-.1406236-1.0546875-.421875-.4453125-.624998-.4453125-1.03125v-6.046875h-6.046875c-.40625203 0-.74999859-.148436-1.03125-.4453125s-.421875-.6484355-.421875-1.0546875.14062359-.757811.421875-1.0546875.62499797-.4453125 1.03125-.4453125h6.046875v-6.046875c0-.40625203.14843602-.74999859.4453125-1.03125s.64843547-.421875 1.0546875-.421875.75781102.14062359 1.0546875.421875c.2968765.28125141.4453125.62499797.4453125 1.03125v6.046875z" fill="#179cff" fill-rule="evenodd" transform="translate(0 -5)"/></svg>