<svg xmlns="http://www.w3.org/2000/svg" width="47" height="160" viewBox="0 0 47 160">
                    <g fill="none" fill-rule="evenodd">
                        <polygon fill="#03F9D5" fill-rule="nonzero"
                                 points="23.499 59.16 23.499 43.866 23.499 37.647 23.499 38.487 23.499 54.454 23.499 66.387 23.499 76.807 23.499 88.571 23.499 103.697 23.499 104.538 23.332 104.874 23.499 104.874 23.499 104.538 23.499 103.697 23.499 88.571 23.499 76.807 23.499 66.387 23.499 54.454 23.499 38.487 23.499 37.647 23.499 43.866"></polygon>
                        <polygon fill="#03E0C0" fill-rule="nonzero"
                                 points="23.489 59.162 23.489 104.877 23.5 104.541 23.5 103.7 23.5 88.574 23.5 76.81 23.5 66.389 23.5 54.457 23.5 38.49 23.5 37.65 23.5 43.868"></polygon>
                        <polygon fill="#03E0C0" fill-rule="nonzero"
                                 points="23.5 14.958 24.004 14.958 23.5 14.958 37.264 14.958 36.425 14.958 34.579 14.958 31.389 14.958 31.557 14.958 28.871 14.958 29.207 14.958 27.529 14.958"></polygon>
                        <polygon fill="#03F9D5" fill-rule="nonzero"
                                 points="31.557 14.958 28.871 14.958 29.207 14.958 27.529 14.958 22.996 14.958 24.004 14.958 19.807 14.958 12.589 14.958 10.575 14.958 9.736 14.958 23.5 14.958 37.264 14.958 36.425 14.958 34.579 14.958 31.389 14.958"></polygon>
                        <path fill="#03E0C0" fill-rule="nonzero"
                              d="M29.8799703,67.5630252 C30.0634929,67.5630252 30.2122574,67.5696124 30.2122574,67.5777354 L30.2122574,67.6337356 C31.6225786,67.7898278 31.7776571,67.9151188 31.8908669,68.0066017 C31.9234978,68.0329779 31.5492354,68.1599638 31.183361,68.2431088 C30.8174867,68.3262538 28.8858001,68.570035 28.7137093,68.571425 L24.597623,68.5692931 C24.4217106,68.5707129 24.100537,68.1476221 24.0618275,68.1399152 C23.870213,68.0582 23.6829372,68.0173424 23.5,68.0173424 C23.3170628,68.0173424 23.129787,68.0582012 22.9381725,68.1399187 C22.899463,68.1476256 22.5782894,68.5707165 22.402377,68.5692966 L18.2862907,68.5714286 C18.1141999,68.5700386 16.1825133,68.3262574 15.816639,68.2431124 C15.4507646,68.1599673 15.0765022,68.0329815 15.1091331,68.0066053 C15.2223429,67.9151223 15.3774214,67.7898313 16.7877426,67.6337391 L16.7877426,67.577739 C16.7877426,67.569616 16.9365071,67.5630288 17.1200297,67.5630288 L23.5,67.5630288 L29.8799703,67.5630252 Z"></path>
                        <path fill="#03CAAD" fill-rule="nonzero"
                              d="M29.9031702,67.5630252 C30.0873601,67.5630252 30.2366656,67.5696125 30.2366656,67.5777355 L30.2366656,67.6337358 C31.6521152,67.7898286 31.8077577,67.91512 31.9213791,68.0066033 C31.9541287,68.0329796 31.5785053,68.1599659 31.2113005,68.2431112 C30.8440958,68.3262565 28.9053848,68.5700386 28.7326682,68.5714286 L24.6016144,68.5692966 C24.4250623,68.5707165 24.1027208,68.1476241 24.0638705,68.1399172 C23.8715592,68.0582017 23.6836024,68.017344 23.5,68.017344 L23.5,67.5630252 L29.9031702,67.5630252 Z"></path>
                        <rect width="6.043" height="1" x="16.282" y="68.235" fill="#03F9D5" fill-rule="nonzero"></rect>
                        <rect width="6.043" height="1" x="24.675" y="68.235" fill="#03E0C0" fill-rule="nonzero"></rect>
                        <rect width="11.582" height="1.008" x="9.736" y="43.025" fill="#03E0C0"
                              fill-rule="nonzero"></rect>
                        <rect width="11.582" height="1.008" x="25.682" y="43.025" fill="#03CAAD"
                              fill-rule="nonzero"></rect>
                        <path fill="#FFFFFF" fill-rule="nonzero"
                              d="M10.579623,9.91596639 C10.5686994,11.0805378 10.5514834,12.9631261 10.579623,14.6218487 C9.46753046,14.8106387 8.70687235,15.9018824 8.73385414,17.1428571 C8.73128684,17.3529412 8.74299908,17.5384874 8.73385414,17.6470588 L9.06944847,19.6638655 C9.26375758,21.0242017 10.3194534,22.0465546 11.4186088,22.0168067 C12.5058169,26.4870588 14.6775653,30.9830252 19.1372783,32.7731092 L19.1372783,37.6470588 C16.8178181,37.7626891 15.239518,38.1205042 12.7609861,38.9915966 C8.53571924,40.0885714 1.74156171,51.8036975 2.02196756,83.8655462 C1.22457362,85.3369748 0.12578006,91.1966387 0.00840158853,93.4453782 C-0.0814264496,95.3660504 0.531589784,98.3416807 2.69315622,95.9663866 C4.03640607,94.3628571 5.44687548,92.6927731 6.38469384,90.7563025 C7.09296566,89.0754622 6.88739736,87.6352941 6.72028817,86.0504202 C6.55893441,85.334958 6.44635929,84.5462185 6.38469384,83.697479 C6.7808126,80.2084034 8.76585306,63.2205042 11.4186088,54.2857143 C11.586708,55.2028571 11.8967364,64.2336134 12.0888978,65.210084 C12.9802027,71.5245378 11.9325379,75.3297479 10.7474201,80 C10.15518,83.1741176 7.44018834,101.472269 16.4525237,154.117647 L20.1440613,154.117647 L22.1576273,93.4453782 C22.610344,93.5680672 23.0640676,93.6036975 23.5000046,93.6134454 C23.9359416,93.6036975 24.389833,93.5680672 24.8423819,93.4453782 L26.8559479,154.117647 L30.5474855,154.117647 C39.5598712,101.472269 36.8449131,83.1741176 36.2525891,80 C35.0674377,75.3297479 34.0197729,71.5245378 34.9111115,65.210084 C35.1032392,64.2336134 35.4132677,55.2028571 35.5814005,54.2857143 C38.2341058,63.2205042 40.2191463,80.2084034 40.6153154,83.697479 C40.5537338,84.5462185 40.4411419,85.334958 40.2797211,86.0504202 C40.1125951,87.6352941 39.9070436,89.0754622 40.6153154,90.7563025 C41.5531337,92.6927731 42.9636367,94.3628571 44.306853,95.9663866 C46.4684161,98.3416807 47.0813791,95.3660504 46.9916077,93.4453782 C46.8743174,91.1966387 45.7754138,85.3369748 44.9780417,83.8655462 C45.2584307,51.8036975 38.4643235,40.0885714 34.2390231,38.9915966 C31.7604912,38.1205042 30.1821911,37.7626891 27.8627309,37.6470588 L27.8627309,32.7731092 C32.3224439,30.9830252 34.4942426,26.4870588 35.5814005,22.0168067 C36.3195402,22.0371429 37.0653986,21.5613445 37.5949664,20.8403361 C37.8364266,20.4210084 38.0609392,19.9294118 38.0983579,19.3277311 L38.4339523,17.6470588 C38.638497,16.1412605 37.8364266,14.8281513 36.5881835,14.6218487 C36.5547918,14.6322689 36.4807933,14.6254118 36.4203863,14.6218487 C36.4484084,12.9511933 36.4312931,11.0774958 36.4203863,10.0840336 C36.4203863,4.43954622 30.5894348,0 23.5000046,0 C16.4105744,0 10.5796733,4.43954622 10.579623,9.91596639 Z"></path>
                        <path fill="#F2F2F2" fill-rule="nonzero"
                              d="M23.5,93.6134454 C23.935937,93.6036975 24.3898284,93.5680672 24.8423773,93.4453782 L26.8559433,154.117647 L30.5474809,154.117647 C39.5598666,101.472269 36.8449085,83.1741176 36.2525845,80 C35.0674331,75.3297479 34.0197683,71.5245378 34.9111069,65.210084 C35.1032346,64.2336134 35.4132631,55.2028571 35.5813958,54.2857143 C38.2341012,63.2205042 40.2191417,80.2084034 40.6153108,83.697479 C40.5537292,84.5462185 40.4411373,85.334958 40.2797165,86.0504202 C40.2455439,86.3744817 40.2097649,86.6924934 40.1805198,87.0077495 C40.0667373,88.234303 40.0518604,89.4191462 40.6153108,90.7563025 C41.5531291,92.6927731 42.9636321,94.3628571 44.3068484,95.9663866 C46.4684115,98.3416807 47.0813745,95.3660504 46.991603,93.4453782 C46.8743128,91.1966387 45.7754092,85.3369748 44.9780371,83.8655462 C45.2584261,51.8036975 38.4643189,40.0885714 34.2390185,38.9915966 C31.7604866,38.1205042 30.1821865,37.7626891 27.8627263,37.6470588 L27.8627263,32.7731092 C32.3224393,30.9830252 34.494238,26.4870588 35.5813958,22.0168067 C36.3195356,22.0371429 37.065394,21.5613445 37.5949618,20.8403361 C37.8364219,20.4210084 38.0609345,19.9294118 38.0983533,19.3277311 L38.4339476,17.6470588 C38.6384924,16.1412605 37.8364219,14.8281513 36.5881788,14.6218487 C36.5547872,14.6322689 36.4807886,14.6254118 36.4203817,14.6218487 C36.4484038,12.9511933 36.4312885,11.0774958 36.4203817,10.0840336 C36.4203817,4.43954622 30.5894302,0 23.5,0 L23.5,93.6134454 Z"></path>
                        <path fill="#FFFFFF"
                              d="M20.1428571,154.117647 L15.9189047,154.117647 C15.9189047,154.117647 7.55357143,154.117647 7.55357143,160 L20.1428571,160 L20.1428571,154.117647 Z"></path>
                        <path fill="#F2F2F2"
                              d="M39.4464286,154.117647 L35.2224762,154.117647 C35.2224762,154.117647 26.8571429,154.117647 26.8571429,160 L39.4464286,160 L39.4464286,154.117647 Z"
                              transform="matrix(-1 0 0 1 66.304 0)"></path>
                    </g>
                </svg>