<svg xmlns="http://www.w3.org/2000/svg" width="240" height="51" viewBox="0 0 240 51">
  <g fill="none" fill-rule="evenodd">
    <path fill="#6060BC" d="M21.22098,44.9437947 C12.73578,44.9437947 5.83308,38.0817596 5.83308,29.6467772 C5.83308,21.2109 12.73578,14.3482684 21.22098,14.3482684 C23.26458,14.3482684 25.24938,14.7395667 27.12078,15.5111281 L27.21258,15.5513912 C32.91948,17.9498825 36.60858,23.4826368 36.60858,29.6467772 C36.60858,38.0817596 29.70588,44.9437947 21.22098,44.9437947 M29.58588,10.2530579 L29.48058,10.2062333 C26.86458,9.10660175 24.08538,8.54858421 21.22098,8.54858421 C9.51948,8.54858421 -0.000119999986,18.0134088 -0.000119999986,29.6467772 C-0.000119999986,41.2795491 9.51948,50.7431807 21.22098,50.7431807 C32.92218,50.7431807 42.44238,41.2795491 42.44238,29.6467772 C42.44238,21.1965842 37.39578,13.5838649 29.58588,10.2530579"></path>
    <path fill="#DB3069" d="M41.58804 12.0306018C40.45014 10.8993561 38.60064 10.9002509 37.46364 12.0306018L21.12024 28.2769351 17.37834 24.5542333C16.82754 24.0063561 16.09434 23.7048298 15.31554 23.7048298 14.53644 23.7048298 13.80384 24.0063561 13.25304 24.5542333 12.70194 25.1009175 12.39864 25.8286368 12.39804 26.6034789 12.39804 27.3780228 12.70164 28.1063386 13.25214 28.6539175L19.05684 34.4270579C19.60824 34.9752333 20.34084 35.2770579 21.12024 35.2770579 21.89934 35.2770579 22.63134 34.9752333 23.18214 34.4270579L41.58804 16.1305842C42.72504 14.9999351 42.72504 13.1612509 41.58804 12.0306018M24.35151.0000298245614L18.09111.0000298245614C16.48281.0000298245614 15.17451 1.30067895 15.17451 2.89927544 15.17451 4.49846842 16.48281 5.79911754 18.09111 5.79911754L24.35151 5.79911754C25.95951 5.79911754 27.26781 4.49846842 27.26781 2.89927544 27.26781 1.30067895 25.95951.0000298245614 24.35151.0000298245614"></path>
    <path fill="#FFFFFF" d="M70.57671 25.7098754C66.77091 24.9129632 65.54931 24.0710158 65.54931 22.2445596 65.54931 20.0679632 67.13211 18.8198053 69.89211 18.8198053 71.42721 18.8198053 72.84621 19.229893 74.23671 20.0772088 74.79651 20.3817175 75.23571 20.5242789 75.61971 20.5242789 76.61511 20.5242789 77.39511 19.6578754 77.39511 18.5513842 77.39511 17.9089632 77.19081 17.3604895 76.77891 16.9119281 75.30021 15.5131561 72.98331 14.8036298 69.89211 14.8036298 67.51041 14.8036298 65.52351 15.4869105 63.98661 16.8358754 62.45241 18.1821561 61.67451 20.0139807 61.67451 22.2806474 61.67451 26.366314 63.96081 28.5107 69.56331 29.6822088 71.69661 30.1626825 73.04361 30.6178053 73.80171 31.1149807 74.57481 31.6202088 74.95071 32.3091561 74.95071 33.218507 74.95071 35.496507 73.20561 36.8571035 70.28271 36.8571035 68.12961 36.8571035 66.18321 36.1884368 64.50291 34.8734719 64.04961 34.4926123 63.58581 34.2996474 63.12381 34.2996474 62.00061 34.2996474 61.15341 35.2242088 61.15341 36.4499982 61.15341 37.1747351 61.48611 37.7912088 62.13741 38.2773491 64.29261 40.0229807 66.97821 40.9087702 70.11981 40.9087702 72.75231 40.9087702 74.88231 40.188507 76.45071 38.7679632 78.02691 37.3402614 78.82611 35.4735421 78.82611 33.218507 78.82611 29.0093667 76.51311 26.9040509 70.57671 25.7098754M110.71254 21.6265947C109.84704 21.3957526 105.96924 20.8657702 103.44174 22.7909456 102.02934 23.8664193 101.31354 25.5145246 101.31354 27.6899281L101.38104 38.5681386C101.38104 39.695507 102.32244 40.6478053 103.43634 40.6478053 104.62914 40.6478053 105.56304 39.7342789 105.56304 38.5663491L105.49584 28.2911912C105.49584 27.2941561 105.75894 26.5518228 106.27824 26.0847702 107.21154 25.2452088 108.61524 25.4113316 109.65714 25.5151211 109.92864 25.5419632 110.16264 25.5652263 110.33994 25.5652263 111.62904 25.5652263 112.32444 24.5488053 112.32444 23.5923316 112.32444 22.6176649 111.76854 21.9382614 110.71254 21.6265947M182.29725 40.654486C181.43145 40.8850298 177.55395 41.4153105 175.02645 39.4901351 173.61405 38.4143632 172.89825 36.7665561 172.89825 34.5914509L172.96575 17.9606789C172.96575 16.8336088 173.90685 15.8810123 175.02105 15.8810123 176.21385 15.8810123 177.14775 16.7942404 177.14775 17.9621702L177.08025 33.9895912C177.08025 34.9866263 177.34335 35.7292579 177.86295 36.1963105 178.79625 37.0355737 180.19995 36.8697491 181.24185 36.7659596 181.51335 36.7388193 181.74735 36.7158544 181.92465 36.7158544 183.21375 36.7158544 183.90885 37.7322754 183.90885 38.6884509 183.90885 39.6634158 183.35325 40.3428193 182.29725 40.654486M129.95898 21.7519772C128.98458 21.7519772 128.26548 22.2995561 127.87848 23.3401351L123.46758 36.0552404 118.99338 23.3067316C118.67688 22.3618895 117.88788 21.7519772 116.98368 21.7519772 116.24028 21.7519772 115.58508 22.0806439 115.18578 22.6529772 114.77298 23.245293 114.69648 24.0108895 114.97608 24.7517316L119.87958 37.8572404C120.58158 39.7299246 121.80678 40.7203982 123.42258 40.7203982 125.11518 40.7203982 126.33168 39.7445386 127.03848 37.8226439L131.96538 24.7532228C132.24648 24.0261 132.17058 23.2652754 131.75658 22.6666965 131.35488 22.0851175 130.70028 21.7519772 129.95898 21.7519772M167.44257 21.7519772C166.42557 21.7519772 165.71367 22.2974684 165.32907 23.3690649L161.15217 34.2311702 156.48327 23.3067316C156.13617 22.2751 155.42427 21.7519772 154.36557 21.7519772 153.65427 21.7519772 153.05457 22.0764684 152.63037 22.6899596 152.20947 23.2992754 152.15367 24.0147667 152.46867 24.759486L158.79027 39.0335211C157.91907 41.2172754 156.69387 42.8084158 155.14437 43.7666789 154.55637 44.1561877 154.26987 44.7094333 154.26987 45.4580298 154.26987 46.5821175 155.12277 47.4300298 156.25407 47.4300298 156.82827 47.4300298 157.40667 47.2400474 157.96767 46.8669421 159.74457 45.7434509 161.68167 43.0866789 162.90207 40.1006439L169.41087 24.7618719C169.70727 24.079486 169.64517 23.3115035 169.24587 22.7066614 168.85017 22.1089772 168.17637 21.7519772 167.44257 21.7519772M189.08475 14.5480632C187.67025 14.5480632 186.60345 15.5922211 186.60345 16.9772737 186.60345 18.3808175 187.69305 19.4804491 189.08475 19.4804491 190.43175 19.4804491 191.52735 18.3569579 191.52735 16.9772737 191.52735 15.615186 190.45365 14.5480632 189.08475 14.5480632M189.06543 21.7476228C187.89303 21.7476228 186.97413 22.6763596 186.97413 23.861886L186.97413 38.5325877C186.97413 39.6593596 187.95153 40.6477456 189.06543 40.6477456 190.23783 40.6477456 191.15673 39.7184123 191.15673 38.5325877L191.15673 23.861886C191.15673 22.7154298 190.19913 21.7476228 189.06543 21.7476228M235.92606 29.4624018C235.89666 29.6971211 235.79526 29.716507 235.69416 29.716507L227.60016 29.716507C227.58396 28.2876123 227.97006 27.1280333 228.72216 26.354086 229.45986 25.5947526 230.51946 25.2091211 231.87216 25.2091211 233.16246 25.2091211 234.22806 25.6168228 234.95406 26.3886825 235.67376 27.1527877 236.00886 28.2199105 235.92606 29.4624018M237.76326 23.7366825C236.23326 22.2162263 234.30636 21.4777702 231.87216 21.4777702 229.56906 21.4777702 227.62566 22.1753667 226.09476 23.5526649 224.57556 24.9192263 223.71276 26.7910158 223.53036 29.1194193 223.42086 30.7320333 223.39806 31.9208404 223.50726 33.2450509 223.65186 35.5454193 224.51226 37.2868754 226.02216 38.7515596 227.56626 40.1762789 229.59396 40.8995246 232.05036 40.8995246 234.55626 40.8995246 236.53836 40.4715421 237.94146 39.6269105 238.64436 39.1998228 239.00016 38.6051211 239.00016 37.8609982 239.00016 37.2525772 238.70676 36.690086 238.21626 36.3569456 237.65286 35.9737 236.92056 35.9253842 236.16366 36.2200509 234.56316 36.7855246 233.24136 37.0602088 232.12206 37.0602088 229.60026 37.0602088 227.98416 35.8099632 227.66376 33.6721386 227.59416 33.2083667 227.60496 33.3052965 227.60496 33.0932439L237.51576 33.0932439C239.09466 33.0932439 240.00006 32.1931386 240.00006 30.6237702L240.00006 29.6297175C240.00006 27.1957351 239.24766 25.2129982 237.76326 23.7366825M146.01573 29.4624018C145.98633 29.6971211 145.88493 29.716507 145.78383 29.716507L137.68983 29.716507C137.67363 28.2876123 138.05973 27.1280333 138.81213 26.354086 139.54953 25.5947526 140.60943 25.2091211 141.96183 25.2091211 143.25213 25.2091211 144.31803 25.6168228 145.04373 26.3886825 145.76343 27.1527877 146.09853 28.2199105 146.01573 29.4624018M147.85323 23.7366825C146.32293 22.2162263 144.39603 21.4777702 141.96183 21.4777702 139.65903 21.4777702 137.71563 22.1753667 136.18443 23.5526649 134.66553 24.9192263 133.80243 26.7910158 133.62003 29.1194193 133.51053 30.7320333 133.48773 31.9208404 133.59693 33.2450509 133.74183 35.5454193 134.60193 37.2868754 136.11183 38.7515596 137.65593 40.1762789 139.68363 40.8995246 142.14003 40.8995246 144.64623 40.8995246 146.62803 40.4715421 148.03113 39.6269105 148.73403 39.1998228 149.08983 38.6051211 149.08983 37.8609982 149.08983 37.2525772 148.79673 36.690086 148.30593 36.3569456 147.74253 35.9737 147.01023 35.9253842 146.25333 36.2200509 144.65283 36.7855246 143.33103 37.0602088 142.21203 37.0602088 139.68993 37.0602088 138.07413 35.8099632 137.75343 33.6721386 137.68383 33.2083667 137.69463 33.3052965 137.69463 33.0932439L147.60543 33.0932439C149.18433 33.0932439 150.08973 32.1931386 150.08973 30.6237702L150.08973 29.6297175C150.08973 27.1957351 149.33733 25.2129982 147.85323 23.7366825M96.2232 21.7519772C95.0109 21.7519772 94.0965 22.6914509 94.0965 23.9378193L94.0965 33.0760649C94.0965 35.4417491 92.6232 36.8545386 90.1563 36.8566263 87.6891 36.8545386 86.2158 35.4417491 86.2158 33.0760649L86.2158 23.9378193C86.2158 22.6914509 85.3014 21.7519772 84.0891 21.7519772 82.8786 21.7519772 82.0335 22.6505912 82.0335 23.9378193L82.0335 33.1115561C82.0335 36.2908544 83.3298 38.6291 85.6449 39.8662228 88.1718 41.2172754 92.2941 41.2303982 94.8495 39.765714 97.05 38.5044333 98.2788 36.2064509 98.2788 33.1115561L98.2788 23.9378193C98.2788 22.6505912 97.4337 21.7519772 96.2232 21.7519772M217.82586 22.8338632C214.27176 20.7971439 210.61056 22.1496877 209.41656 22.8338632 208.92006 23.1183895 208.48116 23.4625649 208.08666 23.8496877 207.68976 23.4586877 207.24666 23.1115298 206.74626 22.8249158 203.19276 20.7881965 199.53156 22.1404421 198.33726 22.8249158 196.13646 24.0858982 194.90766 26.3841789 194.90766 29.4790737L194.90766 38.4434421C194.90766 39.7309684 195.75306 40.6292842 196.96356 40.6292842 198.17586 40.6292842 199.09026 39.6901088 199.09026 38.4434421L199.09026 29.5145649C199.09026 24.5905298 205.91256 24.5690561 205.98996 29.4328456 205.98996 29.4519333 205.98726 29.4692316 205.98726 29.4880211L205.99356 29.5321614 205.99356 38.4434421C205.99356 39.4905825 206.64246 40.3131439 207.56736 40.5520386 207.68766 40.6069158 207.84066 40.6388281 208.04286 40.6388281 208.20186 40.6388281 208.35486 40.6206351 208.50246 40.5899158 208.52796 40.5839509 208.54896 40.5747053 208.57326 40.5678456 209.51016 40.3370035 210.16956 39.5084772 210.16956 38.452986L210.16956 29.5551263 210.17586 29.4790737C210.17586 29.4626702 210.17346 29.4480561 210.17346 29.4319509 210.26016 24.5741263 217.07286 24.6075298 217.07286 29.5235123L217.07286 38.452986C217.07286 39.6990561 217.98726 40.6388281 219.19956 40.6388281 220.40976 40.6388281 221.25516 39.7399158 221.25516 38.452986L221.25516 29.4880211C221.25516 26.3931263 220.02636 24.0951439 217.82586 22.8338632"></path>
    <path fill="#FFFFFF" d="M181.78194,21.7476228 L174.09744,21.7476228 L174.09744,25.6173596 L181.78194,25.6173596 C182.85684,25.6173596 183.76404,24.7315702 183.76404,23.6829386 C183.76404,22.5976228 182.89344,21.7476228 181.78194,21.7476228"></path>
  </g>
</svg>