<svg xmlns="http://www.w3.org/2000/svg" width="112" height="96" viewBox="0 0 112 96">
  <defs>
    <linearGradient id="a" x1="50%" x2="50%" y1="100%" y2="50%">
      <stop offset="0%" stop-color="#6060BC" stop-opacity=".15"/>
      <stop offset="100%" stop-color="#6060BC" stop-opacity="0"/>
    </linearGradient>
  </defs>
  <g fill="none" fill-rule="evenodd" transform="translate(0 -16)">
    <rect width="112" height="112" fill="url(#a)" rx="56"/>
    <g fill-rule="nonzero" transform="translate(76.604 54.157)">
      <path fill="#FCC62D" d="M33.5183741,12.2568925 C33.5183741,16.7621326 26.0395908,20.705838 16.8143703,20.705838 C7.58921704,20.705838 0.110294349,16.7621326 0.110294349,12.2568925 C0.110294349,10.7869549 0.110277024,7.86994603 0.110277024,7.86994603 C2.9871488,5.51658291 10.5991285,4.4578641 16.8143703,4.4578641 C24.4627659,4.4578641 33.5183741,7.86994603 33.5183741,7.86994603 L33.5183741,12.2568925 Z"/>
      <path fill="#E3B228" d="M33.518486,12.256915 L33.5184637,7.86994603 C33.5184637,7.86994603 25.6254085,4.89592855 18.3533917,4.50100885 L18.3533917,20.6690176 C26.8571896,20.260459 33.518486,16.5087555 33.518486,12.256915 Z"/>
      <path fill="#FFD949" d="M33.5186875,7.87008108 C33.5186875,12.3753212 26.0399041,16.3190266 16.8146613,16.3190266 C7.58953038,16.3190266 0.110590375,12.3753212 0.110590375,7.87008108 C0.110590375,3.36484104 7.58953037,0.0710526899 16.8146613,0.0710526899 C26.0399041,0.0710526899 33.5186875,3.36484104 33.5186875,7.87008108 Z"/>
      <path fill="#FCC62D" d="M18.3535037,16.2820711 C26.8572344,15.8734676 33.518486,12.1217866 33.518486,7.86994603 C33.518486,3.618128 26.8572344,0.44529802 18.3535037,0.101818928 L18.3535037,16.2820711 Z"/>
      <path fill="#FFFFFF" fill-opacity=".25" d="M30.2747926,7.93494452 C30.2747926,11.539141 24.2481431,14.6940875 16.8142808,14.6940875 C9.38044091,14.6940875 3.35372423,11.539141 3.35372423,7.93494452 C3.35372423,4.33074798 9.38044091,1.6957218 16.8142808,1.6957218 C24.2481431,1.6957218 30.2747926,4.33074798 30.2747926,7.93494452 Z"/>
    </g>
    <g fill-rule="nonzero" transform="translate(73.32 49.015)">
      <path fill="#FCC62D" d="M33.4080971,12.3339994 C33.4080971,16.8392395 25.9293138,20.7829449 16.7040933,20.7829449 C7.47894,20.7829449 1.7320625e-05,16.8392395 1.7320625e-05,12.3339994 C1.7320625e-05,10.8640618 7.19470463e-15,7.94705294 7.19470463e-15,7.94705294 C2.87687178,5.59368982 10.4888515,4.53497101 16.7040933,4.53497101 C24.3524888,4.53497101 33.4080971,7.94705294 33.4080971,7.94705294 L33.4080971,12.3339994 Z"/>
      <path fill="#E3B228" d="M33.408209,12.3339544 L33.408209,7.94700793 C33.408209,7.94700793 27.6796901,5.78856368 21.4868977,4.90513367 L21.4868977,20.4186115 C28.3814836,19.343571 33.408209,16.0274788 33.408209,12.3339544 Z"/>
      <path fill="#FFD949" d="M33.4080971,7.94712049 C33.4080971,12.4523605 25.9293138,16.396066 16.7040709,16.396066 C7.47894,16.396066 0,12.4523605 0,7.94712049 C0,3.44188043 7.47894,0.148092078 16.7040709,0.148092078 C25.9293138,0.148092078 33.4080971,3.44188043 33.4080971,7.94712049 Z"/>
      <path fill="#FCC62D" d="M21.4868977,16.03171 C28.3814836,14.9566695 33.408209,11.6405549 33.408209,7.94705294 C33.408209,4.25352853 28.3814836,1.37424496 21.4868977,0.456609736 L21.4868977,16.03171 Z"/>
      <path fill="#FFFFFF" fill-opacity=".25" d="M30.1645156,8.01205143 C30.1645156,11.616248 24.1378661,14.7711944 16.7040038,14.7711944 C9.27016388,14.7711944 3.2434472,11.616248 3.2434472,8.01205143 C3.2434472,4.4078549 9.27016388,1.77282871 16.7040038,1.77282871 C24.1378661,1.77282871 30.1645156,4.4078549 30.1645156,8.01205143 Z"/>
    </g>
    <g fill-rule="nonzero" transform="translate(78.063 44.24)">
      <path fill="#FCC62D" d="M33.5731209,12.1859523 C33.5731209,16.6911924 26.0943376,20.6348979 16.8691172,20.6348979 C7.64396386,20.6348979 0.165041174,16.6911924 0.165041174,12.1859523 C0.165041174,10.7160147 0.165023849,7.79900589 0.165023849,7.79900589 C3.04189563,5.44564273 10.6538753,4.38692391 16.8691172,4.38692391 C24.5175127,4.38692391 33.5731209,7.79900589 33.5731209,7.79900589 L33.5731209,12.1859523 Z"/>
      <path fill="#E3B228" d="M16.8691205,20.6348979 C26.0942705,20.6348979 33.5732105,16.6911924 33.5732105,12.1859523 L33.5731881,7.79900589 C33.5731881,7.79900589 24.5175574,4.38692391 16.8691205,4.38692391 L16.7866388,4.38692391 L16.7866388,20.6348979 C16.8141172,20.6348529 16.841611,20.6348979 16.8691205,20.6348979 Z"/>
      <path fill="#FFD949" d="M33.5732328,7.79902842 C33.5732328,12.3042685 26.0944495,16.2479739 16.8692067,16.2479739 C7.64407578,16.2479739 0.165135762,12.3042685 0.165135762,7.79902842 C0.165135762,3.29378835 7.64407578,0 16.8692067,0 C26.0944495,0 33.5732328,3.29378835 33.5732328,7.79902842 Z"/>
      <path fill="#FCC62D" d="M16.8692127,16.2479739 C26.09436,16.2479739 33.5733,12.3042685 33.5733,7.79902842 C33.5733,3.29378835 26.09436,0 16.8692127,0 C16.8416724,0 16.8141478,2.93539437e-05 16.7866388,0 L16.7866388,16.2479739 C16.8141478,16.247929 16.8416726,16.2479739 16.8692127,16.2479739 Z"/>
      <path fill="#FFFFFF" fill-opacity=".25" d="M30.3295394,7.86401337 C30.3295394,11.4682099 24.3028899,14.6231563 16.8690276,14.6231563 C9.43518774,14.6231563 3.40847105,11.4682099 3.40847105,7.86401337 C3.40847105,4.25981682 9.43518774,1.62479064 16.8690276,1.62479064 C24.3028899,1.62479064 30.3295394,4.25981682 30.3295394,7.86401337 Z"/>
    </g>
    <g fill-rule="nonzero" transform="translate(3.321 52.768)">
      <path fill="#FCC62D" d="M33.894985,12.431991 C33.894985,17.0015916 26.3321705,21.0016358 17.0032958,21.0016358 C7.67448911,21.0016358 0.111533612,17.0015916 0.111533612,12.431991 C0.111533612,10.9410542 0.111516094,7.98237386 0.111516094,7.98237386 C3.02071227,5.59539124 10.7182198,4.52154788 17.0032958,4.52154788 C24.7376284,4.52154788 33.894985,7.98237386 33.894985,7.98237386 L33.894985,12.431991 Z"/>
      <path fill="#E3B228" d="M33.8950982,12.4320138 L33.8950756,7.98237386 C33.8950756,7.98237386 25.9133344,4.9658704 18.5596096,4.56530896 L18.5596096,20.9642893 C27.1589558,20.5498941 33.8950982,16.7445949 33.8950982,12.4320138 Z"/>
      <path fill="#FFD949" d="M33.8953019,7.98251083 C33.8953019,12.5521115 26.3324873,16.5521556 17.0035901,16.5521556 C7.67480599,16.5521556 0.111832967,12.5521115 0.111832967,7.98251083 C0.111832967,3.41291019 7.67480599,0.0720677259 17.0035901,0.0720677259 C26.3324873,0.0720677259 33.8953019,3.41291019 33.8953019,7.98251083 Z"/>
      <path fill="#FCC62D" d="M18.5597228,16.5146722 C27.1590011,16.1002314 33.8950982,12.294955 33.8950982,7.98237386 C33.8950982,3.66981555 27.1590011,0.451659421 18.5597228,0.103273487 L18.5597228,16.5146722 Z"/>
      <path fill="#FFFFFF" fill-opacity=".25" d="M30.6149588,8.04830086 C30.6149588,11.7039859 24.5205941,14.904003 17.0032053,14.904003 C9.48583912,14.904003 3.39140652,11.7039859 3.39140652,8.04830086 C3.39140652,4.39261582 9.48583912,1.71994639 17.0032053,1.71994639 C24.5205941,1.71994639 30.6149588,4.39261582 30.6149588,8.04830086 Z"/>
    </g>
    <g fill-rule="nonzero" transform="translate(0 47.925)">
      <path fill="#FCC62D" d="M33.7834689,12.5101994 C33.7834689,17.0798 26.2206544,21.0798442 16.8917798,21.0798442 C7.56297303,21.0798442 1.75175e-05,17.0798 1.75175e-05,12.5101994 C1.75175e-05,11.0192626 -5.31012409e-15,8.06058228 -5.31012409e-15,8.06058228 C2.90919618,5.67359965 10.6067038,4.59975629 16.8917798,4.59975629 C24.6261123,4.59975629 33.7834689,8.06058228 33.7834689,8.06058228 L33.7834689,12.5101994 Z"/>
      <path fill="#E3B228" d="M33.7835821,12.5101537 L33.7835821,8.06053665 C33.7835821,8.06053665 27.9906979,5.87125744 21.7283235,4.97520703 L21.7283235,20.7103059 C28.7003766,19.6199077 33.7835821,16.2564428 33.7835821,12.5101537 Z"/>
      <path fill="#FFD949" d="M33.7834689,8.06065078 C33.7834689,12.6302514 26.2206544,16.6302955 16.8917571,16.6302955 C7.56297303,16.6302955 0,12.6302514 0,8.06065078 C0,3.49105015 7.56297303,0.150207679 16.8917571,0.150207679 C26.2206544,0.150207679 33.7834689,3.49105015 33.7834689,8.06065078 Z"/>
      <path fill="#FCC62D" d="M21.7283235,16.2607345 C28.7003766,15.1703363 33.7835821,11.8068485 33.7835821,8.06058228 C33.7835821,4.31429323 28.7003766,1.39387703 21.7283235,0.46313273 L21.7283235,16.2607345 Z"/>
      <path fill="#FFFFFF" fill-opacity=".25" d="M30.5034427,8.12650932 C30.5034427,11.7821944 24.4090781,14.9822114 16.8916892,14.9822114 C9.37432304,14.9822114 3.27989043,11.7821944 3.27989043,8.12650932 C3.27989043,4.47082424 9.37432304,1.79815483 16.8916892,1.79815483 C24.4090781,1.79815483 30.5034427,4.47082424 30.5034427,8.12650932 Z"/>
    </g>
    <g fill-rule="nonzero" transform="translate(4.797 43.082)">
      <path fill="#FCC62D" d="M33.950347,12.3600374 C33.950347,16.929638 26.3875324,20.9296821 17.0586578,20.9296821 C7.72985106,20.9296821 0.166895566,16.929638 0.166895566,12.3600374 C0.166895566,10.8691006 0.166878053,7.91042028 0.166878053,7.91042028 C3.07607423,5.52343766 10.7735818,4.44959426 17.0586578,4.44959426 C24.7929903,4.44959426 33.950347,7.91042028 33.950347,7.91042028 L33.950347,12.3600374 Z"/>
      <path fill="#E3B228" d="M17.0586612,20.9296821 C26.3874645,20.9296821 33.9504375,16.929638 33.9504375,12.3600374 L33.9504149,7.91042028 C33.9504149,7.91042028 24.7930356,4.44959426 17.0586612,4.44959426 L16.9752527,4.44959426 L16.9752527,20.9296821 C17.0030399,20.9296365 17.0308426,20.9296821 17.0586612,20.9296821 Z"/>
      <path fill="#FFD949" d="M33.9504602,7.91044308 C33.9504602,12.4800437 26.3876456,16.4800879 17.0587483,16.4800879 C7.72996424,16.4800879 0.166991221,12.4800437 0.166991221,7.91044308 C0.166991221,3.34084247 7.72996424,-3.55271368e-15 17.0587483,-3.55271368e-15 C26.3876456,-3.55271368e-15 33.9504602,3.34084247 33.9504602,7.91044308 Z"/>
      <path fill="#FCC62D" d="M17.0587544,16.4800879 C26.387555,16.4800879 33.9505281,12.4800437 33.9505281,7.91044308 C33.9505281,3.34084247 26.387555,-3.55271368e-15 17.0587544,-3.55271368e-15 C17.0309046,-3.55271368e-15 17.0030709,2.97730986e-05 16.9752527,-3.55271368e-15 L16.9752527,16.4800879 C17.0030709,16.4800422 17.0309048,16.4800879 17.0587544,16.4800879 Z"/>
      <path fill="#FFFFFF" fill-opacity=".25" d="M30.6703208,7.97635641 C30.6703208,11.6320415 24.5759561,14.8320585 17.0585673,14.8320585 C9.54120108,14.8320585 3.44676848,11.6320415 3.44676848,7.97635641 C3.44676848,4.32067135 9.54120108,1.64800194 17.0585673,1.64800194 C24.5759561,1.64800194 30.6703208,4.32067135 30.6703208,7.97635641 Z"/>
    </g>
    <g fill-rule="nonzero" transform="translate(26.226 76.829)">
      <path fill="#FCC62D" d="M36.9561561,13.5629912 C36.9561561,18.5483112 28.710318,22.9122594 18.5389211,22.9122594 C8.36759827,22.9122594 0.12160659,18.5483112 0.12160659,13.5629912 C0.12160659,11.9364165 0.121587489,8.70857025 0.121587489,8.70857025 C3.29352304,6.10443189 11.6862186,4.93289565 18.5389211,4.93289565 C26.9717675,4.93289565 36.9561561,8.70857025 36.9561561,8.70857025 L36.9561561,13.5629912 Z"/>
      <path fill="#E3B228" d="M36.9562795,13.5630161 L36.9562548,8.70857025 C36.9562548,8.70857025 28.2536555,5.41764043 20.2357909,4.98063792 L20.2420654,22.8715153 C29.6180476,22.4194206 36.9562795,18.2679343 36.9562795,13.5630161 Z"/>
      <path fill="#FFD949" d="M36.9565016,8.70871967 C36.9565016,13.6940397 28.7106635,18.0579878 18.539242,18.0579878 C8.36794376,18.0579878 0.121932978,13.6940397 0.121932978,8.70871967 C0.121932978,3.72339967 8.36794376,0.0786240862 18.539242,0.0786240862 C28.7106635,0.0786240862 36.9565016,3.72339967 36.9565016,8.70871967 Z"/>
      <path fill="#FCC62D" d="M20.2359143,18.0170943 C29.6118225,17.5649498 36.9562795,13.4134884 36.9562795,8.70857025 C36.9562795,4.00367698 29.6118225,0.49274913 20.2359143,0.112668788 L20.2359143,18.0170943 Z"/>
      <path fill="#FFFFFF" fill-opacity=".25" d="M33.3798995,8.78049497 C33.3798995,12.768756 26.7351321,16.2598945 18.5388224,16.2598945 C10.3425374,16.2598945 3.69769595,12.768756 3.69769595,8.78049497 C3.69769595,4.79223398 10.3425374,1.8764185 18.5388224,1.8764185 C26.7351321,1.8764185 33.3798995,4.79223398 33.3798995,8.78049497 Z"/>
    </g>
    <g fill-rule="nonzero" transform="translate(31.613 71.376)">
      <path fill="#FCC62D" d="M36.8345686,13.6483147 C36.8345686,18.6336347 28.5887305,22.9975828 18.4173336,22.9975828 C8.24601076,22.9975828 1.9096875e-05,18.6336347 1.9096875e-05,13.6483147 C1.9096875e-05,12.02174 2.06009932e-15,8.79389369 2.06009932e-15,8.79389369 C3.17193555,6.18975533 11.5646311,5.01821909 18.4173336,5.01821909 C26.85018,5.01821909 36.8345686,8.79389369 36.8345686,8.79389369 L36.8345686,13.6483147 Z"/>
      <path fill="#E3B228" d="M36.8345686,13.6483147 C36.8345686,18.6336347 28.5887305,22.9975828 18.4173336,22.9975828 C17.1988949,22.9975828 16.0080847,22.9349601 14.8557683,22.8161481 L14.8433586,5.11987883 C16.0569143,5.05168551 17.2591199,5.01821909 18.4173336,5.01821909 C26.85018,5.01821909 36.8345686,8.79389369 36.8345686,8.79389369 L36.8345686,13.6483147 Z"/>
      <path fill="#FFD949" d="M36.8345686,8.7939684 C36.8345686,13.7792884 28.5887305,18.1432365 18.417309,18.1432365 C8.24601076,18.1432365 0,13.7792884 0,8.7939684 C0,3.8086484 8.24601076,0.16387282 18.417309,0.16387282 C28.5887305,0.16387282 36.8345686,3.8086484 36.8345686,8.7939684 Z"/>
      <path fill="#FCC62D" d="M36.8345686,8.7939684 C36.8345686,13.7792884 28.5887305,18.1432365 18.417309,18.1432365 C17.2026066,18.1432365 16.0039743,18.080997 14.8549555,17.9628924 L14.8549555,0.31806286 C16.0116876,0.216606178 17.1938661,0.16387282 18.417309,0.16387282 C28.5887305,0.16387282 36.8345686,3.8086484 36.8345686,8.7939684 Z"/>
      <path fill="#FFFFFF" fill-opacity=".25" d="M33.2583121,8.86581841 C33.2583121,12.8540794 26.6135446,16.345218 18.4172349,16.345218 C10.2209499,16.345218 3.57610845,12.8540794 3.57610845,8.86581841 C3.57610845,4.87755742 10.2209499,1.96174195 18.4172349,1.96174195 C26.6135446,1.96174195 33.2583121,4.87755742 33.2583121,8.86581841 Z"/>
    </g>
    <g fill-rule="nonzero" transform="translate(27.124 64.561)">
      <path fill="#FCC62D" d="M37.016518,13.4844916 C37.016518,18.4698117 28.7706799,22.8337598 18.599283,22.8337598 C8.42796014,22.8337598 0.181968474,18.4698117 0.181968474,13.4844916 C0.181968474,11.8579169 0.181949373,8.63007066 0.181949373,8.63007066 C3.35388492,6.02593234 11.7465805,4.85439605 18.599283,4.85439605 C27.0321293,4.85439605 37.016518,8.63007066 37.016518,8.63007066 L37.016518,13.4844916 Z"/>
      <path fill="#E3B228" d="M19.3442137,22.8261211 C29.1742911,22.6218375 37.0166167,18.3489715 37.0166167,13.4844916 L37.016592,8.63007066 C37.016592,8.63007066 27.6100724,5.07073152 19.3442137,4.86378338 L19.3442137,22.8261211 Z"/>
      <path fill="#FFD949" d="M37.0166413,8.63009559 C37.0166413,13.6154156 28.7708033,17.9793637 18.5993817,17.9793637 C8.42808352,17.9793637 0.182072765,13.6154156 0.182072765,8.63009559 C0.182072765,3.64477558 8.42808352,0 18.5993817,0 C28.7708033,0 37.0166413,3.64477558 37.0166413,8.63009559 Z"/>
      <path fill="#FCC62D" d="M19.3442137,17.9715941 C29.1713538,17.7656226 37.0167154,13.4935401 37.0167154,8.63009559 C37.0167154,3.76539285 29.1648936,0.177151679 19.3341872,0.00636802873 L19.3442137,17.9715941 Z"/>
      <path fill="#FFFFFF" fill-opacity=".25" d="M33.4402614,8.70200537 C33.4402614,12.6902664 26.795494,16.1814049 18.5991843,16.1814049 C10.4028993,16.1814049 3.75805783,12.6902664 3.75805783,8.70200537 C3.75805783,4.71374438 10.4028993,1.7979289 18.5991843,1.7979289 C26.795494,1.7979289 33.4402614,4.71374438 33.4402614,8.70200537 Z"/>
    </g>
    <g fill-rule="nonzero" transform="translate(30.716 57.292)">
      <path fill="#FCC62D" d="M37.016518,13.4844916 C37.016518,18.4698117 28.7706799,22.8337598 18.599283,22.8337598 C8.42796014,22.8337598 0.181968474,18.4698117 0.181968474,13.4844916 C0.181968474,11.8579169 0.181949373,8.63007066 0.181949373,8.63007066 C3.35388492,6.02593234 11.7465805,4.85439605 18.599283,4.85439605 C27.0321293,4.85439605 37.016518,8.63007066 37.016518,8.63007066 L37.016518,13.4844916 Z"/>
      <path fill="#E3B228" d="M37.016518,13.4844916 C37.016518,18.4698117 28.7706799,22.8337598 18.599283,22.8337598 C17.6310183,22.8337598 16.6802013,22.7942129 15.7522847,22.7183476 L15.7525758,4.9192629 C16.7184853,4.87580339 17.6729542,4.85439605 18.599283,4.85439605 C27.0321293,4.85439605 37.016518,8.63007066 37.016518,8.63007066 L37.016518,13.4844916 Z"/>
      <path fill="#FFD949" d="M37.0166413,8.63009559 C37.0166413,13.6154156 28.7708033,17.9793637 18.5993817,17.9793637 C8.42808352,17.9793637 0.182072765,13.6154156 0.182072765,8.63009559 C0.182072765,3.64477558 8.42808352,0 18.5993817,0 C28.7708033,0 37.0166413,3.64477558 37.0166413,8.63009559 Z"/>
      <path fill="#FCC62D" d="M37.0166413,8.63009559 C37.0166413,13.6154156 28.7708033,17.9793637 18.5993817,17.9793637 C17.6310595,17.9793637 16.6801868,17.9398119 15.7522173,17.8639375 L15.7550206,0.0969195701 C16.6821018,0.0329672513 17.6320346,2.0539126e-15 18.5993817,2.0539126e-15 C28.7708033,2.0539126e-15 37.0166413,3.64477558 37.0166413,8.63009559 Z"/>
      <path fill="#FFFFFF" fill-opacity=".25" d="M33.4402614,8.70200537 C33.4402614,12.6902664 26.795494,16.1814049 18.5991843,16.1814049 C10.4028993,16.1814049 3.75805783,12.6902664 3.75805783,8.70200537 C3.75805783,4.71374438 10.4028993,1.7979289 18.5991843,1.7979289 C26.795494,1.7979289 33.4402614,4.71374438 33.4402614,8.70200537 Z"/>
    </g>
    <g fill-rule="nonzero" transform="translate(42 12)">
      <path fill="#FCC62D" d="M34.935426,20.1441823 C34.935426,24.5257907 27.479569,28.3612742 18.2826287,28.3612742 C9.08575535,28.3612742 1.62975946,24.5257907 1.62975946,20.1441823 C1.62975946,18.7145823 1.62974219,15.8776213 1.62974219,15.8776213 C4.49779485,13.5888385 12.0864399,12.5591728 18.2826287,12.5591728 C25.9075779,12.5591728 34.935426,15.8776213 34.935426,15.8776213 L34.935426,20.1441823 Z" transform="rotate(45 18.283 20.46)"/>
      <path fill="#E3B228" d="M15.8519451,34.2089738 C25.0488151,34.2089738 32.5048283,30.3734904 32.5048283,25.9918819 L32.504806,21.7253209 C32.504806,21.7253209 23.4769356,18.4068724 15.8519451,18.4068724 L15.7697162,18.4068724 L15.7697162,34.2089738 C15.7971104,34.20893 15.8245199,34.2089738 15.8519451,34.2089738 Z" transform="rotate(45 24.137 26.308)"/>
      <path fill="#FFD949" d="M37.9592199,17.1239974 C37.9592199,21.5056059 30.503363,25.3410892 21.3064003,25.3410892 C12.1095492,25.3410892 4.65353608,21.5056059 4.65353608,17.1239974 C4.65353608,12.7423889 12.1095492,9.53898788 21.3064003,9.53898788 C30.503363,9.53898788 37.9592199,12.7423889 37.9592199,17.1239974 Z" transform="rotate(45 21.306 17.44)"/>
      <path fill="#FCC62D" d="M18.8758182,31.1888203 C28.0726856,31.1888203 35.5286987,27.3533369 35.5286987,22.9717285 C35.5286987,18.59012 28.0726856,15.386719 18.8758182,15.386719 C18.8483622,15.386719 18.8209221,15.3867475 18.7934974,15.386719 L18.7934974,31.1888203 C18.8209221,31.1887765 18.8483624,31.1888203 18.8758182,31.1888203 Z" transform="rotate(45 27.161 23.288)"/>
      <path fill="#FFFFFF" fill-opacity=".25" d="M34.5870449,16.8274661 C34.5870449,20.3327572 28.5788702,23.4011264 21.1677966,23.4011264 C13.7567453,23.4011264 7.74850365,20.3327572 7.74850365,16.8274661 C7.74850365,13.322175 13.7567453,10.7594584 21.1677966,10.7594584 C28.5788702,10.7594584 34.5870449,13.322175 34.5870449,16.8274661 Z" transform="rotate(45 21.168 17.08)"/>
    </g>
  </g>
</svg>
