<svg width="132" height="132" viewBox="0 0 132 132" fill="none" xmlns="http://www.w3.org/2000/svg">
<rect width="112" height="112" fill="black" fill-opacity="0" transform="translate(10 10)"/>
<g filter="url(#filter0_f)">
<rect width="112" height="112" fill="black" fill-opacity="0" transform="translate(10 10)"/>
<path d="M122 66C122 35.0721 96.9279 10 66 10C35.0721 10 10 35.0721 10 66C10 96.9279 35.0721 122 66 122C96.9279 122 122 96.9279 122 66Z" fill="#2D0760"/>
</g>
<g opacity="0.3">
<rect width="95.0076" height="111.741" fill="black" fill-opacity="0" transform="translate(17.9955 10)"/>
<path d="M62.8984 101.491C85.963 101.491 104.661 82.7683 104.661 59.6727C104.661 36.5772 85.963 17.8546 62.8984 17.8546C39.8337 17.8546 21.1361 36.5772 21.1361 59.6727C21.1361 82.7683 39.8337 101.491 62.8984 101.491Z" fill="#179CFF"/>
<path d="M62.8984 101.491C85.963 101.491 104.661 82.7683 104.661 59.6727C104.661 36.5772 85.963 17.8546 62.8984 17.8546V101.491Z" fill="#158CE5"/>
<path d="M63.4428 72.5818C63.2618 72.5818 63.0802 72.5872 62.8983 72.5977C58.6995 72.8413 54.3263 75.869 53.4562 80.4C53.093 82.5818 56.5429 88.2182 57.2692 90.0364C58.3587 93.4909 58.3587 97.4909 56.9061 100.945C57.9955 101.127 58.9034 101.127 59.9929 101.309H62.8983H66.1664C76.8793 100.582 86.3213 95.8545 93.2211 88.5818C87.5923 87.3091 80.5108 85.3091 77.4241 83.6727C74.7004 82.4 66.348 72.5818 63.4428 72.5818Z" fill="#03F9D5"/>
<path d="M93.2211 88.5818C86.3213 95.8545 76.8794 100.582 66.1665 101.309H62.8984V72.5977C63.0803 72.5871 63.2619 72.5818 63.4429 72.5818C66.3481 72.5818 74.7005 82.4 77.4241 83.6727C80.5109 85.3091 87.5923 87.3091 93.2211 88.5818ZM66.3478 18.0364C66.3478 21.3091 66.1662 22.7636 67.0741 26.0364C67.9819 29.1273 75.0633 37.1273 77.0607 37.6727C79.2396 38.4 84.1421 37.1273 86.321 38.0364C88.4999 38.9455 83.9605 49.6727 81.7816 51.8545C78.8764 54.9455 82.8711 70.5818 86.5026 71.4909C89.5893 72.2182 92.8577 71.3091 95.9445 71.4909C97.9418 71.6727 100.121 73.1273 101.755 75.1273C103.571 70.4 104.66 65.1273 104.66 59.6727C104.66 37.6727 87.7736 19.6727 66.3478 18.0364Z" fill="#03E0C0"/>
<path d="M56.9064 47.6727C56.3617 45.6727 48.3724 39.3091 47.4645 39.1273C46.7382 38.9455 43.6514 42.2182 42.3804 43.3091C40.3831 44.9454 31.8491 41.3091 27.1281 38.4C23.315 44.4 21.1361 51.8545 21.1361 59.6727C21.1361 65.8545 22.5887 71.8545 24.9492 77.1273C30.0333 76.5818 37.4779 74.5818 37.1147 72.4C36.57 69.4909 35.6621 66.4 38.0226 63.8545C39.6568 62.2182 42.562 62.4 44.7409 62.4C46.3751 62.4 48.1908 62.0364 49.4618 61.1273C50.1881 60.5818 56.9064 51.4909 57.2695 50.7636C57.4511 49.8545 57.088 48.5818 56.9064 47.6727Z" fill="#03F9D5"/>
<path d="M102.829 42.8343C105.669 43.6642 107.555 45.015 108.22 46.8979C110.862 54.3791 93.225 67.4278 68.8277 76.0429C44.4303 84.658 22.5108 85.5773 19.869 78.0961C19.218 76.2525 19.7985 74.0708 21.4082 71.7006" stroke="white" stroke-width="1.74" stroke-dasharray="3.77 3.77"/>
<path d="M93.2637 28.5599C96.1388 27.8191 98.4586 28.0168 99.9981 29.3C106.114 34.3981 97.5949 54.7006 80.9692 74.6469C64.3433 94.5934 45.9072 106.63 39.7909 101.532C38.2836 100.276 37.6652 98.0961 37.8379 95.226" stroke="white" stroke-width="1.74" stroke-dasharray="3.77 3.77"/>
<rect width="40.727" height="34.6331" fill="black" fill-opacity="0" transform="translate(35.404 87.1079)"/>
<path d="M76.131 112.452V89.139C76.131 88.0179 75.2221 87.109 74.101 87.109H37.434C36.3128 87.109 35.404 88.0179 35.404 89.139V112.452C35.404 113.573 36.3128 114.482 37.434 114.482H74.101C75.2221 114.482 76.131 113.573 76.131 112.452Z" fill="white"/>
<path d="M74.0814 87.1079C75.2061 87.1079 76.1178 88.0184 76.1178 89.1415V112.448C76.1178 113.571 75.2061 114.481 74.0814 114.481H55.7541V87.1079H74.0814Z" fill="#F2F2F2"/>
<path d="M74.585 112.932V88.657H36.951V112.932H74.585Z" fill="#03F9D5"/>
<path d="M74.572 112.933V88.658H55.755V112.933H74.572Z" fill="#03E0C0"/>
<path d="M60.53 120.189H51.005L52.195 114.5H59.339L60.53 120.189Z" fill="#F2F2F2"/>
<path d="M60.53 120.189L59.339 114.5H55.767V120.189H60.53Z" fill="#E6E6E6"/>
<path d="M62.203 120.189H49.332V121.741H62.203V120.189Z" fill="white"/>
<path d="M62.203 120.189H55.767V121.741H62.203V120.189Z" fill="#F2F2F2"/>
<rect width="16.5302" height="31.3873" fill="black" fill-opacity="0" transform="translate(79.659 10)"/>
<path d="M92.129 10H83.719C81.4767 10 79.659 11.8177 79.659 14.06V37.327C79.659 39.5693 81.4767 41.387 83.719 41.387H92.129C94.3713 41.387 96.189 39.5693 96.189 37.327V14.06C96.189 11.8177 94.3713 10 92.129 10Z" fill="white"/>
<path d="M87.8167 10H92.122C94.3683 10 96.1892 11.8234 96.1892 14.0727V37.3147C96.1892 39.5639 94.3683 41.3873 92.122 41.3873H87.8167V10Z" fill="#F2F2F2"/>
<path d="M94.794 12.795H81.054V35.906H94.794V12.795Z" fill="#03F9D5"/>
<path d="M94.687 12.795H87.817V35.906H94.687V12.795Z" fill="#03E0C0"/>
<path d="M87.87 39.99C88.6112 39.99 89.212 39.3883 89.212 38.646C89.212 37.9037 88.6112 37.302 87.87 37.302C87.1288 37.302 86.528 37.9037 86.528 38.646C86.528 39.3883 87.1288 39.99 87.87 39.99Z" fill="#C4C4C4"/>
<path d="M89.2122 38.6465C89.2122 39.3885 88.6114 39.9901 87.8704 39.9901C87.8704 39.9901 87.8704 39.3885 87.8704 38.6465C87.8704 37.9044 87.8704 37.3028 87.8704 37.3028C88.6114 37.3028 89.2122 37.9044 89.2122 38.6465Z" fill="#B0B0B0"/>
</g>
<defs>
<filter id="filter0_f" x="0" y="0" width="132" height="132" filterUnits="userSpaceOnUse" color-interpolation-filters="sRGB">
<feFlood flood-opacity="0" result="BackgroundImageFix"/>
<feBlend mode="normal" in="SourceGraphic" in2="BackgroundImageFix" result="shape"/>
<feGaussianBlur stdDeviation="5" result="effect1_foregroundBlur"/>
</filter>
</defs>
</svg>
