<svg xmlns="http://www.w3.org/2000/svg" width="156" height="192" viewBox="0 0 156 192">
  <g fill="none" fill-rule="evenodd" opacity=".15" transform="translate(-2)">
    <path fill="#8F81B7" fill-rule="nonzero" d="M78.0361428,156.841558 C117.61025,156.841558 149.691342,124.745642 149.691342,85.1532468 C149.691342,45.5609018 117.61025,13.4649351 78.0361428,13.4649351 C38.4620856,13.4649351 6.38094404,45.5609018 6.38094404,85.1532468 C6.38094404,124.745642 38.4620856,156.841558 78.0361428,156.841558 Z"/>
    <path fill="#8274AB" fill-rule="nonzero" d="M78.0361927,156.841558 C117.61025,156.841558 149.691391,124.745642 149.691391,85.1532468 C149.691391,45.5609018 117.61025,13.4649351 78.0361927,13.4649351 L78.0361927,156.841558 Z"/>
    <path fill="#B8ACDE" fill-rule="nonzero" d="M78.9702774,107.283117 C78.6597798,107.283117 78.3481856,107.292254 78.036093,107.31035 C70.8317422,107.728022 63.3283637,112.918342 61.8353273,120.685714 C61.2122399,124.425974 67.1315924,134.088312 68.3777697,137.205195 C70.2470358,143.127273 70.2470358,149.984416 67.754681,155.906494 C69.6239471,156.218182 71.1816688,156.218182 73.0509349,156.52987 L78.036093,156.52987 L83.6434425,156.52987 C102.024559,155.283117 118.224914,147.179221 130.063599,134.711688 C120.405725,132.52987 108.255446,129.101299 102.959192,126.296104 C98.2860266,124.114286 83.9549869,107.283117 78.9702774,107.283117 Z"/>
    <path fill="#A89CCF" fill-rule="nonzero" d="M130.063599 134.711688C118.224964 147.179221 102.024658 155.283117 83.6435422 156.52987L78.0361927 156.52987 78.0361927 107.31035C78.3483202 107.292254 78.6598845 107.283117 78.9703771 107.283117 83.9550865 107.283117 98.2861263 124.114286 102.959291 126.296104 108.255545 129.101299 120.405775 132.52987 130.063599 134.711688zM83.9545498 13.7766234C83.9545498 19.387013 83.6429984 21.8805195 85.2007206 27.4909091 86.7584423 32.7896104 98.9086667 46.5038961 102.335654 47.438961 106.074187 48.6857143 114.485884 46.5038961 118.224416 48.0623377 121.962948 49.6207792 114.174339 68.0103896 110.435807 71.7506494 105.451098 77.0493506 112.305073 103.854545 118.53596 105.412987 123.832214 106.65974 129.440012 105.101299 134.736266 105.412987 138.163254 105.724675 141.901786 108.218182 144.705685 111.646753 147.821128 103.542857 149.690394 94.5038961 149.690394 85.1532468 149.690394 47.438961 120.716771 16.5818182 83.9545498 13.7766234z"/>
    <path fill="#B8ACDE" fill-rule="nonzero" d="M67.7551795,64.5818182 C66.8205465,61.1532468 53.1125954,50.2441608 51.5548737,49.9324725 C50.3086963,49.6207842 45.0124425,55.2311688 42.8316321,57.1012987 C39.4046443,59.9064935 24.7620602,53.6727273 16.6619073,48.6857143 C10.1194761,58.9714286 6.38094404,71.7506494 6.38094404,85.1532468 C6.38094404,95.7506494 8.87329878,106.036364 12.9233752,115.075325 C21.6466168,114.14026 34.4199349,110.711688 33.7968462,106.971429 C32.8622131,101.984416 31.3044914,96.6857143 35.3545679,92.3220779 C38.158467,89.5168831 43.1431765,89.8285714 46.8817086,89.8285714 C49.6856076,89.8285714 52.8010511,89.2051948 54.9818615,87.6467532 C56.2280388,86.7116883 67.7551795,71.1272727 68.3782682,69.8805195 C68.6898125,68.3220779 68.0667239,66.1402597 67.7551795,64.5818182 Z"/>
    <path stroke="#FFFFFF" stroke-dasharray="6.48" stroke-width="2.991" d="M156.481361,79.9213668 C160.601224,82.8836425 162.88123,86.1438125 162.88123,89.5670977 C162.88123,103.168078 126.892624,114.193816 82.4988018,114.193816 C38.1048296,114.193816 2.11637365,103.168078 2.11637365,89.5670977 C2.11637365,86.2153761 4.30193447,83.0200373 8.26027732,80.1075554" transform="rotate(-19.449 82.499 97.058)"/>
    <path stroke="#FFFFFF" stroke-dasharray="6.48" stroke-width="2.991" d="M170.068379,82.6144276 C174.203196,85.5873506 176.491177,88.8592151 176.491177,92.2948681 C176.491177,105.944672 140.373468,117.010056 95.8201343,117.010056 C51.2664022,117.010056 15.1485931,105.944672 15.1485931,92.2948681 C15.1485931,88.931078 17.3420098,85.7242342 21.314579,82.8012855" transform="rotate(-50.188 95.82 99.812)"/>
    <g fill-rule="nonzero" transform="translate(30.908 132.156)">
      <rect width="46.967" height="69.818" x="11.409" y="-11.415" fill="#FFFFFF" rx="3.489" transform="rotate(90 34.893 23.494)"/>
      <path fill="#F2F2F2" d="M28.8559349,9.53073039 C28.8559349,7.60275616 30.4181478,6.0398213 32.3452315,6.0398213 L72.3336676,6.0398213 C74.2607563,6.0398213 75.8229642,7.60275616 75.8229642,9.53073039 L75.8229642,40.9489122 L28.8559349,40.9489122 L28.8559349,9.53073039 Z" transform="rotate(90 52.34 23.494)"/>
      <rect width="41.65" height="64.515" x="14.068" y="-8.764" fill="#B8ACDE" transform="rotate(90 34.893 23.494)"/>
      <rect width="41.65" height="32.258" x="30.19" y="7.365" fill="#A89CCF" transform="rotate(90 51.015 23.494)"/>
      <polygon fill="#F2F2F2" points="43.064 56.741 26.722 56.741 28.764 46.989 41.021 46.989"/>
      <polygon fill="#E6E6E6" points="43.064 56.741 41.021 46.989 34.893 46.989 34.893 56.741"/>
      <rect width="22.084" height="2.66" x="23.851" y="56.741" fill="#FFFFFF"/>
      <rect width="11.042" height="2.66" x="34.893" y="56.741" fill="#F2F2F2"/>
    </g>
    <g fill-rule="nonzero" transform="translate(106.676)">
      <rect width="28.363" height="53.807" x=".118" fill="#FFFFFF" rx="6.979"/>
      <path fill="#F2F2F2" d="M14.1152018,0 L21.5021924,0 C25.3563697,0 28.4807856,3.12586473 28.4807856,6.98181818 L28.4807856,46.8252592 C28.4807856,50.6810182 25.3563697,53.8068779 21.5021924,53.8068779 L14.1152018,53.8068779 L14.1152018,0 Z"/>
      <rect width="23.574" height="39.618" x="2.512" y="4.791" fill="#B8ACDE"/>
      <rect width="11.787" height="39.618" x="14.115" y="4.791" fill="#A89CCF"/>
      <ellipse cx="14.207" cy="49.108" fill="#B8ACDE" rx="2.302" ry="2.303"/>
      <path fill="#B0B0B0" d="M16.5095971,49.1081991 C16.5095971,50.3803212 15.4788788,51.4115857 14.207419,51.4115857 C14.207419,51.4115857 14.207419,50.3803212 14.207419,49.1081991 C14.207419,47.8360719 14.207419,46.8048125 14.207419,46.8048125 C15.4788788,46.8048125 16.5095971,47.8360719 16.5095971,49.1081991 Z"/>
    </g>
  </g>
</svg>
