<svg xmlns="http://www.w3.org/2000/svg" width="207" height="256" viewBox="0 0 207 256">
  <g fill="none" fill-rule="evenodd" transform="translate(-3)">
    <path fill="#179CFF" fill-rule="nonzero" d="M103.557319,209.122078 C156.241866,209.122078 198.95105,166.327522 198.95105,113.537662 C198.95105,60.7478691 156.241866,17.9532468 103.557319,17.9532468 C50.8728379,17.9532468 8.16358807,60.7478691 8.16358807,113.537662 C8.16358807,166.327522 50.8728379,209.122078 103.557319,209.122078 Z"/>
    <path fill="#158CE5" fill-rule="nonzero" d="M103.557385,209.122078 C156.241866,209.122078 198.951116,166.327522 198.951116,113.537662 C198.951116,60.7478691 156.241866,17.9532468 103.557385,17.9532468 L103.557385,209.122078 Z"/>
    <path fill="#03F9D5" fill-rule="nonzero" d="M104.800921,143.044156 C104.38756,143.044156 103.972738,143.056339 103.557253,143.080466 C93.9661844,143.637362 83.9770241,150.557789 81.9893621,160.914286 C81.1598531,165.901299 89.040218,178.784416 90.6992394,182.94026 C93.1877716,190.836364 93.1877716,199.979221 89.8697287,207.875325 C92.3582609,208.290909 94.4320376,208.290909 96.9205697,208.706494 L103.557253,208.706494 L111.022252,208.706494 C135.492817,207.044156 157.060162,196.238961 172.820865,179.615584 C159.96345,176.706494 143.787924,172.135065 136.737083,168.394805 C130.515753,165.485714 111.437007,143.044156 104.800921,143.044156 Z"/>
    <path fill="#03E0C0" fill-rule="nonzero" d="M172.820865 179.615584C157.060228 196.238961 135.49295 207.044156 111.022384 208.706494L103.557385 208.706494 103.557385 143.080466C103.972917 143.056339 104.387699 143.044156 104.801054 143.044156 111.43714 143.044156 130.515886 165.485714 136.737216 168.394805 143.788057 172.135065 159.963516 176.706494 172.820865 179.615584zM111.436425 18.3688312C111.436425 25.8493506 111.02166 29.174026 113.095438 36.6545455 115.169215 43.7194805 131.344667 62.0051948 135.906976 63.2519481 140.88404 64.9142857 152.082434 62.0051948 157.059498 64.0831169 162.036563 66.161039 151.667679 90.6805195 146.690615 95.6675325 140.054529 102.732468 149.179147 138.472727 157.474254 140.550649 164.525095 142.212987 171.990691 140.135065 179.041532 140.550649 183.603841 140.966234 188.580905 144.290909 192.313703 148.862338 196.461257 138.057143 198.949789 126.005195 198.949789 113.537662 198.949789 63.2519481 160.377541 22.1090909 111.436425 18.3688312z"/>
    <path fill="#03F9D5" fill-rule="nonzero" d="M89.8703924,86.1090909 C88.6261263,81.5376623 70.3768908,66.9922144 68.3031141,66.57663 C66.6440927,66.1610456 59.5932517,73.6415584 56.6899642,76.1350649 C52.1276554,79.8753247 32.6341538,71.5636364 21.8505147,64.9142857 C13.1406523,78.6285714 8.16358807,95.6675325 8.16358807,113.537662 C8.16358807,127.667532 11.4816309,141.381818 16.8734505,153.433766 C28.4866003,152.187013 45.4915697,147.615584 44.662059,142.628571 C43.417793,135.979221 41.3440162,128.914286 46.7358358,123.096104 C50.4686339,119.355844 57.1047196,119.771429 62.0817838,119.771429 C65.814582,119.771429 69.9621355,118.94026 72.8654229,116.862338 C74.5244443,115.615584 89.8703924,94.8363636 90.6999031,93.174026 C91.1146584,91.0961039 90.2851477,88.187013 89.8703924,86.1090909 Z"/>
    <path stroke="#FFFFFF" stroke-dasharray="8.644" stroke-width="3.99" d="M207.990524,106.561822 C213.475249,110.511523 216.510594,114.858417 216.510594,119.422797 C216.510594,137.557438 168.599383,152.258421 109.498405,152.258421 C50.3972272,152.258421 2.48621523,137.557438 2.48621523,119.422797 C2.48621523,114.953835 5.39582688,110.693383 10.6655226,106.810074" transform="rotate(-19.449 109.498 129.41)"/>
    <path stroke="#FFFFFF" stroke-dasharray="8.644" stroke-width="3.99" d="M226.078762,110.15257 C231.583395,114.116467 234.629359,118.478954 234.629359,123.059824 C234.629359,141.259562 186.546273,156.013408 127.23294,156.013408 C67.9190754,156.013408 19.835857,141.259562 19.835857,123.059824 C19.835857,118.574771 22.7559271,114.298979 28.0445622,110.401714" transform="rotate(-50.188 127.233 133.083)"/>
    <g fill-rule="nonzero" transform="translate(40.817 176.208)">
      <rect width="62.527" height="93.091" x="15.189" y="-15.22" fill="#FFFFFF" rx="4.655" transform="rotate(90 46.453 31.326)"/>
      <path fill="#F2F2F2" d="M38.4155697,12.7076405 C38.4155697,10.1370082 40.4953256,8.05309506 43.0608297,8.05309506 L96.2969685,8.05309506 C98.8624792,8.05309506 100.942228,10.1370082 100.942228,12.7076405 L100.942228,54.5985496 L38.4155697,54.5985496 L38.4155697,12.7076405 Z" transform="rotate(90 69.679 31.326)"/>
      <rect width="55.448" height="86.021" x="18.729" y="-11.685" fill="#03F9D5" transform="rotate(90 46.453 31.326)"/>
      <rect width="55.448" height="43.01" x="40.191" y="9.82" fill="#03E0C0" transform="rotate(90 67.915 31.326)"/>
      <polygon fill="#F2F2F2" points="57.33 75.655 35.574 75.655 38.294 62.652 54.611 62.652"/>
      <polygon fill="#E6E6E6" points="57.331 75.655 54.611 62.652 46.453 62.652 46.453 75.655"/>
      <rect width="29.4" height="3.546" x="31.752" y="75.655" fill="#FFFFFF"/>
      <rect width="14.7" height="3.546" x="46.453" y="75.655" fill="#F2F2F2"/>
    </g>
    <g fill-rule="nonzero" transform="translate(141.685)">
      <rect width="37.759" height="71.743" x=".157" fill="#FFFFFF" rx="9.309"/>
      <path fill="#F2F2F2" d="M18.7914037,0 L28.625618,0 C33.7566394,0 37.9161379,4.16781964 37.9161379,9.30909091 L37.9161379,62.433679 C37.9161379,67.5746909 33.7566394,71.7425039 28.625618,71.7425039 L18.7914037,71.7425039 L18.7914037,0 Z"/>
      <rect width="31.384" height="52.824" x="3.345" y="6.388" fill="#03F9D5"/>
      <rect width="15.692" height="52.824" x="18.791" y="6.388" fill="#03E0C0"/>
      <ellipse cx="18.914" cy="65.478" fill="#C4C4C4" rx="3.065" ry="3.071"/>
      <path fill="#B0B0B0" d="M21.9790341,65.4775988 C21.9790341,67.1737617 20.6068509,68.5487809 18.9141713,68.5487809 C18.9141713,68.5487809 18.9141713,67.1737617 18.9141713,65.4775988 C18.9141713,63.7814292 18.9141713,62.4064166 18.9141713,62.4064166 C20.6068509,62.4064166 21.9790341,63.7814292 21.9790341,65.4775988 Z"/>
    </g>
  </g>
</svg>
