<svg xmlns="http://www.w3.org/2000/svg" width="187" height="239" viewBox="0 0 187 239">
  <g fill="none" fill-rule="evenodd" opacity=".15" transform="translate(-6 3)">
    <rect width="105.6" height="200.375" x="44.886" y="17.155" fill="#FFFFFF" fill-rule="nonzero" rx="9.6"/>
    <path fill="#F5F2FF" fill-rule="nonzero" d="M97,17.1554252 L140.885714,17.1554252 C146.187657,17.1554252 150.485714,21.4566403 150.485714,26.7624633 L150.485714,207.923754 C150.485714,213.229584 146.187657,217.530792 140.885714,217.530792 L97,217.530792 L97,17.1554252 Z"/>
    <rect width="87.771" height="147.537" x="53.8" y="34.997" fill="#443672" fill-rule="nonzero"/>
    <rect width="43.886" height="147.537" x="97" y="34.997" fill="#382966" fill-rule="nonzero"/>
    <ellipse cx="97.343" cy="200.032" fill="#CFC3F4" fill-rule="nonzero" rx="8.571" ry="8.578"/>
    <path fill="#BDB0E3" fill-rule="nonzero" d="M105.914286,200.032258 C105.914286,204.769626 102.076734,208.609971 97.3428571,208.609971 C97.3428571,208.609971 97.3428571,204.769626 97.3428571,200.032258 C97.3428571,195.294918 97.3428571,191.454545 97.3428571,191.454545 C102.076734,191.454545 105.914286,195.294918 105.914286,200.032258 Z"/>
    <rect width="139.886" height="31.566" x="53.114" y="48.721" fill="#7A6CA3" fill-rule="nonzero"/>
    <rect width="96" height="31.566" x="97" y="48.721" fill="#6F6199" fill-rule="nonzero"/>
    <rect width="87.771" height="6.862" x="91.514" y="61.073" fill="#FFFFFF" fill-rule="nonzero"/>
    <rect width="82.286" height="6.862" x="97" y="61.073" fill="#F2F2F2" fill-rule="nonzero"/>
    <g fill-rule="nonzero" transform="translate(14.029 20.587)">
      <ellipse cx="29.055" cy="64.064" fill="#DED3FC" rx="7.937" ry="7.948" transform="rotate(26 29.055 64.064)"/>
      <path fill="#D0C4F5" d="M28.9488337,73.8969218 C33.3322452,73.8969218 36.8857023,70.3383403 36.8857023,65.9486075 C36.8857023,61.5588747 33.3322452,58.0002931 28.9488337,58.0002931 L28.9488337,73.8969218 Z" transform="rotate(26 32.917 65.949)"/>
      <ellipse cx="55.601" cy="9.985" fill="#D0C4F5" rx="4.513" ry="4.539" transform="rotate(26 55.6 9.985)"/>
      <path fill="#C6CAFB" d="M55.5150794,15.5836852 C58.0077674,15.5836852 60.028492,13.5513163 60.028492,11.0443185 C60.028492,8.53730015 58.0077674,6.50496555 55.5150794,6.50496555 L55.5150794,15.5836852 Z" transform="rotate(26 57.772 11.044)"/>
      <path fill="#DED3FC" d="M20.9208914,33.38884 L20.9208914,52.326508 L70.1453029,52.326508 L70.1453029,33.38884 C70.1453029,19.7178189 59.1260114,8.63520832 45.5330971,8.63520832 C31.9401143,8.63520832 20.9208914,19.7178189 20.9208914,33.38884 Z" transform="rotate(26 45.533 30.48)"/>
      <path fill="#D0C4F5" d="M69.1058114,38.8880311 C69.1058114,25.2170099 58.0865199,14.1343994 44.4936057,14.1343994 L44.4936057,57.8256991 L69.1058114,57.8256991 L69.1058114,38.8880311 Z" transform="rotate(26 56.8 35.98)"/>
      <rect width="64.457" height="15.604" x=".444" y="49.388" fill="#D0C4F5" rx="7.796" transform="rotate(26 32.673 57.19)"/>
      <path fill="#BFB2E4" d="M55.553303,56.4958162 L31.1210287,56.4958162 L31.1210287,72.099842 L55.553303,72.099842 C59.8591087,72.099842 63.3496001,68.6067915 63.3496001,64.2978291 C63.3496001,59.9888941 59.8591087,56.4958162 55.553303,56.4958162 Z" transform="rotate(26 47.235 64.298)"/>
    </g>
    <path stroke="#FFFFFF" stroke-dasharray="8.914" stroke-width="4.114" d="M147.057143,19.5571848 C147.057143,8.75606041 155.806789,0 166.6,0" transform="rotate(90 156.829 9.779)"/>
    <path stroke="#FFFFFF" stroke-dasharray="8.914" stroke-width="4.114" d="M28.4064914,233.634933 C28.4064914,222.833808 37.1561371,214.077748 47.9493486,214.077748" transform="rotate(-90 38.178 223.856)"/>
    <path stroke="#E0E2FD" stroke-dasharray="8.914" stroke-width="4.114" d="M4.57659109,73.9164566 C4.57659109,63.1153323 13.3262368,54.3592719 24.1194482,54.3592719" transform="rotate(-30 14.348 64.138)"/>
  </g>
</svg>
