<svg width="128" height="128" viewBox="0 0 128 128" fill="none" xmlns="http://www.w3.org/2000/svg">
<rect width="112" height="112" fill="black" fill-opacity="0" transform="translate(8 8)"/>
<g filter="url(#filter0_f)">
<rect width="112" height="112" fill="black" fill-opacity="0" transform="translate(8 8)"/>
<path d="M120 64C120 33.0721 94.9279 8 64 8C33.0721 8 8 33.0721 8 64C8 94.9279 33.0721 120 64 120C94.9279 120 120 94.9279 120 64Z" fill="#2D0760"/>
</g>
<g opacity="0.3" filter="url(#filter1_d)">
<rect width="91.5712" height="111.149" fill="black" fill-opacity="0" transform="translate(19.0048 8.6864)"/>
<path d="M85.72 16.856H44.508C41.9802 16.856 39.931 18.9052 39.931 21.433V107.589C39.931 110.117 41.9802 112.166 44.508 112.166H85.72C88.2478 112.166 90.297 110.117 90.297 107.589V21.433C90.297 18.9052 88.2478 16.856 85.72 16.856Z" fill="white"/>
<path d="M64.7875 16.8558H85.7189C88.2477 16.8558 90.2977 18.9017 90.2977 21.4255V107.597C90.2977 110.12 88.2477 112.166 85.7189 112.166H64.7875V16.8558Z" fill="#F2F2F2"/>
<path d="M86.046 25.342H44.183V95.519H86.046V25.342Z" fill="#50189B"/>
<path d="M85.719 25.342H64.788V95.519H85.719V25.342Z" fill="#40137C"/>
<path d="M64.951 107.923C67.2087 107.923 69.039 106.096 69.039 103.843C69.039 101.59 67.2087 99.763 64.951 99.763C62.6933 99.763 60.863 101.59 60.863 103.843C60.863 106.096 62.6933 107.923 64.951 107.923Z" fill="#C4C4C4"/>
<path d="M69.0392 103.843C69.0392 106.096 67.2089 107.923 64.951 107.923C64.951 107.923 64.951 106.096 64.951 103.843C64.951 101.59 64.951 99.7628 64.951 99.7628C67.2089 99.7628 69.0392 101.59 69.0392 103.843Z" fill="#B0B0B0"/>
<path d="M110.575 31.87H43.856V46.885H110.575V31.87Z" fill="#DB3069"/>
<path d="M110.576 31.87H64.788V46.885H110.576V31.87Z" fill="#C52B5F"/>
<path d="M104.034 37.746H62.171V41.01H104.034V37.746Z" fill="white"/>
<path d="M104.034 37.746H65.115V41.01H104.034V37.746Z" fill="#F2F2F2"/>
<path d="M37.4145 52.3583C39.2939 53.2749 41.5594 52.4965 42.4748 50.6197C43.3902 48.7428 42.6088 46.4783 40.7295 45.5617C38.8501 44.645 36.5846 45.4235 35.6692 47.3003C34.7538 49.1772 35.5352 51.4417 37.4145 52.3583Z" fill="#FFD949"/>
<path d="M37.5559 52.4255C39.4349 53.342 41.7003 52.5636 42.6156 50.6869C43.5309 48.8102 42.7496 46.5459 40.8705 45.6294L37.5559 52.4255Z" fill="#FCC62D"/>
<path d="M50.787 25.1776C51.8557 25.6988 53.1458 25.2526 53.6685 24.1809C54.1913 23.1092 53.7486 21.8178 52.6799 21.2966C51.6112 20.7753 50.321 21.2216 49.7983 22.2933C49.2756 23.365 49.7183 24.6563 50.787 25.1776Z" fill="#FCC62D"/>
<path d="M50.8543 25.2103C51.9229 25.7315 53.2129 25.2851 53.7357 24.2133C54.2584 23.1415 53.8159 21.8502 52.7474 21.329L50.8543 25.2103Z" fill="#E4AF18"/>
<path d="M35.7742 29.0839L31.8254 37.1801L52.927 47.4721L56.8758 39.3758C59.7264 33.5312 57.3136 26.4892 51.4865 23.6472C45.6594 20.8051 38.6248 23.2392 35.7742 29.0839Z" fill="#FFD949"/>
<path d="M56.9737 39.4188C59.8243 33.5741 57.4114 26.5322 51.5844 23.6901L42.474 42.369L53.0249 47.515L56.9737 39.4188Z" fill="#FCC62D"/>
<path d="M52.9046 47.4674L31.9439 37.2442C30.1017 36.3457 27.8801 37.1107 26.9816 38.9528C26.0832 40.7949 26.8482 43.0166 28.6903 43.915L49.651 54.1383C51.4931 55.0367 53.7148 54.2717 54.6133 52.4296C55.5117 50.5875 54.7467 48.3659 52.9046 47.4674Z" fill="#FCC62D"/>
<path d="M52.9357 47.4755L42.462 42.3672L39.2083 49.0382L49.682 54.1466C51.5278 55.0468 53.7525 54.2833 54.651 52.4411C55.5495 50.599 54.7815 48.3758 52.9357 47.4755Z" fill="#E3B228"/>
<path d="M88.6718 8.6864C93.8095 8.6864 97.9744 12.8596 97.9744 18.0074" stroke="white" stroke-width="1.962" stroke-dasharray="4.25 4.25"/>
<path d="M41.3834 119.835C36.2457 119.835 32.0808 115.662 32.0808 110.514" stroke="white" stroke-width="1.962" stroke-dasharray="4.25 4.25"/>
<path d="M23.6561 45.5616C21.0872 41.1122 22.6189 35.4187 27.077 32.8448" stroke="#FFE377" stroke-width="1.962" stroke-dasharray="4.25 4.25"/>
</g>
<defs>
<filter id="filter0_f" x="0.974" y="0.974" width="126.052" height="126.052" filterUnits="userSpaceOnUse" color-interpolation-filters="sRGB">
<feFlood flood-opacity="0" result="BackgroundImageFix"/>
<feBlend mode="normal" in="SourceGraphic" in2="BackgroundImageFix" result="shape"/>
<feGaussianBlur stdDeviation="3.513" result="effect1_foregroundBlur"/>
</filter>
<filter id="filter1_d" x="18.4529" y="5.7054" width="95.1231" height="119.111" filterUnits="userSpaceOnUse" color-interpolation-filters="sRGB">
<feFlood flood-opacity="0" result="BackgroundImageFix"/>
<feColorMatrix in="SourceAlpha" type="matrix" values="0 0 0 0 0 0 0 0 0 0 0 0 0 0 0 0 0 0 127 0"/>
<feOffset dy="1"/>
<feGaussianBlur stdDeviation="1.5"/>
<feColorMatrix type="matrix" values="0 0 0 0 0.564706 0 0 0 0 0.564706 0 0 0 0 0.811765 0 0 0 1 0"/>
<feBlend mode="normal" in2="BackgroundImageFix" result="effect1_dropShadow"/>
<feBlend mode="normal" in="SourceGraphic" in2="effect1_dropShadow" result="shape"/>
</filter>
</defs>
</svg>
