<svg xmlns="http://www.w3.org/2000/svg" width="205" height="261" viewBox="0 0 205 261">
  <g fill="none" fill-rule="evenodd" transform="translate(-6 3)">
    <rect width="115.5" height="219.214" x="49" y="18.768" fill="#FFFFFF" fill-rule="nonzero" rx="10.51"/>
    <path fill="#F2F2F2" fill-rule="nonzero" d="M106,18.7683284 L154,18.7683284 C159.799,18.7683284 164.5,23.4739313 164.5,29.2785924 L164.5,227.472141 C164.5,233.276809 159.799,237.982405 154,237.982405 L106,237.982405 L106,18.7683284 Z"/>
    <rect width="96" height="161.408" x="58.75" y="38.287" fill="#03F9D5" fill-rule="nonzero"/>
    <rect width="48" height="161.408" x="106" y="38.287" fill="#03E0C0" fill-rule="nonzero"/>
    <ellipse cx="106.375" cy="218.839" fill="#C4C4C4" fill-rule="nonzero" rx="9.375" ry="9.384"/>
    <path fill="#B0B0B0" fill-rule="nonzero" d="M115.75,218.83871 C115.75,224.021471 111.552678,228.222874 106.375,228.222874 C106.375,228.222874 106.375,224.021471 106.375,218.83871 C106.375,213.655978 106.375,209.454545 106.375,209.454545 C111.552678,209.454545 115.75,213.655978 115.75,218.83871 Z"/>
    <rect width="153" height="34.534" x="58" y="53.302" fill="#DB3069" fill-rule="nonzero"/>
    <rect width="105" height="34.534" x="106" y="53.302" fill="#C52B5F" fill-rule="nonzero"/>
    <rect width="96" height="7.507" x="100" y="66.815" fill="#FFFFFF" fill-rule="nonzero"/>
    <rect width="90" height="7.507" x="106" y="66.815" fill="#F2F2F2" fill-rule="nonzero"/>
    <g fill-rule="nonzero" transform="translate(15.25 22.522)">
      <ellipse cx="31.779" cy="70.087" fill="#FFD949" rx="8.681" ry="8.696" transform="rotate(26 31.779 70.087)"/>
      <path fill="#FCC62D" d="M31.6627868,80.8444957 C36.4571431,80.8444957 40.3437368,76.9513466 40.3437368,72.1489039 C40.3437368,67.3464612 36.4571431,63.4533121 31.6627868,63.4533121 L31.6627868,80.8444957 Z" transform="rotate(26 36.003 72.149)"/>
      <ellipse cx="60.813" cy="10.923" fill="#FCC62D" rx="4.937" ry="4.966" transform="rotate(26 60.813 10.923)"/>
      <path fill="#E4AF18" d="M60.7196181,17.048818 C63.4459956,17.048818 65.6561631,14.8253717 65.6561631,12.0826732 C65.6561631,9.3399523 63.4459956,7.1165435 60.7196181,7.1165435 L60.7196181,17.048818 Z" transform="rotate(26 63.188 12.083)"/>
      <path fill="#FFD949" d="M22.882225,36.5279617 L22.882225,57.2460943 L76.721425,57.2460943 L76.721425,36.5279617 C76.721425,21.5716309 64.669075,9.44706551 49.801825,9.44706551 C34.9345,9.44706551 22.882225,21.5716309 22.882225,36.5279617 Z" transform="rotate(26 49.802 33.347)"/>
      <path fill="#FCC62D" d="M75.5844812,42.5441707 C75.5844812,27.5878399 63.5321312,15.4632745 48.6648812,15.4632745 L48.6648812,63.2623033 L75.5844812,63.2623033 L75.5844812,42.5441707 Z" transform="rotate(26 62.125 39.363)"/>
      <rect width="70.5" height="17.071" x=".486" y="54.031" fill="#FCC62D" rx="8.536" transform="rotate(26 35.736 62.567)"/>
      <path fill="#E3B228" d="M60.7614251,61.8073886 L34.0386251,61.8073886 L34.0386251,78.8784596 L60.7614251,78.8784596 C65.4709001,78.8784596 69.2886251,75.0570027 69.2886251,70.3429241 C69.2886251,65.6288755 65.4709001,61.8073886 60.7614251,61.8073886 Z" transform="rotate(26 51.664 70.343)"/>
    </g>
    <path stroke="#FFFFFF" stroke-dasharray="9.76" stroke-width="4.504" d="M160.75,21.3958944 C160.75,9.57927977 170.319925,0 182.125,0" transform="rotate(90 171.438 10.698)"/>
    <path stroke="#FFFFFF" stroke-dasharray="9.76" stroke-width="4.504" d="M30.97585,255.60061 C30.97585,243.783995 40.545775,234.204716 52.35085,234.204716" transform="rotate(-90 41.663 244.903)"/>
    <path stroke="#FFE377" stroke-dasharray="9.76" stroke-width="4.504" d="M4.9118965,80.8658671 C4.9118965,69.0492524 14.4818215,59.4699726 26.2868965,59.4699726" transform="rotate(-30 15.6 70.168)"/>
  </g>
</svg>
