<svg width="132" height="132" viewBox="0 0 132 132" fill="none" xmlns="http://www.w3.org/2000/svg">
<rect width="112" height="112" fill="black" fill-opacity="0" transform="translate(10 10)"/>
<rect width="112" height="112" fill="black" fill-opacity="0" transform="translate(10 10)"/>
<g filter="url(#filter0_f)">
<path d="M122 66C122 35.0721 96.9279 10 66 10C35.0721 10 10 35.0721 10 66C10 96.9279 35.0721 122 66 122C96.9279 122 122 96.9279 122 66Z" fill="#2D0760"/>
</g>
<g opacity="0.3">
<rect width="95" height="112" fill="black" fill-opacity="0" transform="translate(19 10)"/>
<path d="M66.5 122C92.7336 122 114 100.774 114 74.59C114 48.4061 92.7336 27.1799 66.5 27.1799C40.2665 27.1799 19 48.4061 19 74.59C19 100.774 40.2665 122 66.5 122Z" fill="#9090CF"/>
<path d="M66.5 122C92.7335 122 114 100.774 114 74.59C114 48.4061 92.7335 27.1799 66.5 27.1799V122Z" fill="#6060BC"/>
<path d="M66.5 113.41C87.9803 113.41 105.394 96.0295 105.394 74.59C105.394 53.1502 87.9803 35.7699 66.5 35.7699C45.0196 35.7699 27.6063 53.1502 27.6063 74.59C27.6063 96.0295 45.0196 113.41 66.5 113.41Z" fill="white"/>
<path d="M66.5 113.41C87.9804 113.41 105.394 96.0295 105.394 74.59C105.394 53.1502 87.9804 35.7699 66.5 35.7699V113.41Z" fill="#F2F2F2"/>
<path d="M94.2375 55.8357C95.7387 54.9689 97.6596 55.4856 98.528 56.9896C99.3963 58.4937 98.8833 60.4156 97.3821 61.2823L72.6482 75.5624L69.5036 70.1158L94.2375 55.8357Z" fill="#FF3D7D"/>
<path d="M71.8223 76.0359L97.3813 61.2794C98.8824 60.4127 99.3955 58.4909 98.5271 56.9868L70.25 73.3126L71.8223 76.0359Z" fill="#DB3069"/>
<path d="M51.357 64.2376C50.1313 63.0119 50.1332 61.0227 51.3613 59.7947C52.5893 58.5666 54.5785 58.5648 55.8042 59.7905L69.9182 73.9045L65.4711 78.3517L51.357 64.2376Z" fill="#DB3069"/>
<path d="M69.9179 73.9072L55.8039 59.7931C54.5782 58.5674 52.589 58.5693 51.361 59.7973L67.6944 76.1307L69.9179 73.9072Z" fill="#FF3D7D"/>
<path d="M66.5 68.4779C69.882 68.4779 72.6237 71.2144 72.6237 74.59C72.6237 77.9656 69.882 80.7021 66.5 80.7021C63.118 80.7021 60.3763 77.9656 60.3763 74.59C60.3763 71.2144 63.118 68.4779 66.5 68.4779Z" fill="#2F126F"/>
<path d="M66.5 68.4779C69.882 68.4779 72.6237 71.2144 72.6237 74.59C72.6237 77.9656 69.882 80.7021 66.5 80.7021V68.4779Z" fill="#1F0B4B"/>
<path d="M26.7747 71.4451C28.5081 71.4451 29.9134 72.853 29.9134 74.5897C29.9134 76.3264 28.5081 77.7343 26.7747 77.7343H19.0107V71.4451H26.7747Z" fill="#1F0B4B"/>
<path d="M63.3554 114.236C63.3554 112.503 64.7633 111.097 66.5 111.097C68.2367 111.097 69.6446 112.503 69.6446 114.236V122H63.3554V114.236Z" fill="#1F0B4B"/>
<path d="M106.225 77.7343C104.492 77.7343 103.087 76.3264 103.087 74.5897C103.087 72.853 104.492 71.4451 106.225 71.4451H113.989V77.7343H106.225Z" fill="#1F0B4B"/>
<path d="M69.6446 34.9434C69.6446 36.6768 68.2367 38.0821 66.5 38.0821C64.7633 38.0821 63.3554 36.6768 63.3554 34.9434V27.1794H69.6446V34.9434Z" fill="#1F0B4B"/>
<path d="M55.0801 14.295C55.0801 16.667 56.7213 18.59 58.7458 18.59H74.2542C76.2787 18.59 77.9199 16.667 77.9199 14.295C77.9199 11.9229 76.2787 10 74.2542 10H58.7458C56.7213 10 55.0801 11.9229 55.0801 14.295Z" fill="#9090CF"/>
<path d="M77.9199 14.295C77.9199 16.667 76.2787 18.59 74.2542 18.59H66.5V10H74.2542C76.2787 10 77.9199 11.9229 77.9199 14.295Z" fill="#6060BC"/>
</g>
<defs>
<filter id="filter0_f" x="0" y="0" width="132" height="132" filterUnits="userSpaceOnUse" color-interpolation-filters="sRGB">
<feFlood flood-opacity="0" result="BackgroundImageFix"/>
<feBlend mode="normal" in="SourceGraphic" in2="BackgroundImageFix" result="shape"/>
<feGaussianBlur stdDeviation="5" result="effect1_foregroundBlur"/>
</filter>
</defs>
</svg>
