<svg xmlns="http://www.w3.org/2000/svg" width="217" height="256" viewBox="0 0 217 256">
  <g fill="none">
    <path fill="#03F9D5" d="M108.5,256 C168.423,256 217,207.483091 217,147.634218 C217,87.7854206 168.423,39.2684366 108.5,39.2684366 C48.5770756,39.2684366 0,87.7854206 0,147.634218 C0,207.483091 48.5770756,256 108.5,256 Z"/>
    <path fill="#03E0C0" d="M108.5,256 C168.422924,256 217,207.483091 217,147.634218 C217,87.7854206 168.422924,39.2684366 108.5,39.2684366 L108.5,256 Z"/>
    <path fill="#FFFFFF" d="M108.5,236.365782 C157.565439,236.365782 197.341463,196.638962 197.341463,147.634218 C197.341463,98.6290973 157.565439,58.9026549 108.5,58.9026549 C59.4341829,58.9026549 19.6585366,98.6290973 19.6585366,147.634218 C19.6585366,196.638962 59.4341829,236.365782 108.5,236.365782 Z"/>
    <path fill="#F2F2F2" d="M108.5,236.365782 C157.565817,236.365782 197.341463,196.638962 197.341463,147.634218 C197.341463,98.6290973 157.565817,58.9026549 108.5,58.9026549 L108.5,236.365782 Z"/>
    <path fill="#6060BC" d="M143.123343,96.4649846 C143.123343,92.5028673 146.339253,89.2909433 150.30627,89.2909433 C154.273287,89.2909433 157.489197,92.5028673 157.489197,96.4649846 L157.489197,161.74574 L143.123343,161.74574 L143.123343,96.4649846 Z" transform="rotate(60 150.306 125.518)"/>
    <path fill="#5656A9" d="M154.749506,166.484971 L154.749506,99.0269324 C154.749506,95.0648151 151.533604,91.8528911 147.566579,91.8528911 L147.566579,166.484971 L154.749506,166.484971 Z" transform="rotate(60 151.158 129.169)"/>
    <path fill="#6060BC" d="M85.3909188,113.258174 C85.3909188,109.296057 88.6068286,106.084133 92.5738456,106.084133 C96.5408627,106.084133 99.7567725,109.296064 99.7567725,113.258174 L99.7567725,158.881678 L85.3909188,158.881678 L85.3909188,113.258174 Z" transform="rotate(-45 92.574 132.483)"/>
    <path fill="#5656A9" d="M98.7046951,156.34566 L98.7046951,110.722156 C98.7046951,106.760046 95.4887929,103.548115 91.5217682,103.548115 L91.5217682,156.34566 L98.7046951,156.34566 Z" transform="rotate(-45 95.113 129.947)"/>
    <path fill="#50189B" d="M108.5,161.60472 C116.225276,161.60472 122.487805,155.349937 122.487805,147.634218 C122.487805,139.918522 116.225276,133.663717 108.5,133.663717 C100.774747,133.663717 94.5121951,139.918522 94.5121951,147.634218 C94.5121951,155.349937 100.774747,161.60472 108.5,161.60472 Z" transform="matrix(1 0 0 -1 0 295.268)"/>
    <path fill="#40137C" d="M108.5,161.60472 C116.225276,161.60472 122.487805,155.349937 122.487805,147.634218 C122.487805,139.918522 116.225276,133.663717 108.5,133.663717 L108.5,161.60472 Z" transform="matrix(1 0 0 -1 0 295.268)"/>
    <path fill="#2222A0" d="M5.29268293,142.348083 C5.29268293,138.385973 8.50859268,135.174041 12.4756098,135.174041 C16.4426268,135.174041 19.6585366,138.385973 19.6585366,142.348083 L19.6585366,160.094395 L5.29268293,160.094395 L5.29268293,142.348083 Z" transform="rotate(90 12.476 147.634)"/>
    <path fill="#2222A0" d="M101.317073,238.253687 C101.317073,234.291578 104.532983,231.079646 108.5,231.079646 C112.467017,231.079646 115.682927,234.291578 115.682927,238.253687 L115.682927,256 L101.317073,256 L101.317073,238.253687 Z"/>
    <path fill="#2222A0" d="M197.341463,142.348083 C197.341463,138.385973 200.557373,135.174041 204.52439,135.174041 C208.491407,135.174041 211.707317,138.385973 211.707317,142.348083 L211.707317,160.094395 L197.341463,160.094395 L197.341463,142.348083 Z" transform="rotate(-90 204.524 147.634)"/>
    <path fill="#2222A0" d="M101.317073,46.4424779 C101.317073,42.4803681 104.532983,39.2684366 108.5,39.2684366 C112.467017,39.2684366 115.682927,42.4803681 115.682927,46.4424779 L115.682927,64.1887906 L101.317073,64.1887906 L101.317073,46.4424779 Z" transform="rotate(-180 108.5 51.729)"/>
    <path fill="#03F9D5" d="M82.4146341,9.81710914 C82.4146341,15.2389475 86.1633961,19.6342183 90.7877341,19.6342183 L126.212266,19.6342183 C130.836634,19.6342183 134.585366,15.2389475 134.585366,9.81710914 C134.585366,4.39527835 130.836634,0 126.212266,0 L90.7877341,0 C86.1633961,0 82.4146341,4.39527835 82.4146341,9.81710914 Z"/>
    <path fill="#03E0C0" d="M134.585366,9.81710914 C134.585366,15.2389475 130.836634,19.6342183 126.212266,19.6342183 L108.5,19.6342183 L108.5,0 L126.212266,0 C130.836634,0 134.585366,4.39527835 134.585366,9.81710914 Z"/>
  </g>
</svg>
