<svg xmlns="http://www.w3.org/2000/svg" width="165" height="193" viewBox="0 0 165 193">
  <g fill="none" opacity=".15">
    <path fill="#B8ACDE" d="M82.5,193 C127.511286,193 164,156.422799 164,111.30236 C164,66.1819773 127.511286,29.6047198 82.5,29.6047198 C37.4887711,29.6047198 1,66.1819773 1,111.30236 C1,156.422799 37.4887711,193 82.5,193 Z"/>
    <path fill="#A89CCF" d="M82.5,193 C127.511229,193 164,156.422799 164,111.30236 C164,66.1819773 127.511229,29.6047198 82.5,29.6047198 L82.5,193 Z"/>
    <path fill="#FFFFFF" d="M82.5,178.19764 C119.355606,178.19764 149.233449,148.247342 149.233449,111.30236 C149.233449,74.3570929 119.355606,44.4070796 82.5,44.4070796 C45.6441098,44.4070796 15.7665505,74.3570929 15.7665505,111.30236 C15.7665505,148.247342 45.6441098,178.19764 82.5,178.19764 Z"/>
    <path fill="#F5F2FE" d="M82.5,178.19764 C119.35589,178.19764 149.233449,148.247342 149.233449,111.30236 C149.233449,74.3570929 119.35589,44.4070796 82.5,44.4070796 L82.5,178.19764 Z"/>
    <path fill="#7A6CA3" d="M108.507396,72.7255548 C108.507396,69.7384898 110.923033,67.3170002 113.902866,67.3170002 C116.882699,67.3170002 119.298337,69.7384898 119.298337,72.7255548 L119.298337,121.941124 L108.507396,121.941124 L108.507396,72.7255548 Z" transform="rotate(60 113.903 94.63)"/>
    <path fill="#6F6199" d="M117.240412,125.51406 L117.240412,74.6570233 C117.240412,71.6699583 114.824781,69.2484687 111.844942,69.2484687 L111.844942,125.51406 L117.240412,125.51406 Z" transform="rotate(60 114.543 97.381)"/>
    <path fill="#7A6CA3" d="M65.1415657,85.3860453 C65.1415657,82.3989803 67.557203,79.9774907 70.5370361,79.9774907 C73.5168692,79.9774907 75.9325065,82.398986 75.9325065,85.3860453 L75.9325065,119.78189 L65.1415657,119.78189 L65.1415657,85.3860453 Z" transform="rotate(-45 70.537 99.88)"/>
    <path fill="#6F6199" d="M75.1422364,117.86997 L75.1422364,83.4741253 C75.1422364,80.487066 72.7266048,78.0655708 69.746766,78.0655708 L69.746766,117.86997 L75.1422364,117.86997 Z" transform="rotate(-45 72.445 97.968)"/>
    <path fill="#443672" d="M82.5,121.834808 C88.3028568,121.834808 93.0069686,117.119289 93.0069686,111.30236 C93.0069686,105.485448 88.3028568,100.769912 82.5,100.769912 C76.6971602,100.769912 71.9930314,105.485448 71.9930314,111.30236 C71.9930314,117.119289 76.6971602,121.834808 82.5,121.834808 Z" transform="matrix(1 0 0 -1 0 222.605)"/>
    <path fill="#382966" d="M82.5,121.834808 C88.3028568,121.834808 93.0069686,117.119289 93.0069686,111.30236 C93.0069686,105.485448 88.3028568,100.769912 82.5,100.769912 L82.5,121.834808 Z" transform="matrix(1 0 0 -1 0 222.605)"/>
    <path fill="#1F0B4B" d="M4.97560976,107.317109 C4.97560976,104.33005 7.39124704,101.908555 10.3710801,101.908555 C13.3509132,101.908555 15.7665505,104.33005 15.7665505,107.317109 L15.7665505,120.696165 L4.97560976,120.696165 L4.97560976,107.317109 Z" transform="rotate(90 10.371 111.302)"/>
    <path fill="#1F0B4B" d="M77.1045296,179.620944 C77.1045296,176.633885 79.5201669,174.212389 82.5,174.212389 C85.4798331,174.212389 87.8954704,176.633885 87.8954704,179.620944 L87.8954704,193 L77.1045296,193 L77.1045296,179.620944 Z"/>
    <path fill="#1F0B4B" d="M149.233449,107.317109 C149.233449,104.33005 151.649087,101.908555 154.62892,101.908555 C157.608753,101.908555 160.02439,104.33005 160.02439,107.317109 L160.02439,120.696165 L149.233449,120.696165 L149.233449,107.317109 Z" transform="rotate(-90 154.629 111.302)"/>
    <path fill="#1F0B4B" d="M77.1045296,35.0132743 C77.1045296,32.026215 79.5201669,29.6047198 82.5,29.6047198 C85.4798331,29.6047198 87.8954704,32.026215 87.8954704,35.0132743 L87.8954704,48.3923304 L77.1045296,48.3923304 L77.1045296,35.0132743 Z" transform="rotate(-180 82.5 38.999)"/>
    <path fill="#B8ACDE" d="M62.9059233,7.40117994 C62.9059233,11.4887378 65.7218137,14.8023599 69.1953948,14.8023599 L95.8046052,14.8023599 C99.2782091,14.8023599 102.094077,11.4887378 102.094077,7.40117994 C102.094077,3.31362782 99.2782091,0 95.8046052,0 L69.1953948,0 C65.7218137,0 62.9059233,3.31362782 62.9059233,7.40117994 Z"/>
    <path fill="#A89CCF" d="M102.094077,7.40117994 C102.094077,11.4887378 99.2782091,14.8023599 95.8046052,14.8023599 L82.5,14.8023599 L82.5,0 L95.8046052,0 C99.2782091,0 102.094077,3.31362782 102.094077,7.40117994 Z"/>
  </g>
</svg>
