<svg width="132" height="132" viewBox="0 0 132 132" fill="none" xmlns="http://www.w3.org/2000/svg">
<rect width="112" height="112" fill="black" fill-opacity="0" transform="translate(10 10)"/>
<rect width="112" height="112" fill="black" fill-opacity="0" transform="translate(10 10)"/>
<g filter="url(#filter0_f)">
<path d="M122 66C122 35.0721 96.9279 10 66 10C35.0721 10 10 35.0721 10 66C10 96.9279 35.0721 122 66 122C96.9279 122 122 96.9279 122 66Z" fill="#2D0760"/>
</g>
<g opacity="0.3">
<rect width="111.658" height="101.748" fill="black" fill-opacity="0" transform="translate(10.2671 15.2519)"/>
<path d="M66.3742 25.1182L69.9529 21.5395C70.4473 21.0451 70.4473 20.2435 69.9529 19.7491L66.3509 16.1471C65.8565 15.6527 65.0549 15.6527 64.5605 16.1471L60.9818 19.7258C60.4874 20.2202 60.4874 21.0218 60.9818 21.5162L64.5838 25.1182C65.0782 25.6126 65.8798 25.6126 66.3742 25.1182Z" stroke="#DB3069" stroke-width="1.898"/>
<path d="M102.384 42.234C104.656 42.234 106.497 40.3845 106.497 38.103C106.497 35.8215 104.656 33.972 102.384 33.972C100.112 33.972 98.271 35.8215 98.271 38.103C98.271 40.3845 100.112 42.234 102.384 42.234Z" stroke="#FFE377" stroke-width="1.898"/>
<path fill-rule="evenodd" clip-rule="evenodd" d="M25.4975 34.9325L34.5202 37.3678L27.9328 43.9552L25.4975 34.9325Z" stroke="#03F9D5" stroke-width="1.898" stroke-linejoin="round"/>
<path fill-rule="evenodd" clip-rule="evenodd" d="M117.268 67.35L121.925 75.453H112.61L117.268 67.35Z" stroke="#6060BC" stroke-width="1.898" stroke-linejoin="round"/>
<path d="M35.9118 44.487L44.8605 53.4357" stroke="white" stroke-width="1.898" stroke-dasharray="4.11 4.11"/>
<path d="M94.791 72.8318H107.446M24.2373 72.8318H36.8927H24.2373Z" stroke="white" stroke-width="1.898" stroke-dasharray="4.11 4.11"/>
<path d="M95.4562 44.487L86.5075 53.4357" stroke="white" stroke-width="1.898" stroke-dasharray="4.11 4.11"/>
<path d="M66.1615 31.2324V43.8877" stroke="white" stroke-width="1.898" stroke-dasharray="4.11 4.11"/>
<rect width="10.6725" height="10.6725" fill="black" fill-opacity="0" transform="translate(10.2671 70.5315) rotate(-30)"/>
<path opacity="0.3" d="M15.2966 76.196C14.8962 76.5964 14.2456 76.595 13.8435 76.1929C13.4413 75.7907 13.4399 75.1401 13.8403 74.7397L19.8129 68.7672C20.2133 68.3668 20.8639 68.3682 21.266 68.7703C21.6682 69.1725 21.6696 69.8231 21.2692 70.2235L15.2966 76.196Z" fill="#179CFF"/>
<path opacity="0.3" d="M19.7734 76.223C20.1738 76.6234 20.8244 76.622 21.2266 76.2198C21.6287 75.8177 21.6301 75.1671 21.2297 74.7666L15.2572 68.7941C14.8568 68.3937 14.2062 68.3951 13.804 68.7972C13.4019 69.1994 13.4005 69.85 13.8009 70.2504L19.7734 76.223Z" fill="#179CFF"/>
<path d="M76.2939 107.021H54.3169C51.3337 107.021 48.9153 107.121 48.9153 103.324V61.7099L51.2611 72.8314C52.4545 72.8314 53.4218 74.0627 53.4218 75.5813V78.3312C53.4218 79.85 54.3891 81.0812 55.5825 81.0812H75.0284C76.2217 81.0812 77.189 79.85 77.189 78.3312V75.5813C77.189 74.0627 78.253 69.9716 79.4463 69.9716L81.8192 67.7473V103.336C81.8192 107.133 79.2771 107.021 76.2939 107.021Z" fill="#DB3069"/>
<path d="M77.1892 78.3318C77.1892 79.8507 76.2219 81.0818 75.0285 81.0818H65.3055V107.022L76.294 107.022C79.2772 107.022 81.8193 107.133 81.8193 103.337V67.7479L79.4465 69.9722C78.2531 69.9722 77.1892 74.0633 77.1892 75.5819V78.3318Z" fill="#C52B5F"/>
<path d="M83.4651 104.303L84.6667 117H46.0678L47.2694 104.303C47.4688 102.195 48.5034 100.432 49.9352 99.7595L58.0931 95.9283C58.8993 95.5495 59.4432 94.4863 59.4432 93.2887V88.8023L55.1901 86.3054C52.9825 85.0095 51.5446 81.9705 51.5446 78.6009V77.2098C49.9087 77.2098 48.5827 75.3414 48.5827 73.0365C48.5827 70.7317 49.9087 68.8633 51.5446 68.8633V66.0811C51.5446 62.2398 53.7549 59.1257 56.4813 59.1257H74.2531C76.9795 59.1257 79.1898 62.2396 79.1898 66.0811V68.8633C80.8255 68.8633 82.1517 70.7317 82.1517 73.0365C82.1517 75.3414 80.8255 77.2098 79.1898 77.2098V78.6009C79.1898 81.9705 77.7518 85.0095 75.5443 86.3053L71.2913 88.8021V93.2887C71.2913 94.4863 71.8352 95.5495 72.6414 95.9283L80.7992 99.7595C82.2312 100.432 83.2657 102.195 83.4651 104.303Z" fill="white"/>
<path d="M83.4651 104.303L84.6667 117H65.3672V59.1257H74.2532C76.9795 59.1257 79.1898 62.2396 79.1898 66.0811V68.8633C80.8256 68.8633 82.1517 70.7317 82.1517 73.0365C82.1517 75.3414 80.8256 77.2098 79.1898 77.2098V78.6009C79.1898 81.9705 77.7519 85.0095 75.5443 86.3053L71.2913 88.8021V93.2887C71.2913 94.4863 71.8352 95.5495 72.6415 95.9283L80.7993 99.7595C82.2311 100.432 83.2657 102.195 83.4651 104.303Z" fill="#F2F2F2"/>
<path d="M76.4175 54.053L54.3788 54.0841C51.3956 54.0841 48.9153 57.1191 48.9153 60.9159L48.9771 69.2087H51.323C52.5163 69.2087 53.4837 68.9307 53.4837 67.412C53.4837 65.8932 54.366 64.8879 55.5593 64.8879H75.1751C76.3685 64.8879 77.2509 65.8932 77.2509 67.412C77.2509 68.9307 78.2182 69.2087 79.4116 69.2087L81.8192 69.1776V60.9278C81.8192 57.131 79.4008 54.053 76.4175 54.053Z" fill="#DB3069"/>
<path d="M77.2509 67.412C77.2509 65.8932 76.3685 64.8879 75.1752 64.8879H65.3672V54.0686L76.4176 54.053C79.4008 54.053 81.8192 57.131 81.8192 60.9278V69.1776L79.4116 69.2087C78.2182 69.2087 77.2509 68.9307 77.2509 67.412Z" fill="#C52B5F"/>
</g>
<defs>
<filter id="filter0_f" x="0" y="0" width="132" height="132" filterUnits="userSpaceOnUse" color-interpolation-filters="sRGB">
<feFlood flood-opacity="0" result="BackgroundImageFix"/>
<feBlend mode="normal" in="SourceGraphic" in2="BackgroundImageFix" result="shape"/>
<feGaussianBlur stdDeviation="5" result="effect1_foregroundBlur"/>
</filter>
</defs>
</svg>
