<svg xmlns="http://www.w3.org/2000/svg" width="250" height="233" viewBox="0 0 250 233">
  <g fill="none" fill-rule="evenodd" transform="translate(-8 1)">
    <rect width="17.356" height="17.346" x="118.103" y="4.14" stroke="#DB3069" stroke-width="4.339" rx="2.893" transform="rotate(135 126.78 12.813)"/>
    <ellipse cx="211.164" cy="52.549" stroke="#FFE377" stroke-width="4.339" rx="9.401" ry="9.396"/>
    <polygon stroke="#03F9D5" stroke-linejoin="round" stroke-width="4.339" points="41.97 42.637 52.617 61.067 31.323 61.067" transform="rotate(-45 41.97 51.852)"/>
    <polygon stroke="#6060BC" stroke-linejoin="round" stroke-width="4.339" points="245.183 119.071 255.83 137.501 234.536 137.501"/>
    <path stroke="#FFFFFF" stroke-dasharray="9.401" stroke-width="4.339" d="M53.4489691,76.6105919 L82.3755228,76.6105919" transform="rotate(45 67.912 78.779)"/>
    <path stroke="#FFFFFF" stroke-dasharray="9.401" stroke-width="4.339" d="M32.5423729 131.538941L61.4689266 131.538941M193.80791 131.538941L222.734463 131.538941"/>
    <path stroke="#FFFFFF" stroke-dasharray="9.401" stroke-width="4.339" d="M172.17815,76.6105919 L201.104703,76.6105919" transform="scale(-1 1) rotate(45 0 -371.813)"/>
    <path stroke="#FFFFFF" stroke-dasharray="9.401" stroke-width="4.339" d="M111.728814,49.1464174 L140.655367,49.1464174" transform="rotate(90 126.192 51.315)"/>
    <g fill="#179CFF" fill-rule="nonzero" transform="rotate(-30 236.004 62.105)">
      <path d="M2.60126311,14.5217492 C1.30693601,14.5217492 0.257676576,13.4731026 0.257676576,12.1795316 C0.257676576,10.8859605 1.30693601,9.83731394 2.60126311,9.83731394 L21.9074478,9.83731394 C23.2017749,9.83731394 24.2510343,10.8859605 24.2510343,12.1795316 C24.2510343,13.4731026 23.2017749,14.5217492 21.9074478,14.5217492 L2.60126311,14.5217492 Z" transform="rotate(-15 12.254 12.18)"/>
      <path d="M2.49192048,14.5295615 C1.19759338,14.5295615 0.148333945,13.4809149 0.148333945,12.1873438 C0.148333945,10.8937728 1.19759338,9.84512621 2.49192048,9.84512621 L21.7981051,9.84512621 C23.0924322,9.84512621 24.1416917,10.8937728 24.1416917,12.1873438 C24.1416917,13.4809149 23.0924322,14.5295615 21.7981051,14.5295615 L2.49192048,14.5295615 Z" transform="scale(-1 1) rotate(-75 0 28.015)"/>
    </g>
    <path fill="#DB3069" fill-rule="nonzero" d="M151.528931,106.24377 L101.295801,106.24377 C94.4770459,106.24377 88.9491525,106.017357 88.9491525,114.653171 L88.9491525,209.305196 L94.3111376,184.009246 C97.0388249,184.009246 99.2497537,181.208623 99.2497537,177.754569 L99.2497537,171.499821 C99.2497537,168.045261 101.460755,165.245072 104.188456,165.245072 L148.636276,165.245072 C151.363977,165.245072 153.574906,168.045261 153.574906,171.499821 L153.574906,177.754569 C153.574906,181.208623 156.006762,190.513919 158.734463,190.513919 L164.158192,195.573109 L164.158192,114.626069 C164.158192,105.990236 158.347643,106.24377 151.528931,106.24377 Z" transform="matrix(1 0 0 -1 0 315.548)"/>
    <path fill="#C52B5F" fill-rule="nonzero" d="M153.575195,185.231908 C153.575195,181.777348 151.364267,178.977159 148.636565,178.977159 L126.412655,178.977159 L126.412655,119.975078 L151.52922,119.975858 C158.347932,119.975858 164.158481,119.722324 164.158481,128.358156 L164.158481,209.305196 L158.734753,204.246006 C156.007051,204.246006 153.575195,194.94071 153.575195,191.486657 L153.575195,185.231908 Z" transform="matrix(1 0 0 -1 0 329.28)"/>
    <path fill="#FFFFFF" fill-rule="nonzero" d="M167.92009,203.120698 L170.666667,232 L82.440678,232 L85.1871385,203.120698 C85.6429993,198.326031 88.0077812,194.315539 91.2803435,192.786218 L109.926979,184.072125 C111.769889,183.210617 113.01308,180.792324 113.01308,178.068312 L113.01308,167.863998 L103.291589,162.184912 C98.2457853,159.237211 94.9591503,152.324984 94.9591503,144.660817 L94.9591503,141.4968 C91.2199593,141.4968 88.1888832,137.24708 88.1888832,132.004675 C88.1888832,126.76227 91.2199593,122.512551 94.9591503,122.512551 L94.9591503,116.184444 C94.9591503,107.447324 100.011101,100.364212 106.24282,100.364212 L146.864235,100.364212 C153.095955,100.364212 158.147977,107.446926 158.147977,116.184444 L158.147977,122.512551 C161.886734,122.512551 164.918237,126.76227 164.918237,132.004675 C164.918237,137.24708 161.886734,141.4968 158.147977,141.4968 L158.147977,144.660817 C158.147977,152.324984 154.861198,159.237211 149.815467,162.184551 L140.094264,167.863564 L140.094264,178.068312 C140.094264,180.792324 141.337455,183.210617 143.180366,184.072125 L161.826712,192.786218 C165.099751,194.315539 167.464497,198.326754 167.92009,203.120698 Z"/>
    <path fill="#F2F2F2" fill-rule="nonzero" d="M167.920235,203.120698 L170.666667,232 L126.553672,232 L126.553672,100.364212 L146.864307,100.364212 C153.096027,100.364212 158.147977,107.446926 158.147977,116.184444 L158.147977,122.512551 C161.887096,122.512551 164.918165,126.76227 164.918165,132.004675 C164.918165,137.24708 161.887096,141.4968 158.147977,141.4968 L158.147977,144.66089 C158.147977,152.324984 154.861342,159.237211 149.815539,162.184551 L140.094337,167.863564 L140.094337,178.068312 C140.094337,180.792324 141.337528,183.210617 143.180438,184.072125 L161.827001,192.786218 C165.099607,194.315539 167.464353,198.326754 167.920235,203.120698 Z"/>
    <path fill="#DB3069" fill-rule="nonzero" d="M151.811544,88.8263676 L101.43718,88.8971574 C94.6184678,88.8971574 88.9491525,95.8002659 88.9491525,104.436065 L89.0905723,123.298171 L94.4525523,123.298171 C97.1802034,123.298171 99.3912045,122.665844 99.3912045,119.211646 C99.3912045,115.757087 101.407892,113.470405 104.135593,113.470405 L148.971751,113.470405 C151.699453,113.470405 153.716357,115.757087 153.716357,119.211646 C153.716357,122.665844 155.927358,123.298171 158.654988,123.298171 L164.158192,123.227414 L164.158192,104.463168 C164.158192,95.8273687 158.630328,88.8263676 151.811544,88.8263676 Z"/>
    <path fill="#C52B5F" fill-rule="nonzero" d="M153.716357,119.211646 C153.716357,115.757087 151.699453,113.470405 148.971751,113.470405 L126.553672,113.470405 L126.553672,88.8618619 L151.811544,88.8263676 C158.630328,88.8263676 164.158192,95.8273687 164.158192,104.463168 L164.158192,123.227414 L158.654988,123.298171 C155.927358,123.298171 153.716357,122.665844 153.716357,119.211646 Z"/>
  </g>
</svg>
