<svg height="175" viewBox="0 0 188 175" width="188" xmlns="http://www.w3.org/2000/svg"><g fill="none" fill-rule="evenodd" opacity=".15" transform="translate(-6 1)"><g stroke-width="3.254237"><rect height="13.009346" rx="2.169492" stroke="#7a6ca3" transform="matrix(-.70710678 .70710678 -.70710678 -.70710678 169.11623 -50.831204)" width="13.016949" x="88.577127" y="3.104843"/><ellipse cx="158.372881" cy="39.411379" rx="7.050847" ry="7.046729" stroke="#e6dffd"/><path d="m31.4773864 31.9778429 7.9850305 13.8224299h-15.9700773z" stroke="#b8acde" stroke-linejoin="round" transform="matrix(.70710678 -.70710678 .70710678 .70710678 -18.279206 33.648209)"/><path d="m183.887186 89.3031963 7.985031 13.8224297h-15.970077z" stroke="#7a6ca3" stroke-linejoin="round"/><path d="m40.0867268 57.4579439h21.6949153" stroke="#fff" stroke-dasharray="7.050847" transform="matrix(.70710678 .70710678 -.70710678 .70710678 56.697053 -18.710571)"/><path d="m24.4067797 98.6542056h21.6949152" stroke="#fff" stroke-dasharray="7.050847"/><path d="m145.355932 98.6542056h21.694915" stroke="#fff" stroke-dasharray="7.050847"/><path d="m129.133612 57.4579439h21.694915" stroke="#fff" stroke-dasharray="7.050847" transform="matrix(-.70710678 .70710678 .70710678 .70710678 197.183858 -81.676228)"/><path d="m83.7966102 36.8598131h21.6949148" stroke="#fff" stroke-dasharray="7.050847" transform="matrix(0 1 -1 0 133.130049 -56.158087)"/></g><g fill="#8f81b7" fill-rule="nonzero" transform="matrix(.8660254 -.5 .5 .8660254 .424424 94.741935)"><path d="m1.95094733 10.8913119c-.97074532 0-1.7576899-.7864849-1.7576899-1.75666323 0-.97017831.78694458-1.75666322 1.7576899-1.75666322h14.47963847c.9707454 0 1.7576899.78648491 1.7576899 1.75666322 0 .97017833-.7869445 1.75666323-1.7576899 1.75666323z" transform="matrix(.96592583 -.25881905 .25881905 .96592583 -2.051053 2.690001)"/><path d="m1.86894036 10.8971711c-.97074533 0-1.7576899-.7864849-1.7576899-1.75666323 0-.9701783.78694457-1.75666321 1.7576899-1.75666321h14.47963844c.9707454 0 1.75769.78648491 1.75769 1.75666321 0 .97017833-.7869446 1.75666323-1.75769 1.75666323z" transform="matrix(-.25881905 -.96592583 -.96592583 .25881905 20.295333 15.573157)"/></g><path d="m113.646698 79.6828279h-37.6748472c-5.1140664 0-9.2599864-.1698105-9.2599864 6.3070506v70.9890185l4.0214888-18.971962c2.0457654 0 3.7039621-2.100468 3.7039621-4.691008v-4.691062c0-2.590919 1.6582508-4.691061 3.7040271-4.691061h33.3358646c2.045776 0 3.703973 2.100142 3.703973 4.691061v4.691062c0 2.59054 1.823891 9.569512 3.869667 9.569512l4.067797 3.794393v-60.7102806c0-6.4768741-4.357912-6.2867235-9.471946-6.2867235z" fill="#7a6ca3" fill-rule="nonzero" transform="matrix(1 0 0 -1 0 236.66114)"/><path d="m115.181397 138.923931c0-2.59092-1.658197-4.691062-3.703973-4.691062h-16.6679325v-44.2515606l18.8374235.0005849c5.114034 0 9.471946-.1901506 9.471946 6.2867235v60.7102802l-4.067797-3.794392c-2.045776 0-3.869667-6.978972-3.869667-9.569512z" fill="#6f6199" fill-rule="nonzero" transform="matrix(1 0 0 -1 0 246.960206)"/><path d="m125.940068 152.340523 2.059932 21.659477h-66.1694915l2.0598454-21.659477c.3418956-3.596 2.115482-6.603869 4.5699037-7.750859l13.9849763-6.535571c1.382183-.64613 2.3145763-2.45985 2.3145763-4.502859v-7.653236l-7.2911187-4.259314c-3.7843525-2.210776-6.2493288-7.394946-6.2493288-13.143071v-2.373013c-2.8043932 0-5.0777003-3.18729-5.0777003-7.1190935 0-3.9318037 2.2733071-7.1190934 5.0777003-7.1190934v-4.7460804c0-6.55284 3.7889627-11.8651738 8.4627526-11.8651738h30.4660607c4.67379 0 8.462807 5.3120357 8.462807 11.8651738v4.7460804c2.804068 0 5.077695 3.1872897 5.077695 7.1190934 0 3.9318035-2.273627 7.1190935-5.077695 7.1190935v2.373013c0 5.748125-2.465085 10.932295-6.249383 13.1428l-7.290902 4.25926v7.653561c0 2.043009.932394 3.856729 2.314577 4.502859l13.984759 6.535571c2.45478 1.14699 4.228339 4.155401 4.570034 7.750859z" fill="#fff" fill-rule="nonzero"/><path d="m125.940176 152.340523 2.059824 21.659477h-33.0847458v-98.7268411h15.2329768c4.673789 0 8.462752 5.3120357 8.462752 11.8651738v4.7460804c2.804339 0 5.077641 3.1872897 5.077641 7.1190934 0 3.9318035-2.273302 7.1190935-5.077641 7.1190935v2.373067c0 5.748071-2.464976 10.932241-6.249329 13.142746l-7.290901 4.25926v7.653561c0 2.043009.932393 3.856729 2.314576 4.502859l13.984922 6.535571c2.454454 1.14699 4.228013 4.155401 4.569925 7.750859z" fill="#f5f2ff" fill-rule="nonzero"/><path d="m113.858658 66.6197757-37.7807733.0530923c-5.1140339 0-9.3660203 5.1773314-9.3660203 11.6541806l.1060648 14.1465794h4.021485c2.0457383 0 3.7039892-.4742448 3.7039892-3.0648934 0-2.5909196 1.5125152-4.3059309 3.5582915-4.3059309h33.6271191c2.045776 0 3.558454 1.7150113 3.558454 4.3059309 0 2.5906486 1.658251 3.0648934 3.703973 3.0648934l4.127403-.0530673v-14.073185c0-6.4768492-4.145898-11.7276-9.259986-11.7276z" fill="#7a6ca3" fill-rule="nonzero"/><path d="m115.287268 89.4087346c0-2.5909196-1.512678-4.3059309-3.558454-4.3059309h-16.8135598v-18.4564073l18.9434038-.0266207c5.114088 0 9.259986 5.2507508 9.259986 11.7276v14.073185l-4.127403.0530673c-2.045722 0-3.703973-.4742448-3.703973-3.0648934z" fill="#6f6199" fill-rule="nonzero"/></g></svg>